G04 #@! TF.FileFunction,Legend,Bot*
%FSLAX46Y46*%
G04 Gerber Fmt 4.6, Leading zero omitted, Abs format (unit mm)*
G04 Created by KiCad (PCBNEW (2016-08-20 BZR 7083)-product) date Thu Dec  8 21:02:35 2016*
%MOMM*%
%LPD*%
G01*
G04 APERTURE LIST*
%ADD10C,0.100000*%
%ADD11C,0.200000*%
G04 APERTURE END LIST*
D10*
D11*
X22261904Y89592858D02*
X21500000Y89592858D01*
X20500000Y89021429D02*
X21071428Y89021429D01*
X20785714Y89021429D02*
X20785714Y90521429D01*
X20880952Y90307143D01*
X20976190Y90164286D01*
X21071428Y90092858D01*
X20119047Y90378572D02*
X20071428Y90450000D01*
X19976190Y90521429D01*
X19738095Y90521429D01*
X19642857Y90450000D01*
X19595238Y90378572D01*
X19547619Y90235715D01*
X19547619Y90092858D01*
X19595238Y89878572D01*
X20166666Y89021429D01*
X19547619Y89021429D01*
X19261904Y90521429D02*
X18928571Y89021429D01*
X18595238Y90521429D01*
X11561904Y91392858D02*
X10800000Y91392858D01*
X11180952Y90821429D02*
X11180952Y91964286D01*
X9800000Y90821429D02*
X10371428Y90821429D01*
X10085714Y90821429D02*
X10085714Y92321429D01*
X10180952Y92107143D01*
X10276190Y91964286D01*
X10371428Y91892858D01*
X9419047Y92178572D02*
X9371428Y92250000D01*
X9276190Y92321429D01*
X9038095Y92321429D01*
X8942857Y92250000D01*
X8895238Y92178572D01*
X8847619Y92035715D01*
X8847619Y91892858D01*
X8895238Y91678572D01*
X9466666Y90821429D01*
X8847619Y90821429D01*
X8561904Y92321429D02*
X8228571Y90821429D01*
X7895238Y92321429D01*
D10*
X20128571Y2671429D02*
X19976190Y2138096D01*
X19823809Y2519048D01*
X19671428Y2138096D01*
X19519047Y2671429D01*
X19290476Y2671429D02*
X19138095Y2138096D01*
X18985714Y2519048D01*
X18833333Y2138096D01*
X18680952Y2671429D01*
X18452380Y2671429D02*
X18300000Y2138096D01*
X18147619Y2519048D01*
X17995238Y2138096D01*
X17842857Y2671429D01*
X17538095Y2214286D02*
X17500000Y2176191D01*
X17538095Y2138096D01*
X17576190Y2176191D01*
X17538095Y2214286D01*
X17538095Y2138096D01*
X16852380Y2176191D02*
X16928571Y2138096D01*
X17080952Y2138096D01*
X17157142Y2176191D01*
X17195238Y2252381D01*
X17195238Y2557143D01*
X17157142Y2633334D01*
X17080952Y2671429D01*
X16928571Y2671429D01*
X16852380Y2633334D01*
X16814285Y2557143D01*
X16814285Y2480953D01*
X17195238Y2404762D01*
X16471428Y2138096D02*
X16471428Y2671429D01*
X16471428Y2519048D02*
X16433333Y2595239D01*
X16395238Y2633334D01*
X16319047Y2671429D01*
X16242857Y2671429D01*
X15976190Y2138096D02*
X15976190Y2671429D01*
X15976190Y2938096D02*
X16014285Y2900000D01*
X15976190Y2861905D01*
X15938095Y2900000D01*
X15976190Y2938096D01*
X15976190Y2861905D01*
X15252380Y2176191D02*
X15328571Y2138096D01*
X15480952Y2138096D01*
X15557142Y2176191D01*
X15595238Y2214286D01*
X15633333Y2290477D01*
X15633333Y2519048D01*
X15595238Y2595239D01*
X15557142Y2633334D01*
X15480952Y2671429D01*
X15328571Y2671429D01*
X15252380Y2633334D01*
X14566666Y2138096D02*
X14566666Y2557143D01*
X14604761Y2633334D01*
X14680952Y2671429D01*
X14833333Y2671429D01*
X14909523Y2633334D01*
X14566666Y2176191D02*
X14642857Y2138096D01*
X14833333Y2138096D01*
X14909523Y2176191D01*
X14947619Y2252381D01*
X14947619Y2328572D01*
X14909523Y2404762D01*
X14833333Y2442858D01*
X14642857Y2442858D01*
X14566666Y2480953D01*
X14223809Y2176191D02*
X14147619Y2138096D01*
X13995238Y2138096D01*
X13919047Y2176191D01*
X13880952Y2252381D01*
X13880952Y2290477D01*
X13919047Y2366667D01*
X13995238Y2404762D01*
X14109523Y2404762D01*
X14185714Y2442858D01*
X14223809Y2519048D01*
X14223809Y2557143D01*
X14185714Y2633334D01*
X14109523Y2671429D01*
X13995238Y2671429D01*
X13919047Y2633334D01*
X13614285Y2671429D02*
X13423809Y2138096D01*
X13233333Y2671429D02*
X13423809Y2138096D01*
X13500000Y1947620D01*
X13538095Y1909524D01*
X13614285Y1871429D01*
X12928571Y2671429D02*
X12928571Y2138096D01*
X12928571Y2595239D02*
X12890476Y2633334D01*
X12814285Y2671429D01*
X12700000Y2671429D01*
X12623809Y2633334D01*
X12585714Y2557143D01*
X12585714Y2138096D01*
X12319047Y2671429D02*
X12014285Y2671429D01*
X12204761Y2938096D02*
X12204761Y2252381D01*
X12166666Y2176191D01*
X12090476Y2138096D01*
X12014285Y2138096D01*
X11747619Y2138096D02*
X11747619Y2938096D01*
X11404761Y2138096D02*
X11404761Y2557143D01*
X11442857Y2633334D01*
X11519047Y2671429D01*
X11633333Y2671429D01*
X11709523Y2633334D01*
X11747619Y2595239D01*
X11061904Y2176191D02*
X10985714Y2138096D01*
X10833333Y2138096D01*
X10757142Y2176191D01*
X10719047Y2252381D01*
X10719047Y2290477D01*
X10757142Y2366667D01*
X10833333Y2404762D01*
X10947619Y2404762D01*
X11023809Y2442858D01*
X11061904Y2519048D01*
X11061904Y2557143D01*
X11023809Y2633334D01*
X10947619Y2671429D01*
X10833333Y2671429D01*
X10757142Y2633334D01*
X10376190Y2214286D02*
X10338095Y2176191D01*
X10376190Y2138096D01*
X10414285Y2176191D01*
X10376190Y2214286D01*
X10376190Y2138096D01*
X9880952Y2138096D02*
X9957142Y2176191D01*
X9995238Y2252381D01*
X9995238Y2938096D01*
X9652380Y2671429D02*
X9461904Y2138096D01*
X9271428Y2671429D01*
D11*
X18976190Y44032143D02*
X18642857Y44032143D01*
X18500000Y43246429D02*
X18976190Y43246429D01*
X18976190Y44746429D01*
X18500000Y44746429D01*
X18071428Y43246429D02*
X18071428Y44246429D01*
X18071428Y43960715D02*
X18023809Y44103572D01*
X17976190Y44175000D01*
X17880952Y44246429D01*
X17785714Y44246429D01*
X17452380Y43246429D02*
X17452380Y44246429D01*
X17452380Y44746429D02*
X17500000Y44675000D01*
X17452380Y44603572D01*
X17404761Y44675000D01*
X17452380Y44746429D01*
X17452380Y44603572D01*
X16547619Y43317858D02*
X16642857Y43246429D01*
X16833333Y43246429D01*
X16928571Y43317858D01*
X16976190Y43389286D01*
X17023809Y43532143D01*
X17023809Y43960715D01*
X16976190Y44103572D01*
X16928571Y44175000D01*
X16833333Y44246429D01*
X16642857Y44246429D01*
X16547619Y44175000D01*
X15690476Y43246429D02*
X15690476Y44032143D01*
X15738095Y44175000D01*
X15833333Y44246429D01*
X16023809Y44246429D01*
X16119047Y44175000D01*
X15690476Y43317858D02*
X15785714Y43246429D01*
X16023809Y43246429D01*
X16119047Y43317858D01*
X16166666Y43460715D01*
X16166666Y43603572D01*
X16119047Y43746429D01*
X16023809Y43817858D01*
X15785714Y43817858D01*
X15690476Y43889286D01*
X14500000Y43317858D02*
X14357142Y43246429D01*
X14119047Y43246429D01*
X14023809Y43317858D01*
X13976190Y43389286D01*
X13928571Y43532143D01*
X13928571Y43675000D01*
X13976190Y43817858D01*
X14023809Y43889286D01*
X14119047Y43960715D01*
X14309523Y44032143D01*
X14404761Y44103572D01*
X14452380Y44175000D01*
X14500000Y44317858D01*
X14500000Y44460715D01*
X14452380Y44603572D01*
X14404761Y44675000D01*
X14309523Y44746429D01*
X14071428Y44746429D01*
X13928571Y44675000D01*
X13595238Y44246429D02*
X13357142Y43246429D01*
X13119047Y44246429D02*
X13357142Y43246429D01*
X13452380Y42889286D01*
X13500000Y42817858D01*
X13595238Y42746429D01*
X12738095Y44246429D02*
X12738095Y43246429D01*
X12738095Y44103572D02*
X12690476Y44175000D01*
X12595238Y44246429D01*
X12452380Y44246429D01*
X12357142Y44175000D01*
X12309523Y44032143D01*
X12309523Y43246429D01*
X11976190Y44246429D02*
X11595238Y44246429D01*
X11833333Y44746429D02*
X11833333Y43460715D01*
X11785714Y43317858D01*
X11690476Y43246429D01*
X11595238Y43246429D01*
X11261904Y43246429D02*
X11261904Y44746429D01*
X10833333Y43246429D02*
X10833333Y44032143D01*
X10880952Y44175000D01*
X10976190Y44246429D01*
X11119047Y44246429D01*
X11214285Y44175000D01*
X11261904Y44103572D01*
X10404761Y43317858D02*
X10309523Y43246429D01*
X10119047Y43246429D01*
X10023809Y43317858D01*
X9976190Y43460715D01*
X9976190Y43532143D01*
X10023809Y43675000D01*
X10119047Y43746429D01*
X10261904Y43746429D01*
X10357142Y43817858D01*
X10404761Y43960715D01*
X10404761Y44032143D01*
X10357142Y44175000D01*
X10261904Y44246429D01*
X10119047Y44246429D01*
X10023809Y44175000D01*
X26666666Y40796429D02*
X26666666Y42296429D01*
X26285714Y42296429D01*
X26190476Y42225000D01*
X26142857Y42153572D01*
X26095238Y42010715D01*
X26095238Y41796429D01*
X26142857Y41653572D01*
X26190476Y41582143D01*
X26285714Y41510715D01*
X26666666Y41510715D01*
X25523809Y40796429D02*
X25619047Y40867858D01*
X25666666Y40939286D01*
X25714285Y41082143D01*
X25714285Y41510715D01*
X25666666Y41653572D01*
X25619047Y41725000D01*
X25523809Y41796429D01*
X25380952Y41796429D01*
X25285714Y41725000D01*
X25238095Y41653572D01*
X25190476Y41510715D01*
X25190476Y41082143D01*
X25238095Y40939286D01*
X25285714Y40867858D01*
X25380952Y40796429D01*
X25523809Y40796429D01*
X24619047Y40796429D02*
X24714285Y40867858D01*
X24761904Y41010715D01*
X24761904Y42296429D01*
X24238095Y40796429D02*
X24238095Y41796429D01*
X24238095Y42296429D02*
X24285714Y42225000D01*
X24238095Y42153572D01*
X24190476Y42225000D01*
X24238095Y42296429D01*
X24238095Y42153572D01*
X23857142Y41796429D02*
X23619047Y40796429D01*
X23380952Y41796429D01*
X22857142Y40796429D02*
X22952380Y40867858D01*
X23000000Y40939286D01*
X23047619Y41082143D01*
X23047619Y41510715D01*
X23000000Y41653572D01*
X22952380Y41725000D01*
X22857142Y41796429D01*
X22714285Y41796429D01*
X22619047Y41725000D01*
X22571428Y41653572D01*
X22523809Y41510715D01*
X22523809Y41082143D01*
X22571428Y40939286D01*
X22619047Y40867858D01*
X22714285Y40796429D01*
X22857142Y40796429D01*
X22095238Y40796429D02*
X22095238Y42296429D01*
X22000000Y41367858D02*
X21714285Y40796429D01*
X21714285Y41796429D02*
X22095238Y41225000D01*
X21333333Y40867858D02*
X21238095Y40796429D01*
X21047619Y40796429D01*
X20952380Y40867858D01*
X20904761Y41010715D01*
X20904761Y41082143D01*
X20952380Y41225000D01*
X21047619Y41296429D01*
X21190476Y41296429D01*
X21285714Y41367858D01*
X21333333Y41510715D01*
X21333333Y41582143D01*
X21285714Y41725000D01*
X21190476Y41796429D01*
X21047619Y41796429D01*
X20952380Y41725000D01*
X19714285Y40796429D02*
X19714285Y42296429D01*
X19380952Y41225000D01*
X19047619Y42296429D01*
X19047619Y40796429D01*
X18571428Y40796429D02*
X18571428Y41796429D01*
X18571428Y42296429D02*
X18619047Y42225000D01*
X18571428Y42153572D01*
X18523809Y42225000D01*
X18571428Y42296429D01*
X18571428Y42153572D01*
X18190476Y40796429D02*
X17666666Y41796429D01*
X18190476Y41796429D02*
X17666666Y40796429D01*
X16904761Y40867858D02*
X17000000Y40796429D01*
X17190476Y40796429D01*
X17285714Y40867858D01*
X17333333Y41010715D01*
X17333333Y41582143D01*
X17285714Y41725000D01*
X17190476Y41796429D01*
X17000000Y41796429D01*
X16904761Y41725000D01*
X16857142Y41582143D01*
X16857142Y41439286D01*
X17333333Y41296429D01*
X16428571Y40796429D02*
X16428571Y41796429D01*
X16428571Y41510715D02*
X16380952Y41653572D01*
X16333333Y41725000D01*
X16238095Y41796429D01*
X16142857Y41796429D01*
X15142857Y41796429D02*
X14904761Y40796429D01*
X14666666Y41796429D01*
X13761904Y40796429D02*
X14333333Y40796429D01*
X14047619Y40796429D02*
X14047619Y42296429D01*
X14142857Y42082143D01*
X14238095Y41939286D01*
X14333333Y41867858D01*
X13333333Y40939286D02*
X13285714Y40867858D01*
X13333333Y40796429D01*
X13380952Y40867858D01*
X13333333Y40939286D01*
X13333333Y40796429D01*
X12666666Y42296429D02*
X12571428Y42296429D01*
X12476190Y42225000D01*
X12428571Y42153572D01*
X12380952Y42010715D01*
X12333333Y41725000D01*
X12333333Y41367858D01*
X12380952Y41082143D01*
X12428571Y40939286D01*
X12476190Y40867858D01*
X12571428Y40796429D01*
X12666666Y40796429D01*
X12761904Y40867858D01*
X12809523Y40939286D01*
X12857142Y41082143D01*
X12904761Y41367858D01*
X12904761Y41725000D01*
X12857142Y42010715D01*
X12809523Y42153572D01*
X12761904Y42225000D01*
X12666666Y42296429D01*
X9619047Y40796429D02*
X9619047Y42296429D01*
X9380952Y42296429D01*
X9238095Y42225000D01*
X9142857Y42082143D01*
X9095238Y41939286D01*
X9047619Y41653572D01*
X9047619Y41439286D01*
X9095238Y41153572D01*
X9142857Y41010715D01*
X9238095Y40867858D01*
X9380952Y40796429D01*
X9619047Y40796429D01*
X8238095Y40867858D02*
X8333333Y40796429D01*
X8523809Y40796429D01*
X8619047Y40867858D01*
X8666666Y41010715D01*
X8666666Y41582143D01*
X8619047Y41725000D01*
X8523809Y41796429D01*
X8333333Y41796429D01*
X8238095Y41725000D01*
X8190476Y41582143D01*
X8190476Y41439286D01*
X8666666Y41296429D01*
X7333333Y40867858D02*
X7428571Y40796429D01*
X7619047Y40796429D01*
X7714285Y40867858D01*
X7761904Y40939286D01*
X7809523Y41082143D01*
X7809523Y41510715D01*
X7761904Y41653572D01*
X7714285Y41725000D01*
X7619047Y41796429D01*
X7428571Y41796429D01*
X7333333Y41725000D01*
X6904761Y40939286D02*
X6857142Y40867858D01*
X6904761Y40796429D01*
X6952380Y40867858D01*
X6904761Y40939286D01*
X6904761Y40796429D01*
X5714285Y42153572D02*
X5666666Y42225000D01*
X5571428Y42296429D01*
X5333333Y42296429D01*
X5238095Y42225000D01*
X5190476Y42153572D01*
X5142857Y42010715D01*
X5142857Y41867858D01*
X5190476Y41653572D01*
X5761904Y40796429D01*
X5142857Y40796429D01*
X4523809Y42296429D02*
X4428571Y42296429D01*
X4333333Y42225000D01*
X4285714Y42153572D01*
X4238095Y42010715D01*
X4190476Y41725000D01*
X4190476Y41367858D01*
X4238095Y41082143D01*
X4285714Y40939286D01*
X4333333Y40867858D01*
X4428571Y40796429D01*
X4523809Y40796429D01*
X4619047Y40867858D01*
X4666666Y40939286D01*
X4714285Y41082143D01*
X4761904Y41367858D01*
X4761904Y41725000D01*
X4714285Y42010715D01*
X4666666Y42153572D01*
X4619047Y42225000D01*
X4523809Y42296429D01*
X3238095Y40796429D02*
X3809523Y40796429D01*
X3523809Y40796429D02*
X3523809Y42296429D01*
X3619047Y42082143D01*
X3714285Y41939286D01*
X3809523Y41867858D01*
X2380952Y42296429D02*
X2571428Y42296429D01*
X2666666Y42225000D01*
X2714285Y42153572D01*
X2809523Y41939286D01*
X2857142Y41653572D01*
X2857142Y41082143D01*
X2809523Y40939286D01*
X2761904Y40867858D01*
X2666666Y40796429D01*
X2476190Y40796429D01*
X2380952Y40867858D01*
X2333333Y40939286D01*
X2285714Y41082143D01*
X2285714Y41439286D01*
X2333333Y41582143D01*
X2380952Y41653572D01*
X2476190Y41725000D01*
X2666666Y41725000D01*
X2761904Y41653572D01*
X2809523Y41582143D01*
X2857142Y41439286D01*
D10*
X17167000Y104708000D02*
X17167000Y105597000D01*
X17167000Y102803000D02*
X17167000Y103692000D01*
X11833000Y104708000D02*
X11833000Y105597000D01*
X11833000Y102803000D02*
X11833000Y103692000D01*
X16278000Y102803000D02*
X16278000Y105597000D01*
X16532000Y102803000D02*
X16532000Y105597000D01*
X11833000Y102803000D02*
X17167000Y102803000D01*
X17167000Y105597000D02*
X11833000Y105597000D01*
X11833000Y100592000D02*
X11833000Y99703000D01*
X11833000Y102497000D02*
X11833000Y101608000D01*
X17167000Y100592000D02*
X17167000Y99703000D01*
X17167000Y102497000D02*
X17167000Y101608000D01*
X12722000Y102497000D02*
X12722000Y99703000D01*
X12468000Y102497000D02*
X12468000Y99703000D01*
X17167000Y102497000D02*
X11833000Y102497000D01*
X11833000Y99703000D02*
X17167000Y99703000D01*
X3987500Y96946500D02*
X3987500Y89453500D01*
X3987500Y89453500D02*
X812500Y89453500D01*
X812500Y89453500D02*
X812500Y96946500D01*
X812500Y96946500D02*
X3987500Y96946500D01*
X4900000Y78300000D02*
X6400000Y78300000D01*
X4500000Y78300000D02*
X3000000Y78300000D01*
X4500000Y78900000D02*
X4500000Y77700000D01*
X4900000Y78900000D02*
X4900000Y77700000D01*
X8000000Y79200000D02*
X1400000Y79200000D01*
X1400000Y79200000D02*
X1400000Y77400000D01*
X1400000Y77400000D02*
X8000000Y77400000D01*
X8000000Y77400000D02*
X8000000Y79200000D01*
X8100000Y69400000D02*
X8100000Y67900000D01*
X8100000Y69800000D02*
X8100000Y71300000D01*
X8700000Y69800000D02*
X7500000Y69800000D01*
X8700000Y69400000D02*
X7500000Y69400000D01*
X9000000Y66300000D02*
X9000000Y72900000D01*
X9000000Y72900000D02*
X7200000Y72900000D01*
X7200000Y72900000D02*
X7200000Y66300000D01*
X7200000Y66300000D02*
X9000000Y66300000D01*
X4900000Y45900000D02*
X6400000Y45900000D01*
X4500000Y45900000D02*
X3000000Y45900000D01*
X4500000Y46500000D02*
X4500000Y45300000D01*
X4900000Y46500000D02*
X4900000Y45300000D01*
X8000000Y46800000D02*
X1400000Y46800000D01*
X1400000Y46800000D02*
X1400000Y45000000D01*
X1400000Y45000000D02*
X8000000Y45000000D01*
X8000000Y45000000D02*
X8000000Y46800000D01*
X27376500Y85131500D02*
X27376500Y89068500D01*
X28080710Y87100000D02*
G75*
G03X28080710Y87100000I-3180710J0D01*
G01*
X27376500Y78531500D02*
X27376500Y82468500D01*
X28080710Y80500000D02*
G75*
G03X28080710Y80500000I-3180710J0D01*
G01*
X24100000Y91500000D02*
X22600000Y91500000D01*
X24500000Y91500000D02*
X26000000Y91500000D01*
X24500000Y90900000D02*
X24500000Y92100000D01*
X24100000Y90900000D02*
X24100000Y92100000D01*
X21000000Y90600000D02*
X27600000Y90600000D01*
X27600000Y90600000D02*
X27600000Y92400000D01*
X27600000Y92400000D02*
X21000000Y92400000D01*
X21000000Y92400000D02*
X21000000Y90600000D01*
X24600000Y76000000D02*
X23100000Y76000000D01*
X25000000Y76000000D02*
X26500000Y76000000D01*
X25000000Y75400000D02*
X25000000Y76600000D01*
X24600000Y75400000D02*
X24600000Y76600000D01*
X21500000Y75100000D02*
X28100000Y75100000D01*
X28100000Y75100000D02*
X28100000Y76900000D01*
X28100000Y76900000D02*
X21500000Y76900000D01*
X21500000Y76900000D02*
X21500000Y75100000D01*
X21900000Y54400000D02*
X21900000Y55900000D01*
X21900000Y54000000D02*
X21900000Y52500000D01*
X21300000Y54000000D02*
X22500000Y54000000D01*
X21300000Y54400000D02*
X22500000Y54400000D01*
X21000000Y57500000D02*
X21000000Y50900000D01*
X21000000Y50900000D02*
X22800000Y50900000D01*
X22800000Y50900000D02*
X22800000Y57500000D01*
X22800000Y57500000D02*
X21000000Y57500000D01*
X24600000Y69800000D02*
X23100000Y69800000D01*
X25000000Y69800000D02*
X26500000Y69800000D01*
X25000000Y69200000D02*
X25000000Y70400000D01*
X24600000Y69200000D02*
X24600000Y70400000D01*
X21500000Y68900000D02*
X28100000Y68900000D01*
X28100000Y68900000D02*
X28100000Y70700000D01*
X28100000Y70700000D02*
X21500000Y70700000D01*
X21500000Y70700000D02*
X21500000Y68900000D01*
X2200000Y67900000D02*
X2200000Y67100000D01*
X2200000Y73900000D02*
X2200000Y74700000D01*
X800000Y67900000D02*
X3600000Y67900000D01*
X3600000Y67900000D02*
X3600000Y73900000D01*
X3600000Y73900000D02*
X800000Y73900000D01*
X800000Y73900000D02*
X800000Y67900000D01*
X5400000Y67900000D02*
X5400000Y67100000D01*
X5400000Y73900000D02*
X5400000Y74700000D01*
X4000000Y67900000D02*
X6800000Y67900000D01*
X6800000Y67900000D02*
X6800000Y73900000D01*
X6800000Y73900000D02*
X4000000Y73900000D01*
X4000000Y73900000D02*
X4000000Y67900000D01*
X2200000Y56100000D02*
X2200000Y56900000D01*
X2200000Y50100000D02*
X2200000Y49300000D01*
X3600000Y56100000D02*
X800000Y56100000D01*
X800000Y56100000D02*
X800000Y50100000D01*
X800000Y50100000D02*
X3600000Y50100000D01*
X3600000Y50100000D02*
X3600000Y56100000D01*
X8800000Y63500000D02*
X8000000Y63500000D01*
X14800000Y63500000D02*
X15600000Y63500000D01*
X8800000Y64900000D02*
X8800000Y62100000D01*
X8800000Y62100000D02*
X14800000Y62100000D01*
X14800000Y62100000D02*
X14800000Y64900000D01*
X14800000Y64900000D02*
X8800000Y64900000D01*
X14800000Y59800000D02*
X15600000Y59800000D01*
X8800000Y59800000D02*
X8000000Y59800000D01*
X14800000Y58400000D02*
X14800000Y61200000D01*
X14800000Y61200000D02*
X8800000Y61200000D01*
X8800000Y61200000D02*
X8800000Y58400000D01*
X8800000Y58400000D02*
X14800000Y58400000D01*
X24800000Y48500000D02*
X24800000Y47700000D01*
X24800000Y54500000D02*
X24800000Y55300000D01*
X23400000Y48500000D02*
X26200000Y48500000D01*
X26200000Y48500000D02*
X26200000Y54500000D01*
X26200000Y54500000D02*
X23400000Y54500000D01*
X23400000Y54500000D02*
X23400000Y48500000D01*
X5000000Y34400000D02*
X4200000Y34400000D01*
X11000000Y34400000D02*
X11800000Y34400000D01*
X5000000Y35800000D02*
X5000000Y33000000D01*
X5000000Y33000000D02*
X11000000Y33000000D01*
X11000000Y33000000D02*
X11000000Y35800000D01*
X11000000Y35800000D02*
X5000000Y35800000D01*
X23900000Y34400000D02*
X24700000Y34400000D01*
X17900000Y34400000D02*
X17100000Y34400000D01*
X23900000Y33000000D02*
X23900000Y35800000D01*
X23900000Y35800000D02*
X17900000Y35800000D01*
X17900000Y35800000D02*
X17900000Y33000000D01*
X17900000Y33000000D02*
X23900000Y33000000D01*
X7952500Y54370000D02*
X6047500Y54370000D01*
X7952500Y54687500D02*
X6047500Y54687500D01*
X7000000Y50877500D02*
X7000000Y50200000D01*
X7000000Y55322500D02*
X7000000Y56000000D01*
X7952500Y50877500D02*
X7952500Y55322500D01*
X7952500Y55322500D02*
X6047500Y55322500D01*
X6047500Y55322500D02*
X6047500Y50877500D01*
X6047500Y50877500D02*
X7952500Y50877500D01*
X3847500Y51830000D02*
X5752500Y51830000D01*
X3847500Y51512500D02*
X5752500Y51512500D01*
X4800000Y55322500D02*
X4800000Y56000000D01*
X4800000Y50877500D02*
X4800000Y50200000D01*
X3847500Y55322500D02*
X3847500Y50877500D01*
X3847500Y50877500D02*
X5752500Y50877500D01*
X5752500Y50877500D02*
X5752500Y55322500D01*
X5752500Y55322500D02*
X3847500Y55322500D01*
X10470000Y38547500D02*
X10470000Y40452500D01*
X10787500Y38547500D02*
X10787500Y40452500D01*
X6977500Y39500000D02*
X6300000Y39500000D01*
X11422500Y39500000D02*
X12100000Y39500000D01*
X6977500Y38547500D02*
X11422500Y38547500D01*
X11422500Y38547500D02*
X11422500Y40452500D01*
X11422500Y40452500D02*
X6977500Y40452500D01*
X6977500Y40452500D02*
X6977500Y38547500D01*
X7930000Y38252500D02*
X7930000Y36347500D01*
X7612500Y38252500D02*
X7612500Y36347500D01*
X11422500Y37300000D02*
X12100000Y37300000D01*
X6977500Y37300000D02*
X6300000Y37300000D01*
X11422500Y38252500D02*
X6977500Y38252500D01*
X6977500Y38252500D02*
X6977500Y36347500D01*
X6977500Y36347500D02*
X11422500Y36347500D01*
X11422500Y36347500D02*
X11422500Y38252500D01*
X7687500Y96946500D02*
X7687500Y89453500D01*
X7687500Y89453500D02*
X4512500Y89453500D01*
X4512500Y89453500D02*
X4512500Y96946500D01*
X4512500Y96946500D02*
X7687500Y96946500D01*
X19871000Y79628000D02*
X20887000Y80644000D01*
X313000Y79628000D02*
X19871000Y79628000D01*
X20887000Y88772000D02*
X20887000Y80644000D01*
X313000Y88772000D02*
X313000Y79628000D01*
X20887000Y88772000D02*
X313000Y88772000D01*
X18356500Y67708500D02*
X18991500Y68343500D01*
X18991500Y68343500D02*
X28643500Y68343500D01*
X18356500Y63898500D02*
X18356500Y67708500D01*
X18356500Y62501500D02*
X18356500Y58056500D01*
X19055000Y63200000D02*
G75*
G02X18356500Y62501500I-698500J0D01*
G01*
X18356500Y63898500D02*
G75*
G02X19055000Y63200000I0J-698500D01*
G01*
X28643500Y58056500D02*
X28643500Y68343500D01*
X28643500Y58056500D02*
X18356500Y58056500D01*
X24897000Y103037000D02*
X24897000Y101767000D01*
X24897000Y101767000D02*
X24643000Y101767000D01*
X24643000Y101767000D02*
X24643000Y96433000D01*
X24643000Y96433000D02*
X24897000Y96433000D01*
X24897000Y96433000D02*
X24897000Y95163000D01*
X24897000Y95163000D02*
X24008000Y95163000D01*
X24008000Y103037000D02*
X24897000Y103037000D01*
X22103000Y103037000D02*
X22992000Y103037000D01*
X22103000Y103037000D02*
X22103000Y101767000D01*
X22103000Y101767000D02*
X22357000Y101767000D01*
X22357000Y101767000D02*
X22357000Y96433000D01*
X22357000Y96433000D02*
X22103000Y96433000D01*
X22103000Y96433000D02*
X22103000Y95163000D01*
X22103000Y95163000D02*
X22992000Y95163000D01*
X27997000Y103037000D02*
X27997000Y101767000D01*
X27997000Y101767000D02*
X27743000Y101767000D01*
X27743000Y101767000D02*
X27743000Y96433000D01*
X27743000Y96433000D02*
X27997000Y96433000D01*
X27997000Y96433000D02*
X27997000Y95163000D01*
X27997000Y95163000D02*
X27108000Y95163000D01*
X27108000Y103037000D02*
X27997000Y103037000D01*
X25203000Y103037000D02*
X26092000Y103037000D01*
X25203000Y103037000D02*
X25203000Y101767000D01*
X25203000Y101767000D02*
X25457000Y101767000D01*
X25457000Y101767000D02*
X25457000Y96433000D01*
X25457000Y96433000D02*
X25203000Y96433000D01*
X25203000Y96433000D02*
X25203000Y95163000D01*
X25203000Y95163000D02*
X26092000Y95163000D01*
G36*
X15932782Y4973353D02*
X15934600Y4803799D01*
X15943211Y4500886D01*
X15958139Y4280944D01*
X15981599Y4125429D01*
X16015808Y4015795D01*
X16032933Y3980751D01*
X16174904Y3819142D01*
X16383932Y3702781D01*
X16632090Y3640846D01*
X16891451Y3642517D01*
X16996094Y3664144D01*
X17172284Y3737983D01*
X17286256Y3837637D01*
X17321279Y3946498D01*
X17313590Y3979254D01*
X17267970Y4043717D01*
X17186493Y4056413D01*
X17048178Y4017482D01*
X16958147Y3981633D01*
X16797118Y3931146D01*
X16653616Y3936654D01*
X16576969Y3956466D01*
X16407877Y4025683D01*
X16308097Y4124488D01*
X16254312Y4251671D01*
X16238476Y4325415D01*
X16271282Y4341343D01*
X16375603Y4310023D01*
X16378453Y4309030D01*
X16590241Y4270459D01*
X16821540Y4282511D01*
X17032546Y4339427D01*
X17171723Y4423803D01*
X17282417Y4539707D01*
X17352569Y4655741D01*
X17394327Y4803226D01*
X17419837Y5013484D01*
X17424878Y5076596D01*
X17428625Y5347405D01*
X17393144Y5531332D01*
X17319300Y5625303D01*
X17267000Y5637600D01*
X17178116Y5592567D01*
X17120088Y5455903D01*
X17092155Y5225264D01*
X17089200Y5090014D01*
X17082733Y4884762D01*
X17059621Y4754443D01*
X17014300Y4672992D01*
X16996300Y4654874D01*
X16859085Y4589000D01*
X16677161Y4572327D01*
X16494219Y4603978D01*
X16371531Y4667424D01*
X16310566Y4728921D01*
X16272227Y4809807D01*
X16249543Y4935897D01*
X16235542Y5133011D01*
X16233355Y5179148D01*
X16218168Y5401418D01*
X16194684Y5539166D01*
X16159210Y5609364D01*
X16136506Y5624178D01*
X16056496Y5632381D01*
X15998366Y5580530D01*
X15959868Y5459494D01*
X15938756Y5260145D01*
X15932782Y4973353D01*
X15932782Y4973353D01*
X15932782Y4973353D01*
G37*
X15932782Y4973353D02*
X15934600Y4803799D01*
X15943211Y4500886D01*
X15958139Y4280944D01*
X15981599Y4125429D01*
X16015808Y4015795D01*
X16032933Y3980751D01*
X16174904Y3819142D01*
X16383932Y3702781D01*
X16632090Y3640846D01*
X16891451Y3642517D01*
X16996094Y3664144D01*
X17172284Y3737983D01*
X17286256Y3837637D01*
X17321279Y3946498D01*
X17313590Y3979254D01*
X17267970Y4043717D01*
X17186493Y4056413D01*
X17048178Y4017482D01*
X16958147Y3981633D01*
X16797118Y3931146D01*
X16653616Y3936654D01*
X16576969Y3956466D01*
X16407877Y4025683D01*
X16308097Y4124488D01*
X16254312Y4251671D01*
X16238476Y4325415D01*
X16271282Y4341343D01*
X16375603Y4310023D01*
X16378453Y4309030D01*
X16590241Y4270459D01*
X16821540Y4282511D01*
X17032546Y4339427D01*
X17171723Y4423803D01*
X17282417Y4539707D01*
X17352569Y4655741D01*
X17394327Y4803226D01*
X17419837Y5013484D01*
X17424878Y5076596D01*
X17428625Y5347405D01*
X17393144Y5531332D01*
X17319300Y5625303D01*
X17267000Y5637600D01*
X17178116Y5592567D01*
X17120088Y5455903D01*
X17092155Y5225264D01*
X17089200Y5090014D01*
X17082733Y4884762D01*
X17059621Y4754443D01*
X17014300Y4672992D01*
X16996300Y4654874D01*
X16859085Y4589000D01*
X16677161Y4572327D01*
X16494219Y4603978D01*
X16371531Y4667424D01*
X16310566Y4728921D01*
X16272227Y4809807D01*
X16249543Y4935897D01*
X16235542Y5133011D01*
X16233355Y5179148D01*
X16218168Y5401418D01*
X16194684Y5539166D01*
X16159210Y5609364D01*
X16136506Y5624178D01*
X16056496Y5632381D01*
X15998366Y5580530D01*
X15959868Y5459494D01*
X15938756Y5260145D01*
X15932782Y4973353D01*
X15932782Y4973353D01*
G36*
X17496540Y4721686D02*
X17537640Y4544341D01*
X17658457Y4395084D01*
X17851750Y4292140D01*
X18097172Y4240515D01*
X18374375Y4245211D01*
X18584481Y4286904D01*
X18785880Y4362646D01*
X18905138Y4451306D01*
X18935285Y4545506D01*
X18894974Y4615599D01*
X18812723Y4663248D01*
X18705334Y4638054D01*
X18697897Y4634715D01*
X18518060Y4575597D01*
X18319601Y4545455D01*
X18126919Y4543133D01*
X17964411Y4567474D01*
X17856475Y4617321D01*
X17825800Y4676055D01*
X17852671Y4715732D01*
X17943205Y4744497D01*
X18112285Y4765903D01*
X18243571Y4775790D01*
X18552557Y4815048D01*
X18770889Y4888529D01*
X18904643Y4999364D01*
X18959232Y5144812D01*
X18937602Y5332632D01*
X18828602Y5479863D01*
X18640204Y5581024D01*
X18380380Y5630635D01*
X18246532Y5634733D01*
X18007706Y5614999D01*
X17805942Y5566483D01*
X17654542Y5497112D01*
X17566812Y5414808D01*
X17556054Y5327497D01*
X17613823Y5257856D01*
X17693803Y5217173D01*
X17787186Y5226552D01*
X17878892Y5260832D01*
X18056827Y5311308D01*
X18254357Y5331747D01*
X18438197Y5322516D01*
X18575063Y5283980D01*
X18616414Y5252729D01*
X18649825Y5175900D01*
X18598446Y5122798D01*
X18457349Y5091415D01*
X18221608Y5079741D01*
X18191578Y5079578D01*
X17899052Y5054358D01*
X17681961Y4983240D01*
X17545920Y4870818D01*
X17496540Y4721686D01*
X17496540Y4721686D01*
X17496540Y4721686D01*
G37*
X17496540Y4721686D02*
X17537640Y4544341D01*
X17658457Y4395084D01*
X17851750Y4292140D01*
X18097172Y4240515D01*
X18374375Y4245211D01*
X18584481Y4286904D01*
X18785880Y4362646D01*
X18905138Y4451306D01*
X18935285Y4545506D01*
X18894974Y4615599D01*
X18812723Y4663248D01*
X18705334Y4638054D01*
X18697897Y4634715D01*
X18518060Y4575597D01*
X18319601Y4545455D01*
X18126919Y4543133D01*
X17964411Y4567474D01*
X17856475Y4617321D01*
X17825800Y4676055D01*
X17852671Y4715732D01*
X17943205Y4744497D01*
X18112285Y4765903D01*
X18243571Y4775790D01*
X18552557Y4815048D01*
X18770889Y4888529D01*
X18904643Y4999364D01*
X18959232Y5144812D01*
X18937602Y5332632D01*
X18828602Y5479863D01*
X18640204Y5581024D01*
X18380380Y5630635D01*
X18246532Y5634733D01*
X18007706Y5614999D01*
X17805942Y5566483D01*
X17654542Y5497112D01*
X17566812Y5414808D01*
X17556054Y5327497D01*
X17613823Y5257856D01*
X17693803Y5217173D01*
X17787186Y5226552D01*
X17878892Y5260832D01*
X18056827Y5311308D01*
X18254357Y5331747D01*
X18438197Y5322516D01*
X18575063Y5283980D01*
X18616414Y5252729D01*
X18649825Y5175900D01*
X18598446Y5122798D01*
X18457349Y5091415D01*
X18221608Y5079741D01*
X18191578Y5079578D01*
X17899052Y5054358D01*
X17681961Y4983240D01*
X17545920Y4870818D01*
X17496540Y4721686D01*
X17496540Y4721686D01*
G36*
X10232140Y4721686D02*
X10273240Y4544341D01*
X10394428Y4394735D01*
X10589215Y4291782D01*
X10838263Y4241083D01*
X11122234Y4248237D01*
X11232136Y4266639D01*
X11462480Y4329851D01*
X11599864Y4407461D01*
X11652492Y4504468D01*
X11653600Y4523382D01*
X11626824Y4617222D01*
X11539751Y4652602D01*
X11382266Y4631363D01*
X11258840Y4595192D01*
X11070155Y4553482D01*
X10880537Y4543979D01*
X10715544Y4563795D01*
X10600735Y4610042D01*
X10561400Y4674007D01*
X10586172Y4714561D01*
X10671107Y4743481D01*
X10832131Y4764699D01*
X10972146Y4775384D01*
X11271067Y4810924D01*
X11482354Y4875863D01*
X11617056Y4975442D01*
X11686005Y5114023D01*
X11682646Y5290626D01*
X11592821Y5446693D01*
X11431607Y5558300D01*
X11397886Y5571233D01*
X11189213Y5620100D01*
X10970340Y5633485D01*
X10757494Y5616269D01*
X10566902Y5573335D01*
X10414790Y5509563D01*
X10317386Y5429837D01*
X10290916Y5339037D01*
X10340046Y5252983D01*
X10404980Y5202304D01*
X10474366Y5204372D01*
X10577962Y5252030D01*
X10746968Y5307418D01*
X10949975Y5329884D01*
X11147221Y5319134D01*
X11298943Y5274875D01*
X11326391Y5257566D01*
X11385170Y5184056D01*
X11345476Y5129525D01*
X11208766Y5094623D01*
X10976500Y5080001D01*
X10927178Y5079578D01*
X10634652Y5054358D01*
X10417561Y4983240D01*
X10281520Y4870818D01*
X10232140Y4721686D01*
X10232140Y4721686D01*
X10232140Y4721686D01*
G37*
X10232140Y4721686D02*
X10273240Y4544341D01*
X10394428Y4394735D01*
X10589215Y4291782D01*
X10838263Y4241083D01*
X11122234Y4248237D01*
X11232136Y4266639D01*
X11462480Y4329851D01*
X11599864Y4407461D01*
X11652492Y4504468D01*
X11653600Y4523382D01*
X11626824Y4617222D01*
X11539751Y4652602D01*
X11382266Y4631363D01*
X11258840Y4595192D01*
X11070155Y4553482D01*
X10880537Y4543979D01*
X10715544Y4563795D01*
X10600735Y4610042D01*
X10561400Y4674007D01*
X10586172Y4714561D01*
X10671107Y4743481D01*
X10832131Y4764699D01*
X10972146Y4775384D01*
X11271067Y4810924D01*
X11482354Y4875863D01*
X11617056Y4975442D01*
X11686005Y5114023D01*
X11682646Y5290626D01*
X11592821Y5446693D01*
X11431607Y5558300D01*
X11397886Y5571233D01*
X11189213Y5620100D01*
X10970340Y5633485D01*
X10757494Y5616269D01*
X10566902Y5573335D01*
X10414790Y5509563D01*
X10317386Y5429837D01*
X10290916Y5339037D01*
X10340046Y5252983D01*
X10404980Y5202304D01*
X10474366Y5204372D01*
X10577962Y5252030D01*
X10746968Y5307418D01*
X10949975Y5329884D01*
X11147221Y5319134D01*
X11298943Y5274875D01*
X11326391Y5257566D01*
X11385170Y5184056D01*
X11345476Y5129525D01*
X11208766Y5094623D01*
X10976500Y5080001D01*
X10927178Y5079578D01*
X10634652Y5054358D01*
X10417561Y4983240D01*
X10281520Y4870818D01*
X10232140Y4721686D01*
X10232140Y4721686D01*
G36*
X14296741Y4582829D02*
X14315202Y4400841D01*
X14365652Y4300598D01*
X14450219Y4274102D01*
X14462096Y4275403D01*
X14517757Y4291586D01*
X14553735Y4334773D01*
X14576644Y4425801D01*
X14593101Y4585511D01*
X14602230Y4716794D01*
X14632384Y4983589D01*
X14688907Y5164242D01*
X14782192Y5272947D01*
X14922630Y5323897D01*
X15053249Y5332800D01*
X15239952Y5307450D01*
X15364760Y5223669D01*
X15436223Y5069859D01*
X15462890Y4834426D01*
X15463600Y4776176D01*
X15468740Y4540709D01*
X15488272Y4389331D01*
X15528367Y4304864D01*
X15595193Y4270131D01*
X15646836Y4266000D01*
X15768400Y4266000D01*
X15768400Y4927995D01*
X15766460Y5207121D01*
X15759486Y5400277D01*
X15745746Y5523037D01*
X15723510Y5590976D01*
X15691554Y5619478D01*
X15590461Y5615543D01*
X15542401Y5588959D01*
X15448288Y5555478D01*
X15368587Y5583275D01*
X15198584Y5630462D01*
X14986349Y5631260D01*
X14778449Y5588658D01*
X14666261Y5538236D01*
X14494408Y5401124D01*
X14384204Y5226064D01*
X14323085Y4989069D01*
X14308146Y4854559D01*
X14296741Y4582829D01*
X14296741Y4582829D01*
X14296741Y4582829D01*
G37*
X14296741Y4582829D02*
X14315202Y4400841D01*
X14365652Y4300598D01*
X14450219Y4274102D01*
X14462096Y4275403D01*
X14517757Y4291586D01*
X14553735Y4334773D01*
X14576644Y4425801D01*
X14593101Y4585511D01*
X14602230Y4716794D01*
X14632384Y4983589D01*
X14688907Y5164242D01*
X14782192Y5272947D01*
X14922630Y5323897D01*
X15053249Y5332800D01*
X15239952Y5307450D01*
X15364760Y5223669D01*
X15436223Y5069859D01*
X15462890Y4834426D01*
X15463600Y4776176D01*
X15468740Y4540709D01*
X15488272Y4389331D01*
X15528367Y4304864D01*
X15595193Y4270131D01*
X15646836Y4266000D01*
X15768400Y4266000D01*
X15768400Y4927995D01*
X15766460Y5207121D01*
X15759486Y5400277D01*
X15745746Y5523037D01*
X15723510Y5590976D01*
X15691554Y5619478D01*
X15590461Y5615543D01*
X15542401Y5588959D01*
X15448288Y5555478D01*
X15368587Y5583275D01*
X15198584Y5630462D01*
X14986349Y5631260D01*
X14778449Y5588658D01*
X14666261Y5538236D01*
X14494408Y5401124D01*
X14384204Y5226064D01*
X14323085Y4989069D01*
X14308146Y4854559D01*
X14296741Y4582829D01*
X14296741Y4582829D01*
G36*
X13355988Y4443561D02*
X13359959Y4348639D01*
X13431953Y4287297D01*
X13562098Y4265348D01*
X13715295Y4281853D01*
X13856444Y4335874D01*
X13895873Y4362960D01*
X13956975Y4424791D01*
X13996325Y4507014D01*
X14021014Y4635044D01*
X14038136Y4834296D01*
X14041200Y4883660D01*
X14056865Y5094122D01*
X14076019Y5220868D01*
X14103345Y5281779D01*
X14143529Y5294731D01*
X14148724Y5294030D01*
X14252216Y5319834D01*
X14317582Y5406483D01*
X14317182Y5501191D01*
X14246765Y5572212D01*
X14176605Y5596530D01*
X14113504Y5618513D01*
X14075582Y5678196D01*
X14052509Y5799999D01*
X14041200Y5916554D01*
X14020370Y6093331D01*
X13989496Y6191440D01*
X13939986Y6233802D01*
X13920288Y6239052D01*
X13826146Y6228072D01*
X13768005Y6144823D01*
X13740790Y5978718D01*
X13737178Y5857034D01*
X13731716Y5700704D01*
X13709145Y5618915D01*
X13658396Y5584790D01*
X13622100Y5577634D01*
X13524727Y5529873D01*
X13486499Y5446874D01*
X13511553Y5365559D01*
X13593682Y5324029D01*
X13655190Y5307882D01*
X13690364Y5265873D01*
X13706499Y5174865D01*
X13710884Y5011720D01*
X13711000Y4951800D01*
X13709140Y4765770D01*
X13697902Y4658169D01*
X13668802Y4605831D01*
X13613357Y4585589D01*
X13575018Y4580485D01*
X13430559Y4533158D01*
X13355988Y4443561D01*
X13355988Y4443561D01*
X13355988Y4443561D01*
G37*
X13355988Y4443561D02*
X13359959Y4348639D01*
X13431953Y4287297D01*
X13562098Y4265348D01*
X13715295Y4281853D01*
X13856444Y4335874D01*
X13895873Y4362960D01*
X13956975Y4424791D01*
X13996325Y4507014D01*
X14021014Y4635044D01*
X14038136Y4834296D01*
X14041200Y4883660D01*
X14056865Y5094122D01*
X14076019Y5220868D01*
X14103345Y5281779D01*
X14143529Y5294731D01*
X14148724Y5294030D01*
X14252216Y5319834D01*
X14317582Y5406483D01*
X14317182Y5501191D01*
X14246765Y5572212D01*
X14176605Y5596530D01*
X14113504Y5618513D01*
X14075582Y5678196D01*
X14052509Y5799999D01*
X14041200Y5916554D01*
X14020370Y6093331D01*
X13989496Y6191440D01*
X13939986Y6233802D01*
X13920288Y6239052D01*
X13826146Y6228072D01*
X13768005Y6144823D01*
X13740790Y5978718D01*
X13737178Y5857034D01*
X13731716Y5700704D01*
X13709145Y5618915D01*
X13658396Y5584790D01*
X13622100Y5577634D01*
X13524727Y5529873D01*
X13486499Y5446874D01*
X13511553Y5365559D01*
X13593682Y5324029D01*
X13655190Y5307882D01*
X13690364Y5265873D01*
X13706499Y5174865D01*
X13710884Y5011720D01*
X13711000Y4951800D01*
X13709140Y4765770D01*
X13697902Y4658169D01*
X13668802Y4605831D01*
X13613357Y4585589D01*
X13575018Y4580485D01*
X13430559Y4533158D01*
X13355988Y4443561D01*
X13355988Y4443561D01*
G36*
X11776506Y4563459D02*
X11806134Y4386294D01*
X11870940Y4290098D01*
X11954263Y4266000D01*
X12026666Y4292366D01*
X12074320Y4380015D01*
X12100885Y4541779D01*
X12110024Y4790487D01*
X12110107Y4812100D01*
X12130264Y5055294D01*
X12195531Y5215272D01*
X12314992Y5303815D01*
X12497730Y5332706D01*
X12511573Y5332800D01*
X12694425Y5314480D01*
X12821569Y5249877D01*
X12903819Y5124530D01*
X12951988Y4923976D01*
X12972171Y4716794D01*
X12988120Y4507570D01*
X13006882Y4379180D01*
X13034821Y4310920D01*
X13078301Y4282086D01*
X13107635Y4276015D01*
X13211068Y4297937D01*
X13247335Y4343669D01*
X13258137Y4420870D01*
X13267372Y4580442D01*
X13274363Y4803160D01*
X13278437Y5069798D01*
X13279200Y5251046D01*
X13275747Y5610880D01*
X13263875Y5879356D01*
X13241315Y6066529D01*
X13205798Y6182453D01*
X13155056Y6237185D01*
X13086819Y6240779D01*
X13057947Y6231649D01*
X13010910Y6191153D01*
X12984900Y6100554D01*
X12974983Y5938040D01*
X12974400Y5862360D01*
X12971736Y5683521D01*
X12959925Y5587075D01*
X12933244Y5553874D01*
X12885968Y5564767D01*
X12885500Y5564976D01*
X12686005Y5615911D01*
X12453091Y5620971D01*
X12238402Y5581168D01*
X12165212Y5550858D01*
X11991266Y5435816D01*
X11877439Y5292579D01*
X11811044Y5097421D01*
X11779570Y4829612D01*
X11776506Y4563459D01*
X11776506Y4563459D01*
X11776506Y4563459D01*
G37*
X11776506Y4563459D02*
X11806134Y4386294D01*
X11870940Y4290098D01*
X11954263Y4266000D01*
X12026666Y4292366D01*
X12074320Y4380015D01*
X12100885Y4541779D01*
X12110024Y4790487D01*
X12110107Y4812100D01*
X12130264Y5055294D01*
X12195531Y5215272D01*
X12314992Y5303815D01*
X12497730Y5332706D01*
X12511573Y5332800D01*
X12694425Y5314480D01*
X12821569Y5249877D01*
X12903819Y5124530D01*
X12951988Y4923976D01*
X12972171Y4716794D01*
X12988120Y4507570D01*
X13006882Y4379180D01*
X13034821Y4310920D01*
X13078301Y4282086D01*
X13107635Y4276015D01*
X13211068Y4297937D01*
X13247335Y4343669D01*
X13258137Y4420870D01*
X13267372Y4580442D01*
X13274363Y4803160D01*
X13278437Y5069798D01*
X13279200Y5251046D01*
X13275747Y5610880D01*
X13263875Y5879356D01*
X13241315Y6066529D01*
X13205798Y6182453D01*
X13155056Y6237185D01*
X13086819Y6240779D01*
X13057947Y6231649D01*
X13010910Y6191153D01*
X12984900Y6100554D01*
X12974983Y5938040D01*
X12974400Y5862360D01*
X12971736Y5683521D01*
X12959925Y5587075D01*
X12933244Y5553874D01*
X12885968Y5564767D01*
X12885500Y5564976D01*
X12686005Y5615911D01*
X12453091Y5620971D01*
X12238402Y5581168D01*
X12165212Y5550858D01*
X11991266Y5435816D01*
X11877439Y5292579D01*
X11811044Y5097421D01*
X11779570Y4829612D01*
X11776506Y4563459D01*
X11776506Y4563459D01*
G36*
X16450361Y7620121D02*
X16453241Y7470767D01*
X16514353Y7322795D01*
X16630528Y7220890D01*
X16751723Y7179969D01*
X16751723Y7492447D01*
X16754502Y7593005D01*
X16833214Y7668017D01*
X16964496Y7713455D01*
X17124986Y7725292D01*
X17291322Y7699501D01*
X17440140Y7632056D01*
X17463350Y7615113D01*
X17554771Y7530422D01*
X17596884Y7466207D01*
X17597200Y7462713D01*
X17550415Y7440874D01*
X17426050Y7424411D01*
X17248092Y7416093D01*
X17189206Y7415600D01*
X16973104Y7420074D01*
X16839711Y7435672D01*
X16770442Y7465659D01*
X16751723Y7492447D01*
X16751723Y7179969D01*
X16815135Y7158558D01*
X17081541Y7129303D01*
X17161883Y7126411D01*
X17397625Y7113083D01*
X17536650Y7085862D01*
X17583201Y7042248D01*
X17541521Y6979742D01*
X17483399Y6936977D01*
X17241266Y6834621D01*
X16979578Y6831933D01*
X16810056Y6879403D01*
X16634043Y6932506D01*
X16529442Y6925031D01*
X16484007Y6854051D01*
X16479600Y6800410D01*
X16525865Y6705726D01*
X16649198Y6631024D01*
X16826408Y6579836D01*
X17034304Y6555696D01*
X17249696Y6562134D01*
X17449391Y6602684D01*
X17540229Y6638864D01*
X17726381Y6781435D01*
X17846118Y6977481D01*
X17899182Y7203569D01*
X17885318Y7436267D01*
X17804268Y7652141D01*
X17655776Y7827759D01*
X17553980Y7894281D01*
X17316427Y7980675D01*
X17077291Y8005372D01*
X16853844Y7975020D01*
X16663359Y7896264D01*
X16523107Y7775749D01*
X16450361Y7620121D01*
X16450361Y7620121D01*
X16450361Y7620121D01*
G37*
X16450361Y7620121D02*
X16453241Y7470767D01*
X16514353Y7322795D01*
X16630528Y7220890D01*
X16751723Y7179969D01*
X16751723Y7492447D01*
X16754502Y7593005D01*
X16833214Y7668017D01*
X16964496Y7713455D01*
X17124986Y7725292D01*
X17291322Y7699501D01*
X17440140Y7632056D01*
X17463350Y7615113D01*
X17554771Y7530422D01*
X17596884Y7466207D01*
X17597200Y7462713D01*
X17550415Y7440874D01*
X17426050Y7424411D01*
X17248092Y7416093D01*
X17189206Y7415600D01*
X16973104Y7420074D01*
X16839711Y7435672D01*
X16770442Y7465659D01*
X16751723Y7492447D01*
X16751723Y7179969D01*
X16815135Y7158558D01*
X17081541Y7129303D01*
X17161883Y7126411D01*
X17397625Y7113083D01*
X17536650Y7085862D01*
X17583201Y7042248D01*
X17541521Y6979742D01*
X17483399Y6936977D01*
X17241266Y6834621D01*
X16979578Y6831933D01*
X16810056Y6879403D01*
X16634043Y6932506D01*
X16529442Y6925031D01*
X16484007Y6854051D01*
X16479600Y6800410D01*
X16525865Y6705726D01*
X16649198Y6631024D01*
X16826408Y6579836D01*
X17034304Y6555696D01*
X17249696Y6562134D01*
X17449391Y6602684D01*
X17540229Y6638864D01*
X17726381Y6781435D01*
X17846118Y6977481D01*
X17899182Y7203569D01*
X17885318Y7436267D01*
X17804268Y7652141D01*
X17655776Y7827759D01*
X17553980Y7894281D01*
X17316427Y7980675D01*
X17077291Y8005372D01*
X16853844Y7975020D01*
X16663359Y7896264D01*
X16523107Y7775749D01*
X16450361Y7620121D01*
X16450361Y7620121D01*
G36*
X14864635Y7734090D02*
X14880991Y7674541D01*
X14914581Y7638049D01*
X14978579Y7589333D01*
X15049275Y7593125D01*
X15149962Y7639630D01*
X15341789Y7701601D01*
X15551050Y7711565D01*
X15748787Y7674693D01*
X15906038Y7596154D01*
X15990844Y7489525D01*
X16007835Y7396590D01*
X16019566Y7239898D01*
X16023094Y7093946D01*
X16028366Y6906253D01*
X16041282Y6745216D01*
X16054419Y6666300D01*
X16118066Y6577337D01*
X16217171Y6550528D01*
X16293334Y6585867D01*
X16305897Y6646633D01*
X16316351Y6789016D01*
X16323737Y6993040D01*
X16327096Y7238728D01*
X16327200Y7291632D01*
X16325768Y7568090D01*
X16320104Y7759488D01*
X16308158Y7882342D01*
X16287881Y7953167D01*
X16257223Y7988481D01*
X16239641Y7997130D01*
X16136573Y7989033D01*
X16091404Y7947750D01*
X16014081Y7892734D01*
X15937664Y7913686D01*
X15725458Y7984266D01*
X15482195Y8003054D01*
X15240997Y7973345D01*
X15034984Y7898434D01*
X14921714Y7812623D01*
X14864635Y7734090D01*
X14864635Y7734090D01*
X14864635Y7734090D01*
G37*
X14864635Y7734090D02*
X14880991Y7674541D01*
X14914581Y7638049D01*
X14978579Y7589333D01*
X15049275Y7593125D01*
X15149962Y7639630D01*
X15341789Y7701601D01*
X15551050Y7711565D01*
X15748787Y7674693D01*
X15906038Y7596154D01*
X15990844Y7489525D01*
X16007835Y7396590D01*
X16019566Y7239898D01*
X16023094Y7093946D01*
X16028366Y6906253D01*
X16041282Y6745216D01*
X16054419Y6666300D01*
X16118066Y6577337D01*
X16217171Y6550528D01*
X16293334Y6585867D01*
X16305897Y6646633D01*
X16316351Y6789016D01*
X16323737Y6993040D01*
X16327096Y7238728D01*
X16327200Y7291632D01*
X16325768Y7568090D01*
X16320104Y7759488D01*
X16308158Y7882342D01*
X16287881Y7953167D01*
X16257223Y7988481D01*
X16239641Y7997130D01*
X16136573Y7989033D01*
X16091404Y7947750D01*
X16014081Y7892734D01*
X15937664Y7913686D01*
X15725458Y7984266D01*
X15482195Y8003054D01*
X15240997Y7973345D01*
X15034984Y7898434D01*
X14921714Y7812623D01*
X14864635Y7734090D01*
X14864635Y7734090D01*
G36*
X14505181Y7689917D02*
X14506150Y7469225D01*
X14509706Y7269930D01*
X14516145Y6992636D01*
X14524076Y6800726D01*
X14536286Y6677992D01*
X14555565Y6608228D01*
X14584699Y6575225D01*
X14626478Y6562776D01*
X14631479Y6562035D01*
X14727471Y6582538D01*
X14770485Y6663635D01*
X14783672Y6762255D01*
X14794265Y6935003D01*
X14800919Y7154418D01*
X14802507Y7316991D01*
X14795618Y7618682D01*
X14772187Y7828400D01*
X14729427Y7954834D01*
X14664550Y8006677D01*
X14584566Y7996595D01*
X14548849Y7973509D01*
X14524840Y7925644D01*
X14510848Y7836584D01*
X14505181Y7689917D01*
X14505181Y7689917D01*
X14505181Y7689917D01*
G37*
X14505181Y7689917D02*
X14506150Y7469225D01*
X14509706Y7269930D01*
X14516145Y6992636D01*
X14524076Y6800726D01*
X14536286Y6677992D01*
X14555565Y6608228D01*
X14584699Y6575225D01*
X14626478Y6562776D01*
X14631479Y6562035D01*
X14727471Y6582538D01*
X14770485Y6663635D01*
X14783672Y6762255D01*
X14794265Y6935003D01*
X14800919Y7154418D01*
X14802507Y7316991D01*
X14795618Y7618682D01*
X14772187Y7828400D01*
X14729427Y7954834D01*
X14664550Y8006677D01*
X14584566Y7996595D01*
X14548849Y7973509D01*
X14524840Y7925644D01*
X14510848Y7836584D01*
X14505181Y7689917D01*
X14505181Y7689917D01*
G36*
X12974400Y6800410D02*
X13020534Y6705315D01*
X13142933Y6630166D01*
X13317595Y6578512D01*
X13520518Y6553897D01*
X13727699Y6559870D01*
X13915137Y6599978D01*
X14015800Y6646517D01*
X14209924Y6792469D01*
X14323569Y6953491D01*
X14376555Y7160870D01*
X14382814Y7225888D01*
X14361757Y7501065D01*
X14257893Y7720844D01*
X14076896Y7879760D01*
X13824442Y7972349D01*
X13584000Y7995008D01*
X13344334Y7974044D01*
X13150527Y7915801D01*
X13022699Y7828391D01*
X12982958Y7752718D01*
X12990105Y7638118D01*
X13064159Y7595897D01*
X13197547Y7629327D01*
X13230976Y7645532D01*
X13410858Y7699999D01*
X13622371Y7709569D01*
X13824727Y7676939D01*
X13977139Y7604799D01*
X13988036Y7595541D01*
X14100187Y7435789D01*
X14127170Y7256685D01*
X14075667Y7082314D01*
X13952356Y6936762D01*
X13780975Y6848933D01*
X13634047Y6815590D01*
X13504587Y6821186D01*
X13340575Y6868659D01*
X13323137Y6874804D01*
X13141095Y6928234D01*
X13032368Y6927636D01*
X12982350Y6869895D01*
X12974400Y6800410D01*
X12974400Y6800410D01*
X12974400Y6800410D01*
G37*
X12974400Y6800410D02*
X13020534Y6705315D01*
X13142933Y6630166D01*
X13317595Y6578512D01*
X13520518Y6553897D01*
X13727699Y6559870D01*
X13915137Y6599978D01*
X14015800Y6646517D01*
X14209924Y6792469D01*
X14323569Y6953491D01*
X14376555Y7160870D01*
X14382814Y7225888D01*
X14361757Y7501065D01*
X14257893Y7720844D01*
X14076896Y7879760D01*
X13824442Y7972349D01*
X13584000Y7995008D01*
X13344334Y7974044D01*
X13150527Y7915801D01*
X13022699Y7828391D01*
X12982958Y7752718D01*
X12990105Y7638118D01*
X13064159Y7595897D01*
X13197547Y7629327D01*
X13230976Y7645532D01*
X13410858Y7699999D01*
X13622371Y7709569D01*
X13824727Y7676939D01*
X13977139Y7604799D01*
X13988036Y7595541D01*
X14100187Y7435789D01*
X14127170Y7256685D01*
X14075667Y7082314D01*
X13952356Y6936762D01*
X13780975Y6848933D01*
X13634047Y6815590D01*
X13504587Y6821186D01*
X13340575Y6868659D01*
X13323137Y6874804D01*
X13141095Y6928234D01*
X13032368Y6927636D01*
X12982350Y6869895D01*
X12974400Y6800410D01*
X12974400Y6800410D01*
G36*
X11290176Y7370202D02*
X11291600Y7135073D01*
X11301780Y6914329D01*
X11320682Y6731090D01*
X11348271Y6608474D01*
X11374847Y6570123D01*
X11474647Y6574666D01*
X11528752Y6604586D01*
X11579337Y6626790D01*
X11579337Y7326940D01*
X11636488Y7497334D01*
X11766610Y7632094D01*
X11806000Y7654665D01*
X12013718Y7717857D01*
X12225321Y7713185D01*
X12418164Y7650071D01*
X12569603Y7537935D01*
X12656989Y7386198D01*
X12669600Y7295388D01*
X12626677Y7087032D01*
X12508853Y6931435D01*
X12332554Y6836828D01*
X12114200Y6811442D01*
X11870216Y6863507D01*
X11835331Y6877284D01*
X11679798Y6989381D01*
X11594121Y7148444D01*
X11579337Y7326940D01*
X11579337Y6626790D01*
X11615589Y6642701D01*
X11730727Y6611615D01*
X11733695Y6610269D01*
X11884602Y6572197D01*
X12089592Y6557273D01*
X12303806Y6565566D01*
X12482382Y6597144D01*
X12517174Y6609072D01*
X12734351Y6747798D01*
X12884350Y6956089D01*
X12927274Y7073643D01*
X12956012Y7331729D01*
X12890566Y7563846D01*
X12764405Y7745778D01*
X12575509Y7890365D01*
X12331308Y7977642D01*
X12063585Y8002631D01*
X11804123Y7960352D01*
X11690501Y7914016D01*
X11583829Y7902957D01*
X11523931Y7944413D01*
X11430497Y7994537D01*
X11372730Y7992207D01*
X11338785Y7930720D01*
X11313734Y7791144D01*
X11297543Y7596599D01*
X11290176Y7370202D01*
X11290176Y7370202D01*
X11290176Y7370202D01*
G37*
X11290176Y7370202D02*
X11291600Y7135073D01*
X11301780Y6914329D01*
X11320682Y6731090D01*
X11348271Y6608474D01*
X11374847Y6570123D01*
X11474647Y6574666D01*
X11528752Y6604586D01*
X11579337Y6626790D01*
X11579337Y7326940D01*
X11636488Y7497334D01*
X11766610Y7632094D01*
X11806000Y7654665D01*
X12013718Y7717857D01*
X12225321Y7713185D01*
X12418164Y7650071D01*
X12569603Y7537935D01*
X12656989Y7386198D01*
X12669600Y7295388D01*
X12626677Y7087032D01*
X12508853Y6931435D01*
X12332554Y6836828D01*
X12114200Y6811442D01*
X11870216Y6863507D01*
X11835331Y6877284D01*
X11679798Y6989381D01*
X11594121Y7148444D01*
X11579337Y7326940D01*
X11579337Y6626790D01*
X11615589Y6642701D01*
X11730727Y6611615D01*
X11733695Y6610269D01*
X11884602Y6572197D01*
X12089592Y6557273D01*
X12303806Y6565566D01*
X12482382Y6597144D01*
X12517174Y6609072D01*
X12734351Y6747798D01*
X12884350Y6956089D01*
X12927274Y7073643D01*
X12956012Y7331729D01*
X12890566Y7563846D01*
X12764405Y7745778D01*
X12575509Y7890365D01*
X12331308Y7977642D01*
X12063585Y8002631D01*
X11804123Y7960352D01*
X11690501Y7914016D01*
X11583829Y7902957D01*
X11523931Y7944413D01*
X11430497Y7994537D01*
X11372730Y7992207D01*
X11338785Y7930720D01*
X11313734Y7791144D01*
X11297543Y7596599D01*
X11290176Y7370202D01*
X11290176Y7370202D01*
G36*
X14502311Y8428262D02*
X14541946Y8335025D01*
X14578755Y8310036D01*
X14657082Y8283474D01*
X14701833Y8300578D01*
X14742240Y8340160D01*
X14792823Y8443711D01*
X14769098Y8543901D01*
X14690929Y8608110D01*
X14581039Y8604842D01*
X14515471Y8534809D01*
X14502311Y8428262D01*
X14502311Y8428262D01*
X14502311Y8428262D01*
G37*
X14502311Y8428262D02*
X14541946Y8335025D01*
X14578755Y8310036D01*
X14657082Y8283474D01*
X14701833Y8300578D01*
X14742240Y8340160D01*
X14792823Y8443711D01*
X14769098Y8543901D01*
X14690929Y8608110D01*
X14581039Y8604842D01*
X14515471Y8534809D01*
X14502311Y8428262D01*
X14502311Y8428262D01*
G36*
X12236490Y13703810D02*
X12246312Y13264971D01*
X12263483Y13154440D01*
X12383955Y12742098D01*
X12582429Y12374293D01*
X12690717Y12248480D01*
X12690717Y13379063D01*
X12743320Y13713784D01*
X12863527Y14037085D01*
X13046452Y14325283D01*
X13152912Y14442078D01*
X13461098Y14673805D01*
X13829563Y14839732D01*
X14239424Y14937747D01*
X14671797Y14965733D01*
X15107799Y14921577D01*
X15528545Y14803165D01*
X15702768Y14727582D01*
X16024732Y14521709D01*
X16276141Y14260538D01*
X16453974Y13958744D01*
X16555208Y13631000D01*
X16576823Y13291981D01*
X16515797Y12956360D01*
X16369109Y12638811D01*
X16181775Y12401161D01*
X15817359Y12088418D01*
X15425249Y11864787D01*
X15015198Y11732435D01*
X14596963Y11693527D01*
X14180299Y11750230D01*
X13827926Y11878422D01*
X13550510Y12037683D01*
X13279137Y12240432D01*
X13040011Y12463762D01*
X12859336Y12684767D01*
X12807871Y12770083D01*
X12710605Y13056602D01*
X12690717Y13379063D01*
X12690717Y12248480D01*
X12848321Y12065368D01*
X13171046Y11829665D01*
X13283116Y11772724D01*
X13421536Y11704883D01*
X13512355Y11652051D01*
X13533200Y11632211D01*
X13492305Y11596068D01*
X13387325Y11531019D01*
X13296669Y11480946D01*
X13110658Y11374286D01*
X12923634Y11255010D01*
X12864869Y11214015D01*
X12741423Y11111917D01*
X12684204Y11016826D01*
X12669633Y10888234D01*
X12669600Y10878537D01*
X12711389Y10683668D01*
X12824678Y10540683D01*
X12991351Y10469100D01*
X13053875Y10464467D01*
X13180732Y10490804D01*
X13346827Y10557534D01*
X13457000Y10616000D01*
X13601698Y10697752D01*
X13712324Y10752826D01*
X13755314Y10767534D01*
X13772585Y10721097D01*
X13781199Y10596180D01*
X13780083Y10415619D01*
X13776204Y10323900D01*
X13751513Y10041882D01*
X13707154Y9826739D01*
X13636039Y9644530D01*
X13633051Y9638478D01*
X13555365Y9421952D01*
X13564953Y9246087D01*
X13664730Y9094923D01*
X13744678Y9027073D01*
X13889808Y8963371D01*
X13889808Y10746794D01*
X13892024Y10947996D01*
X13905785Y11127920D01*
X13931359Y11255981D01*
X13941388Y11279740D01*
X13972350Y11321192D01*
X14024729Y11349094D01*
X14116604Y11366074D01*
X14266054Y11374762D01*
X14491157Y11377786D01*
X14617028Y11378000D01*
X14938455Y11372639D01*
X15159624Y11356509D01*
X15281311Y11329541D01*
X15301041Y11317040D01*
X15327655Y11241588D01*
X15347550Y11094308D01*
X15359812Y10904805D01*
X15363528Y10702686D01*
X15357783Y10517557D01*
X15341665Y10379024D01*
X15331165Y10340755D01*
X15303382Y10306812D01*
X15239915Y10283738D01*
X15124521Y10269600D01*
X14940953Y10262466D01*
X14672966Y10260405D01*
X14655525Y10260400D01*
X14330649Y10265400D01*
X14105039Y10280506D01*
X13976849Y10305877D01*
X13949761Y10321360D01*
X13918944Y10402892D01*
X13898870Y10554898D01*
X13889808Y10746794D01*
X13889808Y8963371D01*
X13911571Y8953818D01*
X14076836Y8976485D01*
X14233254Y9089548D01*
X14373609Y9287483D01*
X14490681Y9564765D01*
X14504525Y9608688D01*
X14570581Y9799141D01*
X14628877Y9918097D01*
X14673460Y9958086D01*
X14698375Y9911639D01*
X14701600Y9855906D01*
X14730286Y9689286D01*
X14804153Y9484545D01*
X14904913Y9281409D01*
X15014282Y9119604D01*
X15063959Y9068709D01*
X15213732Y8969116D01*
X15353458Y8949329D01*
X15498380Y8990755D01*
X15639997Y9095778D01*
X15706447Y9257900D01*
X15695367Y9463353D01*
X15616000Y9676200D01*
X15561324Y9811482D01*
X15529532Y9971963D01*
X15515892Y10187939D01*
X15514400Y10326791D01*
X15514400Y10778099D01*
X15793031Y10620850D01*
X16053706Y10502220D01*
X16264604Y10469788D01*
X16429252Y10523262D01*
X16478308Y10563908D01*
X16596019Y10724887D01*
X16620784Y10883367D01*
X16550729Y11043336D01*
X16383980Y11208783D01*
X16118663Y11383699D01*
X16083896Y11403400D01*
X15916591Y11499914D01*
X15790149Y11578398D01*
X15725474Y11625676D01*
X15721234Y11632000D01*
X15763570Y11665419D01*
X15872580Y11725679D01*
X15986383Y11781512D01*
X16332657Y11997537D01*
X16616281Y12283990D01*
X16831121Y12626868D01*
X16971043Y13012169D01*
X17029914Y13425890D01*
X17001599Y13854029D01*
X16966408Y14018746D01*
X16812277Y14422779D01*
X16574042Y14776435D01*
X16260324Y15070867D01*
X15879743Y15297232D01*
X15623849Y15396391D01*
X15280936Y15477088D01*
X14888000Y15523593D01*
X14485074Y15534094D01*
X14112193Y15506778D01*
X13926900Y15473232D01*
X13465637Y15321185D01*
X13068524Y15101316D01*
X12741308Y14821636D01*
X12489733Y14490152D01*
X12319546Y14114874D01*
X12236490Y13703810D01*
X12236490Y13703810D01*
X12236490Y13703810D01*
G37*
X12236490Y13703810D02*
X12246312Y13264971D01*
X12263483Y13154440D01*
X12383955Y12742098D01*
X12582429Y12374293D01*
X12690717Y12248480D01*
X12690717Y13379063D01*
X12743320Y13713784D01*
X12863527Y14037085D01*
X13046452Y14325283D01*
X13152912Y14442078D01*
X13461098Y14673805D01*
X13829563Y14839732D01*
X14239424Y14937747D01*
X14671797Y14965733D01*
X15107799Y14921577D01*
X15528545Y14803165D01*
X15702768Y14727582D01*
X16024732Y14521709D01*
X16276141Y14260538D01*
X16453974Y13958744D01*
X16555208Y13631000D01*
X16576823Y13291981D01*
X16515797Y12956360D01*
X16369109Y12638811D01*
X16181775Y12401161D01*
X15817359Y12088418D01*
X15425249Y11864787D01*
X15015198Y11732435D01*
X14596963Y11693527D01*
X14180299Y11750230D01*
X13827926Y11878422D01*
X13550510Y12037683D01*
X13279137Y12240432D01*
X13040011Y12463762D01*
X12859336Y12684767D01*
X12807871Y12770083D01*
X12710605Y13056602D01*
X12690717Y13379063D01*
X12690717Y12248480D01*
X12848321Y12065368D01*
X13171046Y11829665D01*
X13283116Y11772724D01*
X13421536Y11704883D01*
X13512355Y11652051D01*
X13533200Y11632211D01*
X13492305Y11596068D01*
X13387325Y11531019D01*
X13296669Y11480946D01*
X13110658Y11374286D01*
X12923634Y11255010D01*
X12864869Y11214015D01*
X12741423Y11111917D01*
X12684204Y11016826D01*
X12669633Y10888234D01*
X12669600Y10878537D01*
X12711389Y10683668D01*
X12824678Y10540683D01*
X12991351Y10469100D01*
X13053875Y10464467D01*
X13180732Y10490804D01*
X13346827Y10557534D01*
X13457000Y10616000D01*
X13601698Y10697752D01*
X13712324Y10752826D01*
X13755314Y10767534D01*
X13772585Y10721097D01*
X13781199Y10596180D01*
X13780083Y10415619D01*
X13776204Y10323900D01*
X13751513Y10041882D01*
X13707154Y9826739D01*
X13636039Y9644530D01*
X13633051Y9638478D01*
X13555365Y9421952D01*
X13564953Y9246087D01*
X13664730Y9094923D01*
X13744678Y9027073D01*
X13889808Y8963371D01*
X13889808Y10746794D01*
X13892024Y10947996D01*
X13905785Y11127920D01*
X13931359Y11255981D01*
X13941388Y11279740D01*
X13972350Y11321192D01*
X14024729Y11349094D01*
X14116604Y11366074D01*
X14266054Y11374762D01*
X14491157Y11377786D01*
X14617028Y11378000D01*
X14938455Y11372639D01*
X15159624Y11356509D01*
X15281311Y11329541D01*
X15301041Y11317040D01*
X15327655Y11241588D01*
X15347550Y11094308D01*
X15359812Y10904805D01*
X15363528Y10702686D01*
X15357783Y10517557D01*
X15341665Y10379024D01*
X15331165Y10340755D01*
X15303382Y10306812D01*
X15239915Y10283738D01*
X15124521Y10269600D01*
X14940953Y10262466D01*
X14672966Y10260405D01*
X14655525Y10260400D01*
X14330649Y10265400D01*
X14105039Y10280506D01*
X13976849Y10305877D01*
X13949761Y10321360D01*
X13918944Y10402892D01*
X13898870Y10554898D01*
X13889808Y10746794D01*
X13889808Y8963371D01*
X13911571Y8953818D01*
X14076836Y8976485D01*
X14233254Y9089548D01*
X14373609Y9287483D01*
X14490681Y9564765D01*
X14504525Y9608688D01*
X14570581Y9799141D01*
X14628877Y9918097D01*
X14673460Y9958086D01*
X14698375Y9911639D01*
X14701600Y9855906D01*
X14730286Y9689286D01*
X14804153Y9484545D01*
X14904913Y9281409D01*
X15014282Y9119604D01*
X15063959Y9068709D01*
X15213732Y8969116D01*
X15353458Y8949329D01*
X15498380Y8990755D01*
X15639997Y9095778D01*
X15706447Y9257900D01*
X15695367Y9463353D01*
X15616000Y9676200D01*
X15561324Y9811482D01*
X15529532Y9971963D01*
X15515892Y10187939D01*
X15514400Y10326791D01*
X15514400Y10778099D01*
X15793031Y10620850D01*
X16053706Y10502220D01*
X16264604Y10469788D01*
X16429252Y10523262D01*
X16478308Y10563908D01*
X16596019Y10724887D01*
X16620784Y10883367D01*
X16550729Y11043336D01*
X16383980Y11208783D01*
X16118663Y11383699D01*
X16083896Y11403400D01*
X15916591Y11499914D01*
X15790149Y11578398D01*
X15725474Y11625676D01*
X15721234Y11632000D01*
X15763570Y11665419D01*
X15872580Y11725679D01*
X15986383Y11781512D01*
X16332657Y11997537D01*
X16616281Y12283990D01*
X16831121Y12626868D01*
X16971043Y13012169D01*
X17029914Y13425890D01*
X17001599Y13854029D01*
X16966408Y14018746D01*
X16812277Y14422779D01*
X16574042Y14776435D01*
X16260324Y15070867D01*
X15879743Y15297232D01*
X15623849Y15396391D01*
X15280936Y15477088D01*
X14888000Y15523593D01*
X14485074Y15534094D01*
X14112193Y15506778D01*
X13926900Y15473232D01*
X13465637Y15321185D01*
X13068524Y15101316D01*
X12741308Y14821636D01*
X12489733Y14490152D01*
X12319546Y14114874D01*
X12236490Y13703810D01*
X12236490Y13703810D01*
G36*
X14473420Y12095116D02*
X14480417Y12062791D01*
X14556427Y11978765D01*
X14669168Y11976683D01*
X14730317Y12009144D01*
X14789242Y12101206D01*
X14765574Y12202686D01*
X14670007Y12276407D01*
X14578360Y12266443D01*
X14501837Y12193624D01*
X14473420Y12095116D01*
X14473420Y12095116D01*
X14473420Y12095116D01*
G37*
X14473420Y12095116D02*
X14480417Y12062791D01*
X14556427Y11978765D01*
X14669168Y11976683D01*
X14730317Y12009144D01*
X14789242Y12101206D01*
X14765574Y12202686D01*
X14670007Y12276407D01*
X14578360Y12266443D01*
X14501837Y12193624D01*
X14473420Y12095116D01*
X14473420Y12095116D01*
G36*
X15048981Y12969528D02*
X15104308Y12766707D01*
X15127314Y12726360D01*
X15249150Y12617743D01*
X15401577Y12596641D01*
X15565056Y12662197D01*
X15667183Y12750010D01*
X15829322Y12986780D01*
X15929990Y13267506D01*
X15962659Y13560234D01*
X15920797Y13833014D01*
X15900038Y13889337D01*
X15800285Y14041779D01*
X15666753Y14098627D01*
X15496616Y14060878D01*
X15461675Y14044005D01*
X15311149Y13915340D01*
X15187439Y13715277D01*
X15097723Y13472097D01*
X15049178Y13214086D01*
X15048981Y12969528D01*
X15048981Y12969528D01*
X15048981Y12969528D01*
G37*
X15048981Y12969528D02*
X15104308Y12766707D01*
X15127314Y12726360D01*
X15249150Y12617743D01*
X15401577Y12596641D01*
X15565056Y12662197D01*
X15667183Y12750010D01*
X15829322Y12986780D01*
X15929990Y13267506D01*
X15962659Y13560234D01*
X15920797Y13833014D01*
X15900038Y13889337D01*
X15800285Y14041779D01*
X15666753Y14098627D01*
X15496616Y14060878D01*
X15461675Y14044005D01*
X15311149Y13915340D01*
X15187439Y13715277D01*
X15097723Y13472097D01*
X15049178Y13214086D01*
X15048981Y12969528D01*
X15048981Y12969528D01*
G36*
X13309535Y13606460D02*
X13349838Y13246549D01*
X13469170Y12944748D01*
X13594641Y12770643D01*
X13754901Y12638632D01*
X13915832Y12597294D01*
X14062939Y12648745D01*
X14113832Y12694858D01*
X14202663Y12862826D01*
X14231312Y13082160D01*
X14207013Y13328211D01*
X14137000Y13576333D01*
X14028508Y13801880D01*
X13888769Y13980205D01*
X13725019Y14086661D01*
X13703277Y14093671D01*
X13575057Y14083121D01*
X13451091Y14002003D01*
X13365193Y13913692D01*
X13322815Y13815725D01*
X13309812Y13668577D01*
X13309535Y13606460D01*
X13309535Y13606460D01*
X13309535Y13606460D01*
G37*
X13309535Y13606460D02*
X13349838Y13246549D01*
X13469170Y12944748D01*
X13594641Y12770643D01*
X13754901Y12638632D01*
X13915832Y12597294D01*
X14062939Y12648745D01*
X14113832Y12694858D01*
X14202663Y12862826D01*
X14231312Y13082160D01*
X14207013Y13328211D01*
X14137000Y13576333D01*
X14028508Y13801880D01*
X13888769Y13980205D01*
X13725019Y14086661D01*
X13703277Y14093671D01*
X13575057Y14083121D01*
X13451091Y14002003D01*
X13365193Y13913692D01*
X13322815Y13815725D01*
X13309812Y13668577D01*
X13309535Y13606460D01*
X13309535Y13606460D01*
X15600000Y103883334D02*
X16000000Y103883334D01*
X15800000Y103883334D02*
X15800000Y104583334D01*
X15866666Y104483334D01*
X15933333Y104416667D01*
X16000000Y104383334D01*
X15300000Y103883334D02*
X15300000Y104583334D01*
X14900000Y103883334D01*
X14900000Y104583334D01*
X14266666Y104350000D02*
X14266666Y103883334D01*
X14433333Y104616667D02*
X14600000Y104116667D01*
X14166666Y104116667D01*
X13766666Y104583334D02*
X13700000Y104583334D01*
X13633333Y104550000D01*
X13600000Y104516667D01*
X13566666Y104450000D01*
X13533333Y104316667D01*
X13533333Y104150000D01*
X13566666Y104016667D01*
X13600000Y103950000D01*
X13633333Y103916667D01*
X13700000Y103883334D01*
X13766666Y103883334D01*
X13833333Y103916667D01*
X13866666Y103950000D01*
X13900000Y104016667D01*
X13933333Y104150000D01*
X13933333Y104316667D01*
X13900000Y104450000D01*
X13866666Y104516667D01*
X13833333Y104550000D01*
X13766666Y104583334D01*
X13100000Y104583334D02*
X13033333Y104583334D01*
X12966666Y104550000D01*
X12933333Y104516667D01*
X12900000Y104450000D01*
X12866666Y104316667D01*
X12866666Y104150000D01*
X12900000Y104016667D01*
X12933333Y103950000D01*
X12966666Y103916667D01*
X13033333Y103883334D01*
X13100000Y103883334D01*
X13166666Y103916667D01*
X13200000Y103950000D01*
X13233333Y104016667D01*
X13266666Y104150000D01*
X13266666Y104316667D01*
X13233333Y104450000D01*
X13200000Y104516667D01*
X13166666Y104550000D01*
X13100000Y104583334D01*
X12200000Y103883334D02*
X12600000Y103883334D01*
X12400000Y103883334D02*
X12400000Y104583334D01*
X12466666Y104483334D01*
X12533333Y104416667D01*
X12600000Y104383334D01*
X11416666Y105483334D02*
X11183333Y104783334D01*
X10950000Y105483334D01*
X10716666Y104783334D02*
X10716666Y105483334D01*
X10550000Y105483334D01*
X10450000Y105450000D01*
X10383333Y105383334D01*
X10350000Y105316667D01*
X10316666Y105183334D01*
X10316666Y105083334D01*
X10350000Y104950000D01*
X10383333Y104883334D01*
X10450000Y104816667D01*
X10550000Y104783334D01*
X10716666Y104783334D01*
X10050000Y105416667D02*
X10016666Y105450000D01*
X9950000Y105483334D01*
X9783333Y105483334D01*
X9716666Y105450000D01*
X9683333Y105416667D01*
X9650000Y105350000D01*
X9650000Y105283334D01*
X9683333Y105183334D01*
X10083333Y104783334D01*
X9650000Y104783334D01*
X16400000Y100883334D02*
X16800000Y100883334D01*
X16600000Y100883334D02*
X16600000Y101583334D01*
X16666666Y101483334D01*
X16733333Y101416667D01*
X16800000Y101383334D01*
X16100000Y100883334D02*
X16100000Y101583334D01*
X15700000Y100883334D01*
X15700000Y101583334D01*
X15066666Y101350000D02*
X15066666Y100883334D01*
X15233333Y101616667D02*
X15400000Y101116667D01*
X14966666Y101116667D01*
X14566666Y101583334D02*
X14500000Y101583334D01*
X14433333Y101550000D01*
X14400000Y101516667D01*
X14366666Y101450000D01*
X14333333Y101316667D01*
X14333333Y101150000D01*
X14366666Y101016667D01*
X14400000Y100950000D01*
X14433333Y100916667D01*
X14500000Y100883334D01*
X14566666Y100883334D01*
X14633333Y100916667D01*
X14666666Y100950000D01*
X14700000Y101016667D01*
X14733333Y101150000D01*
X14733333Y101316667D01*
X14700000Y101450000D01*
X14666666Y101516667D01*
X14633333Y101550000D01*
X14566666Y101583334D01*
X13900000Y101583334D02*
X13833333Y101583334D01*
X13766666Y101550000D01*
X13733333Y101516667D01*
X13700000Y101450000D01*
X13666666Y101316667D01*
X13666666Y101150000D01*
X13700000Y101016667D01*
X13733333Y100950000D01*
X13766666Y100916667D01*
X13833333Y100883334D01*
X13900000Y100883334D01*
X13966666Y100916667D01*
X14000000Y100950000D01*
X14033333Y101016667D01*
X14066666Y101150000D01*
X14066666Y101316667D01*
X14033333Y101450000D01*
X14000000Y101516667D01*
X13966666Y101550000D01*
X13900000Y101583334D01*
X13000000Y100883334D02*
X13400000Y100883334D01*
X13200000Y100883334D02*
X13200000Y101583334D01*
X13266666Y101483334D01*
X13333333Y101416667D01*
X13400000Y101383334D01*
X11416666Y102383334D02*
X11183333Y101683334D01*
X10950000Y102383334D01*
X10716666Y101683334D02*
X10716666Y102383334D01*
X10550000Y102383334D01*
X10450000Y102350000D01*
X10383333Y102283334D01*
X10350000Y102216667D01*
X10316666Y102083334D01*
X10316666Y101983334D01*
X10350000Y101850000D01*
X10383333Y101783334D01*
X10450000Y101716667D01*
X10550000Y101683334D01*
X10716666Y101683334D01*
X10083333Y102383334D02*
X9650000Y102383334D01*
X9883333Y102116667D01*
X9783333Y102116667D01*
X9716666Y102083334D01*
X9683333Y102050000D01*
X9650000Y101983334D01*
X9650000Y101816667D01*
X9683333Y101750000D01*
X9716666Y101716667D01*
X9783333Y101683334D01*
X9983333Y101683334D01*
X10050000Y101716667D01*
X10083333Y101750000D01*
X9666666Y99250000D02*
X9433333Y99250000D01*
X9333333Y98883334D02*
X9666666Y98883334D01*
X9666666Y99583334D01*
X9333333Y99583334D01*
X8633333Y98883334D02*
X8866666Y99216667D01*
X9033333Y98883334D02*
X9033333Y99583334D01*
X8766666Y99583334D01*
X8700000Y99550000D01*
X8666666Y99516667D01*
X8633333Y99450000D01*
X8633333Y99350000D01*
X8666666Y99283334D01*
X8700000Y99250000D01*
X8766666Y99216667D01*
X9033333Y99216667D01*
X8100000Y99250000D02*
X8333333Y99250000D01*
X8333333Y98883334D02*
X8333333Y99583334D01*
X8000000Y99583334D01*
X7733333Y99150000D02*
X7200000Y99150000D01*
X6466666Y98883334D02*
X6700000Y99216667D01*
X6866666Y98883334D02*
X6866666Y99583334D01*
X6600000Y99583334D01*
X6533333Y99550000D01*
X6500000Y99516667D01*
X6466666Y99450000D01*
X6466666Y99350000D01*
X6500000Y99283334D01*
X6533333Y99250000D01*
X6600000Y99216667D01*
X6866666Y99216667D01*
X5933333Y99250000D02*
X5833333Y99216667D01*
X5800000Y99183334D01*
X5766666Y99116667D01*
X5766666Y99016667D01*
X5800000Y98950000D01*
X5833333Y98916667D01*
X5900000Y98883334D01*
X6166666Y98883334D01*
X6166666Y99583334D01*
X5933333Y99583334D01*
X5866666Y99550000D01*
X5833333Y99516667D01*
X5800000Y99450000D01*
X5800000Y99383334D01*
X5833333Y99316667D01*
X5866666Y99283334D01*
X5933333Y99250000D01*
X6166666Y99250000D01*
X5466666Y99150000D02*
X4933333Y99150000D01*
X4466666Y99583334D02*
X4399999Y99583334D01*
X4333333Y99550000D01*
X4299999Y99516667D01*
X4266666Y99450000D01*
X4233333Y99316667D01*
X4233333Y99150000D01*
X4266666Y99016667D01*
X4299999Y98950000D01*
X4333333Y98916667D01*
X4399999Y98883334D01*
X4466666Y98883334D01*
X4533333Y98916667D01*
X4566666Y98950000D01*
X4599999Y99016667D01*
X4633333Y99150000D01*
X4633333Y99316667D01*
X4599999Y99450000D01*
X4566666Y99516667D01*
X4533333Y99550000D01*
X4466666Y99583334D01*
X3899999Y98883334D02*
X3766666Y98883334D01*
X3699999Y98916667D01*
X3666666Y98950000D01*
X3599999Y99050000D01*
X3566666Y99183334D01*
X3566666Y99450000D01*
X3599999Y99516667D01*
X3633333Y99550000D01*
X3699999Y99583334D01*
X3833333Y99583334D01*
X3899999Y99550000D01*
X3933333Y99516667D01*
X3966666Y99450000D01*
X3966666Y99283334D01*
X3933333Y99216667D01*
X3899999Y99183334D01*
X3833333Y99150000D01*
X3699999Y99150000D01*
X3633333Y99183334D01*
X3599999Y99216667D01*
X3566666Y99283334D01*
X3133333Y99583334D02*
X3066666Y99583334D01*
X2999999Y99550000D01*
X2966666Y99516667D01*
X2933333Y99450000D01*
X2900000Y99316667D01*
X2900000Y99150000D01*
X2933333Y99016667D01*
X2966666Y98950000D01*
X2999999Y98916667D01*
X3066666Y98883334D01*
X3133333Y98883334D01*
X3199999Y98916667D01*
X3233333Y98950000D01*
X3266666Y99016667D01*
X3299999Y99150000D01*
X3299999Y99316667D01*
X3266666Y99450000D01*
X3233333Y99516667D01*
X3199999Y99550000D01*
X3133333Y99583334D01*
X2599999Y99150000D02*
X2066666Y99150000D01*
X1799999Y99583334D02*
X1366666Y99583334D01*
X1599999Y99316667D01*
X1499999Y99316667D01*
X1433333Y99283334D01*
X1399999Y99250000D01*
X1366666Y99183334D01*
X1366666Y99016667D01*
X1399999Y98950000D01*
X1433333Y98916667D01*
X1499999Y98883334D01*
X1699999Y98883334D01*
X1766666Y98916667D01*
X1799999Y98950000D01*
X933333Y99583334D02*
X866666Y99583334D01*
X799999Y99550000D01*
X766666Y99516667D01*
X733333Y99450000D01*
X699999Y99316667D01*
X699999Y99150000D01*
X733333Y99016667D01*
X766666Y98950000D01*
X799999Y98916667D01*
X866666Y98883334D01*
X933333Y98883334D01*
X999999Y98916667D01*
X1033333Y98950000D01*
X1066666Y99016667D01*
X1099999Y99150000D01*
X1099999Y99316667D01*
X1066666Y99450000D01*
X1033333Y99516667D01*
X999999Y99550000D01*
X933333Y99583334D01*
X3216666Y97883334D02*
X2983333Y97183334D01*
X2750000Y97883334D01*
X2116666Y97183334D02*
X2350000Y97516667D01*
X2516666Y97183334D02*
X2516666Y97883334D01*
X2250000Y97883334D01*
X2183333Y97850000D01*
X2150000Y97816667D01*
X2116666Y97750000D01*
X2116666Y97650000D01*
X2150000Y97583334D01*
X2183333Y97550000D01*
X2250000Y97516667D01*
X2516666Y97516667D01*
X1450000Y97183334D02*
X1850000Y97183334D01*
X1650000Y97183334D02*
X1650000Y97883334D01*
X1716666Y97783334D01*
X1783333Y97716667D01*
X1850000Y97683334D01*
X10750000Y78183334D02*
X10683333Y78183334D01*
X10616666Y78150000D01*
X10583333Y78116667D01*
X10550000Y78050000D01*
X10516666Y77916667D01*
X10516666Y77750000D01*
X10550000Y77616667D01*
X10583333Y77550000D01*
X10616666Y77516667D01*
X10683333Y77483334D01*
X10750000Y77483334D01*
X10816666Y77516667D01*
X10850000Y77550000D01*
X10883333Y77616667D01*
X10916666Y77750000D01*
X10916666Y77916667D01*
X10883333Y78050000D01*
X10850000Y78116667D01*
X10816666Y78150000D01*
X10750000Y78183334D01*
X10216666Y77550000D02*
X10183333Y77516667D01*
X10216666Y77483334D01*
X10250000Y77516667D01*
X10216666Y77550000D01*
X10216666Y77483334D01*
X9516666Y77483334D02*
X9916666Y77483334D01*
X9716666Y77483334D02*
X9716666Y78183334D01*
X9783333Y78083334D01*
X9850000Y78016667D01*
X9916666Y77983334D01*
X8916666Y77950000D02*
X8916666Y77483334D01*
X9216666Y77950000D02*
X9216666Y77583334D01*
X9183333Y77516667D01*
X9116666Y77483334D01*
X9016666Y77483334D01*
X8950000Y77516667D01*
X8916666Y77550000D01*
X8350000Y77850000D02*
X8583333Y77850000D01*
X8583333Y77483334D02*
X8583333Y78183334D01*
X8250000Y78183334D01*
X8916666Y78750000D02*
X8950000Y78716667D01*
X9050000Y78683334D01*
X9116666Y78683334D01*
X9216666Y78716667D01*
X9283333Y78783334D01*
X9316666Y78850000D01*
X9350000Y78983334D01*
X9350000Y79083334D01*
X9316666Y79216667D01*
X9283333Y79283334D01*
X9216666Y79350000D01*
X9116666Y79383334D01*
X9050000Y79383334D01*
X8950000Y79350000D01*
X8916666Y79316667D01*
X8250000Y78683334D02*
X8650000Y78683334D01*
X8450000Y78683334D02*
X8450000Y79383334D01*
X8516666Y79283334D01*
X8583333Y79216667D01*
X8650000Y79183334D01*
X11850000Y70183334D02*
X11783333Y70183334D01*
X11716666Y70150000D01*
X11683333Y70116667D01*
X11650000Y70050000D01*
X11616666Y69916667D01*
X11616666Y69750000D01*
X11650000Y69616667D01*
X11683333Y69550000D01*
X11716666Y69516667D01*
X11783333Y69483334D01*
X11850000Y69483334D01*
X11916666Y69516667D01*
X11950000Y69550000D01*
X11983333Y69616667D01*
X12016666Y69750000D01*
X12016666Y69916667D01*
X11983333Y70050000D01*
X11950000Y70116667D01*
X11916666Y70150000D01*
X11850000Y70183334D01*
X11316666Y69550000D02*
X11283333Y69516667D01*
X11316666Y69483334D01*
X11350000Y69516667D01*
X11316666Y69550000D01*
X11316666Y69483334D01*
X10616666Y69483334D02*
X11016666Y69483334D01*
X10816666Y69483334D02*
X10816666Y70183334D01*
X10883333Y70083334D01*
X10950000Y70016667D01*
X11016666Y69983334D01*
X10016666Y69950000D02*
X10016666Y69483334D01*
X10316666Y69950000D02*
X10316666Y69583334D01*
X10283333Y69516667D01*
X10216666Y69483334D01*
X10116666Y69483334D01*
X10050000Y69516667D01*
X10016666Y69550000D01*
X9450000Y69850000D02*
X9683333Y69850000D01*
X9683333Y69483334D02*
X9683333Y70183334D01*
X9350000Y70183334D01*
X10116666Y70550000D02*
X10150000Y70516667D01*
X10250000Y70483334D01*
X10316666Y70483334D01*
X10416666Y70516667D01*
X10483333Y70583334D01*
X10516666Y70650000D01*
X10550000Y70783334D01*
X10550000Y70883334D01*
X10516666Y71016667D01*
X10483333Y71083334D01*
X10416666Y71150000D01*
X10316666Y71183334D01*
X10250000Y71183334D01*
X10150000Y71150000D01*
X10116666Y71116667D01*
X9850000Y71116667D02*
X9816666Y71150000D01*
X9750000Y71183334D01*
X9583333Y71183334D01*
X9516666Y71150000D01*
X9483333Y71116667D01*
X9450000Y71050000D01*
X9450000Y70983334D01*
X9483333Y70883334D01*
X9883333Y70483334D01*
X9450000Y70483334D01*
X4450000Y44783334D02*
X4383333Y44783334D01*
X4316666Y44750000D01*
X4283333Y44716667D01*
X4250000Y44650000D01*
X4216666Y44516667D01*
X4216666Y44350000D01*
X4250000Y44216667D01*
X4283333Y44150000D01*
X4316666Y44116667D01*
X4383333Y44083334D01*
X4450000Y44083334D01*
X4516666Y44116667D01*
X4550000Y44150000D01*
X4583333Y44216667D01*
X4616666Y44350000D01*
X4616666Y44516667D01*
X4583333Y44650000D01*
X4550000Y44716667D01*
X4516666Y44750000D01*
X4450000Y44783334D01*
X3916666Y44150000D02*
X3883333Y44116667D01*
X3916666Y44083334D01*
X3950000Y44116667D01*
X3916666Y44150000D01*
X3916666Y44083334D01*
X3216666Y44083334D02*
X3616666Y44083334D01*
X3416666Y44083334D02*
X3416666Y44783334D01*
X3483333Y44683334D01*
X3550000Y44616667D01*
X3616666Y44583334D01*
X2616666Y44550000D02*
X2616666Y44083334D01*
X2916666Y44550000D02*
X2916666Y44183334D01*
X2883333Y44116667D01*
X2816666Y44083334D01*
X2716666Y44083334D01*
X2650000Y44116667D01*
X2616666Y44150000D01*
X2050000Y44450000D02*
X2283333Y44450000D01*
X2283333Y44083334D02*
X2283333Y44783334D01*
X1950000Y44783334D01*
X7016666Y44150000D02*
X7050000Y44116667D01*
X7150000Y44083334D01*
X7216666Y44083334D01*
X7316666Y44116667D01*
X7383333Y44183334D01*
X7416666Y44250000D01*
X7450000Y44383334D01*
X7450000Y44483334D01*
X7416666Y44616667D01*
X7383333Y44683334D01*
X7316666Y44750000D01*
X7216666Y44783334D01*
X7150000Y44783334D01*
X7050000Y44750000D01*
X7016666Y44716667D01*
X6783333Y44783334D02*
X6350000Y44783334D01*
X6583333Y44516667D01*
X6483333Y44516667D01*
X6416666Y44483334D01*
X6383333Y44450000D01*
X6350000Y44383334D01*
X6350000Y44216667D01*
X6383333Y44150000D01*
X6416666Y44116667D01*
X6483333Y44083334D01*
X6683333Y44083334D01*
X6750000Y44116667D01*
X6783333Y44150000D01*
X26966666Y85850000D02*
X26966666Y85383334D01*
X27133333Y86116667D02*
X27300000Y85616667D01*
X26866666Y85616667D01*
X26666666Y86083334D02*
X26200000Y86083334D01*
X26500000Y85383334D01*
X25633333Y85850000D02*
X25633333Y85383334D01*
X25933333Y85850000D02*
X25933333Y85483334D01*
X25900000Y85416667D01*
X25833333Y85383334D01*
X25733333Y85383334D01*
X25666666Y85416667D01*
X25633333Y85450000D01*
X25066666Y85750000D02*
X25300000Y85750000D01*
X25300000Y85383334D02*
X25300000Y86083334D01*
X24966666Y86083334D01*
X24766666Y85383334D02*
X24400000Y85850000D01*
X24766666Y85850000D02*
X24400000Y85383334D01*
X24166666Y86016667D02*
X24133333Y86050000D01*
X24066666Y86083334D01*
X23900000Y86083334D01*
X23833333Y86050000D01*
X23800000Y86016667D01*
X23766666Y85950000D01*
X23766666Y85883334D01*
X23800000Y85783334D01*
X24200000Y85383334D01*
X23766666Y85383334D01*
X23133333Y86083334D02*
X23466666Y86083334D01*
X23500000Y85750000D01*
X23466666Y85783334D01*
X23400000Y85816667D01*
X23233333Y85816667D01*
X23166666Y85783334D01*
X23133333Y85750000D01*
X23100000Y85683334D01*
X23100000Y85516667D01*
X23133333Y85450000D01*
X23166666Y85416667D01*
X23233333Y85383334D01*
X23400000Y85383334D01*
X23466666Y85416667D01*
X23500000Y85450000D01*
X22900000Y86083334D02*
X22666666Y85383334D01*
X22433333Y86083334D01*
X22416666Y83750000D02*
X22450000Y83716667D01*
X22550000Y83683334D01*
X22616666Y83683334D01*
X22716666Y83716667D01*
X22783333Y83783334D01*
X22816666Y83850000D01*
X22850000Y83983334D01*
X22850000Y84083334D01*
X22816666Y84216667D01*
X22783333Y84283334D01*
X22716666Y84350000D01*
X22616666Y84383334D01*
X22550000Y84383334D01*
X22450000Y84350000D01*
X22416666Y84316667D01*
X21816666Y84150000D02*
X21816666Y83683334D01*
X21983333Y84416667D02*
X22150000Y83916667D01*
X21716666Y83916667D01*
X26866666Y79250000D02*
X26866666Y78783334D01*
X27033333Y79516667D02*
X27200000Y79016667D01*
X26766666Y79016667D01*
X26566666Y79483334D02*
X26100000Y79483334D01*
X26400000Y78783334D01*
X25533333Y79250000D02*
X25533333Y78783334D01*
X25833333Y79250000D02*
X25833333Y78883334D01*
X25800000Y78816667D01*
X25733333Y78783334D01*
X25633333Y78783334D01*
X25566666Y78816667D01*
X25533333Y78850000D01*
X24966666Y79150000D02*
X25200000Y79150000D01*
X25200000Y78783334D02*
X25200000Y79483334D01*
X24866666Y79483334D01*
X24666666Y78783334D02*
X24300000Y79250000D01*
X24666666Y79250000D02*
X24300000Y78783334D01*
X24066666Y79416667D02*
X24033333Y79450000D01*
X23966666Y79483334D01*
X23800000Y79483334D01*
X23733333Y79450000D01*
X23700000Y79416667D01*
X23666666Y79350000D01*
X23666666Y79283334D01*
X23700000Y79183334D01*
X24100000Y78783334D01*
X23666666Y78783334D01*
X23033333Y79483334D02*
X23366666Y79483334D01*
X23400000Y79150000D01*
X23366666Y79183334D01*
X23300000Y79216667D01*
X23133333Y79216667D01*
X23066666Y79183334D01*
X23033333Y79150000D01*
X23000000Y79083334D01*
X23000000Y78916667D01*
X23033333Y78850000D01*
X23066666Y78816667D01*
X23133333Y78783334D01*
X23300000Y78783334D01*
X23366666Y78816667D01*
X23400000Y78850000D01*
X22800000Y79483334D02*
X22566666Y78783334D01*
X22333333Y79483334D01*
X22316666Y77450000D02*
X22350000Y77416667D01*
X22450000Y77383334D01*
X22516666Y77383334D01*
X22616666Y77416667D01*
X22683333Y77483334D01*
X22716666Y77550000D01*
X22750000Y77683334D01*
X22750000Y77783334D01*
X22716666Y77916667D01*
X22683333Y77983334D01*
X22616666Y78050000D01*
X22516666Y78083334D01*
X22450000Y78083334D01*
X22350000Y78050000D01*
X22316666Y78016667D01*
X21683333Y78083334D02*
X22016666Y78083334D01*
X22050000Y77750000D01*
X22016666Y77783334D01*
X21950000Y77816667D01*
X21783333Y77816667D01*
X21716666Y77783334D01*
X21683333Y77750000D01*
X21650000Y77683334D01*
X21650000Y77516667D01*
X21683333Y77450000D01*
X21716666Y77416667D01*
X21783333Y77383334D01*
X21950000Y77383334D01*
X22016666Y77416667D01*
X22050000Y77450000D01*
X20550000Y92483334D02*
X20483333Y92483334D01*
X20416666Y92450000D01*
X20383333Y92416667D01*
X20350000Y92350000D01*
X20316666Y92216667D01*
X20316666Y92050000D01*
X20350000Y91916667D01*
X20383333Y91850000D01*
X20416666Y91816667D01*
X20483333Y91783334D01*
X20550000Y91783334D01*
X20616666Y91816667D01*
X20650000Y91850000D01*
X20683333Y91916667D01*
X20716666Y92050000D01*
X20716666Y92216667D01*
X20683333Y92350000D01*
X20650000Y92416667D01*
X20616666Y92450000D01*
X20550000Y92483334D01*
X20016666Y91850000D02*
X19983333Y91816667D01*
X20016666Y91783334D01*
X20050000Y91816667D01*
X20016666Y91850000D01*
X20016666Y91783334D01*
X19316666Y91783334D02*
X19716666Y91783334D01*
X19516666Y91783334D02*
X19516666Y92483334D01*
X19583333Y92383334D01*
X19650000Y92316667D01*
X19716666Y92283334D01*
X18716666Y92250000D02*
X18716666Y91783334D01*
X19016666Y92250000D02*
X19016666Y91883334D01*
X18983333Y91816667D01*
X18916666Y91783334D01*
X18816666Y91783334D01*
X18750000Y91816667D01*
X18716666Y91850000D01*
X18150000Y92150000D02*
X18383333Y92150000D01*
X18383333Y91783334D02*
X18383333Y92483334D01*
X18050000Y92483334D01*
X20516666Y92950000D02*
X20550000Y92916667D01*
X20650000Y92883334D01*
X20716666Y92883334D01*
X20816666Y92916667D01*
X20883333Y92983334D01*
X20916666Y93050000D01*
X20950000Y93183334D01*
X20950000Y93283334D01*
X20916666Y93416667D01*
X20883333Y93483334D01*
X20816666Y93550000D01*
X20716666Y93583334D01*
X20650000Y93583334D01*
X20550000Y93550000D01*
X20516666Y93516667D01*
X19916666Y93583334D02*
X20050000Y93583334D01*
X20116666Y93550000D01*
X20150000Y93516667D01*
X20216666Y93416667D01*
X20250000Y93283334D01*
X20250000Y93016667D01*
X20216666Y92950000D01*
X20183333Y92916667D01*
X20116666Y92883334D01*
X19983333Y92883334D01*
X19916666Y92916667D01*
X19883333Y92950000D01*
X19850000Y93016667D01*
X19850000Y93183334D01*
X19883333Y93250000D01*
X19916666Y93283334D01*
X19983333Y93316667D01*
X20116666Y93316667D01*
X20183333Y93283334D01*
X20216666Y93250000D01*
X20250000Y93183334D01*
X28150000Y74983334D02*
X28083333Y74983334D01*
X28016666Y74950000D01*
X27983333Y74916667D01*
X27950000Y74850000D01*
X27916666Y74716667D01*
X27916666Y74550000D01*
X27950000Y74416667D01*
X27983333Y74350000D01*
X28016666Y74316667D01*
X28083333Y74283334D01*
X28150000Y74283334D01*
X28216666Y74316667D01*
X28250000Y74350000D01*
X28283333Y74416667D01*
X28316666Y74550000D01*
X28316666Y74716667D01*
X28283333Y74850000D01*
X28250000Y74916667D01*
X28216666Y74950000D01*
X28150000Y74983334D01*
X27616666Y74350000D02*
X27583333Y74316667D01*
X27616666Y74283334D01*
X27650000Y74316667D01*
X27616666Y74350000D01*
X27616666Y74283334D01*
X26916666Y74283334D02*
X27316666Y74283334D01*
X27116666Y74283334D02*
X27116666Y74983334D01*
X27183333Y74883334D01*
X27250000Y74816667D01*
X27316666Y74783334D01*
X26316666Y74750000D02*
X26316666Y74283334D01*
X26616666Y74750000D02*
X26616666Y74383334D01*
X26583333Y74316667D01*
X26516666Y74283334D01*
X26416666Y74283334D01*
X26350000Y74316667D01*
X26316666Y74350000D01*
X25750000Y74650000D02*
X25983333Y74650000D01*
X25983333Y74283334D02*
X25983333Y74983334D01*
X25650000Y74983334D01*
X22694166Y74353000D02*
X22727500Y74319667D01*
X22827500Y74286334D01*
X22894166Y74286334D01*
X22994166Y74319667D01*
X23060833Y74386334D01*
X23094166Y74453000D01*
X23127500Y74586334D01*
X23127500Y74686334D01*
X23094166Y74819667D01*
X23060833Y74886334D01*
X22994166Y74953000D01*
X22894166Y74986334D01*
X22827500Y74986334D01*
X22727500Y74953000D01*
X22694166Y74919667D01*
X22460833Y74986334D02*
X21994166Y74986334D01*
X22294166Y74286334D01*
X22550000Y50683334D02*
X22483333Y50683334D01*
X22416666Y50650000D01*
X22383333Y50616667D01*
X22350000Y50550000D01*
X22316666Y50416667D01*
X22316666Y50250000D01*
X22350000Y50116667D01*
X22383333Y50050000D01*
X22416666Y50016667D01*
X22483333Y49983334D01*
X22550000Y49983334D01*
X22616666Y50016667D01*
X22650000Y50050000D01*
X22683333Y50116667D01*
X22716666Y50250000D01*
X22716666Y50416667D01*
X22683333Y50550000D01*
X22650000Y50616667D01*
X22616666Y50650000D01*
X22550000Y50683334D01*
X22016666Y50050000D02*
X21983333Y50016667D01*
X22016666Y49983334D01*
X22050000Y50016667D01*
X22016666Y50050000D01*
X22016666Y49983334D01*
X21316666Y49983334D02*
X21716666Y49983334D01*
X21516666Y49983334D02*
X21516666Y50683334D01*
X21583333Y50583334D01*
X21650000Y50516667D01*
X21716666Y50483334D01*
X20716666Y50450000D02*
X20716666Y49983334D01*
X21016666Y50450000D02*
X21016666Y50083334D01*
X20983333Y50016667D01*
X20916666Y49983334D01*
X20816666Y49983334D01*
X20750000Y50016667D01*
X20716666Y50050000D01*
X20150000Y50350000D02*
X20383333Y50350000D01*
X20383333Y49983334D02*
X20383333Y50683334D01*
X20050000Y50683334D01*
X20416666Y56350000D02*
X20450000Y56316667D01*
X20550000Y56283334D01*
X20616666Y56283334D01*
X20716666Y56316667D01*
X20783333Y56383334D01*
X20816666Y56450000D01*
X20850000Y56583334D01*
X20850000Y56683334D01*
X20816666Y56816667D01*
X20783333Y56883334D01*
X20716666Y56950000D01*
X20616666Y56983334D01*
X20550000Y56983334D01*
X20450000Y56950000D01*
X20416666Y56916667D01*
X20016666Y56683334D02*
X20083333Y56716667D01*
X20116666Y56750000D01*
X20150000Y56816667D01*
X20150000Y56850000D01*
X20116666Y56916667D01*
X20083333Y56950000D01*
X20016666Y56983334D01*
X19883333Y56983334D01*
X19816666Y56950000D01*
X19783333Y56916667D01*
X19750000Y56850000D01*
X19750000Y56816667D01*
X19783333Y56750000D01*
X19816666Y56716667D01*
X19883333Y56683334D01*
X20016666Y56683334D01*
X20083333Y56650000D01*
X20116666Y56616667D01*
X20150000Y56550000D01*
X20150000Y56416667D01*
X20116666Y56350000D01*
X20083333Y56316667D01*
X20016666Y56283334D01*
X19883333Y56283334D01*
X19816666Y56316667D01*
X19783333Y56350000D01*
X19750000Y56416667D01*
X19750000Y56550000D01*
X19783333Y56616667D01*
X19816666Y56650000D01*
X19883333Y56683334D01*
X27750000Y71683334D02*
X27683333Y71683334D01*
X27616666Y71650000D01*
X27583333Y71616667D01*
X27550000Y71550000D01*
X27516666Y71416667D01*
X27516666Y71250000D01*
X27550000Y71116667D01*
X27583333Y71050000D01*
X27616666Y71016667D01*
X27683333Y70983334D01*
X27750000Y70983334D01*
X27816666Y71016667D01*
X27850000Y71050000D01*
X27883333Y71116667D01*
X27916666Y71250000D01*
X27916666Y71416667D01*
X27883333Y71550000D01*
X27850000Y71616667D01*
X27816666Y71650000D01*
X27750000Y71683334D01*
X27216666Y71050000D02*
X27183333Y71016667D01*
X27216666Y70983334D01*
X27250000Y71016667D01*
X27216666Y71050000D01*
X27216666Y70983334D01*
X26516666Y70983334D02*
X26916666Y70983334D01*
X26716666Y70983334D02*
X26716666Y71683334D01*
X26783333Y71583334D01*
X26850000Y71516667D01*
X26916666Y71483334D01*
X25916666Y71450000D02*
X25916666Y70983334D01*
X26216666Y71450000D02*
X26216666Y71083334D01*
X26183333Y71016667D01*
X26116666Y70983334D01*
X26016666Y70983334D01*
X25950000Y71016667D01*
X25916666Y71050000D01*
X25350000Y71350000D02*
X25583333Y71350000D01*
X25583333Y70983334D02*
X25583333Y71683334D01*
X25250000Y71683334D01*
X22516666Y71050000D02*
X22550000Y71016667D01*
X22650000Y70983334D01*
X22716666Y70983334D01*
X22816666Y71016667D01*
X22883333Y71083334D01*
X22916666Y71150000D01*
X22950000Y71283334D01*
X22950000Y71383334D01*
X22916666Y71516667D01*
X22883333Y71583334D01*
X22816666Y71650000D01*
X22716666Y71683334D01*
X22650000Y71683334D01*
X22550000Y71650000D01*
X22516666Y71616667D01*
X22183333Y70983334D02*
X22050000Y70983334D01*
X21983333Y71016667D01*
X21950000Y71050000D01*
X21883333Y71150000D01*
X21850000Y71283334D01*
X21850000Y71550000D01*
X21883333Y71616667D01*
X21916666Y71650000D01*
X21983333Y71683334D01*
X22116666Y71683334D01*
X22183333Y71650000D01*
X22216666Y71616667D01*
X22250000Y71550000D01*
X22250000Y71383334D01*
X22216666Y71316667D01*
X22183333Y71283334D01*
X22116666Y71250000D01*
X21983333Y71250000D01*
X21916666Y71283334D01*
X21883333Y71316667D01*
X21850000Y71383334D01*
X2216666Y63883334D02*
X2450000Y64216667D01*
X2616666Y63883334D02*
X2616666Y64583334D01*
X2350000Y64583334D01*
X2283333Y64550000D01*
X2250000Y64516667D01*
X2216666Y64450000D01*
X2216666Y64350000D01*
X2250000Y64283334D01*
X2283333Y64250000D01*
X2350000Y64216667D01*
X2616666Y64216667D01*
X1616666Y64350000D02*
X1616666Y63883334D01*
X1783333Y64616667D02*
X1950000Y64116667D01*
X1516666Y64116667D01*
X2516666Y71650000D02*
X2516666Y72050000D01*
X2516666Y71850000D02*
X1816666Y71850000D01*
X1916666Y71916667D01*
X1983333Y71983334D01*
X2016666Y72050000D01*
X1816666Y71216667D02*
X1816666Y71150000D01*
X1850000Y71083334D01*
X1883333Y71050000D01*
X1950000Y71016667D01*
X2083333Y70983334D01*
X2250000Y70983334D01*
X2383333Y71016667D01*
X2450000Y71050000D01*
X2483333Y71083334D01*
X2516666Y71150000D01*
X2516666Y71216667D01*
X2483333Y71283334D01*
X2450000Y71316667D01*
X2383333Y71350000D01*
X2250000Y71383334D01*
X2083333Y71383334D01*
X1950000Y71350000D01*
X1883333Y71316667D01*
X1850000Y71283334D01*
X1816666Y71216667D01*
X1816666Y70550000D02*
X1816666Y70483334D01*
X1850000Y70416667D01*
X1883333Y70383334D01*
X1950000Y70350000D01*
X2083333Y70316667D01*
X2250000Y70316667D01*
X2383333Y70350000D01*
X2450000Y70383334D01*
X2483333Y70416667D01*
X2516666Y70483334D01*
X2516666Y70550000D01*
X2483333Y70616667D01*
X2450000Y70650000D01*
X2383333Y70683334D01*
X2250000Y70716667D01*
X2083333Y70716667D01*
X1950000Y70683334D01*
X1883333Y70650000D01*
X1850000Y70616667D01*
X1816666Y70550000D01*
X2516666Y70016667D02*
X1816666Y70016667D01*
X2250000Y69950000D02*
X2516666Y69750000D01*
X2050000Y69750000D02*
X2316666Y70016667D01*
X4816666Y63783334D02*
X5050000Y64116667D01*
X5216666Y63783334D02*
X5216666Y64483334D01*
X4950000Y64483334D01*
X4883333Y64450000D01*
X4850000Y64416667D01*
X4816666Y64350000D01*
X4816666Y64250000D01*
X4850000Y64183334D01*
X4883333Y64150000D01*
X4950000Y64116667D01*
X5216666Y64116667D01*
X4183333Y64483334D02*
X4516666Y64483334D01*
X4550000Y64150000D01*
X4516666Y64183334D01*
X4450000Y64216667D01*
X4283333Y64216667D01*
X4216666Y64183334D01*
X4183333Y64150000D01*
X4150000Y64083334D01*
X4150000Y63916667D01*
X4183333Y63850000D01*
X4216666Y63816667D01*
X4283333Y63783334D01*
X4450000Y63783334D01*
X4516666Y63816667D01*
X4550000Y63850000D01*
X5716666Y71650000D02*
X5716666Y72050000D01*
X5716666Y71850000D02*
X5016666Y71850000D01*
X5116666Y71916667D01*
X5183333Y71983334D01*
X5216666Y72050000D01*
X5016666Y71216667D02*
X5016666Y71150000D01*
X5050000Y71083334D01*
X5083333Y71050000D01*
X5150000Y71016667D01*
X5283333Y70983334D01*
X5450000Y70983334D01*
X5583333Y71016667D01*
X5650000Y71050000D01*
X5683333Y71083334D01*
X5716666Y71150000D01*
X5716666Y71216667D01*
X5683333Y71283334D01*
X5650000Y71316667D01*
X5583333Y71350000D01*
X5450000Y71383334D01*
X5283333Y71383334D01*
X5150000Y71350000D01*
X5083333Y71316667D01*
X5050000Y71283334D01*
X5016666Y71216667D01*
X5016666Y70550000D02*
X5016666Y70483334D01*
X5050000Y70416667D01*
X5083333Y70383334D01*
X5150000Y70350000D01*
X5283333Y70316667D01*
X5450000Y70316667D01*
X5583333Y70350000D01*
X5650000Y70383334D01*
X5683333Y70416667D01*
X5716666Y70483334D01*
X5716666Y70550000D01*
X5683333Y70616667D01*
X5650000Y70650000D01*
X5583333Y70683334D01*
X5450000Y70716667D01*
X5283333Y70716667D01*
X5150000Y70683334D01*
X5083333Y70650000D01*
X5050000Y70616667D01*
X5016666Y70550000D01*
X5716666Y70016667D02*
X5016666Y70016667D01*
X5450000Y69950000D02*
X5716666Y69750000D01*
X5250000Y69750000D02*
X5516666Y70016667D01*
X2316666Y59583334D02*
X2550000Y59916667D01*
X2716666Y59583334D02*
X2716666Y60283334D01*
X2450000Y60283334D01*
X2383333Y60250000D01*
X2350000Y60216667D01*
X2316666Y60150000D01*
X2316666Y60050000D01*
X2350000Y59983334D01*
X2383333Y59950000D01*
X2450000Y59916667D01*
X2716666Y59916667D01*
X1716666Y60283334D02*
X1850000Y60283334D01*
X1916666Y60250000D01*
X1950000Y60216667D01*
X2016666Y60116667D01*
X2050000Y59983334D01*
X2050000Y59716667D01*
X2016666Y59650000D01*
X1983333Y59616667D01*
X1916666Y59583334D01*
X1783333Y59583334D01*
X1716666Y59616667D01*
X1683333Y59650000D01*
X1650000Y59716667D01*
X1650000Y59883334D01*
X1683333Y59950000D01*
X1716666Y59983334D01*
X1783333Y60016667D01*
X1916666Y60016667D01*
X1983333Y59983334D01*
X2016666Y59950000D01*
X2050000Y59883334D01*
X2516666Y53850000D02*
X2516666Y54250000D01*
X2516666Y54050000D02*
X1816666Y54050000D01*
X1916666Y54116667D01*
X1983333Y54183334D01*
X2016666Y54250000D01*
X1816666Y53416667D02*
X1816666Y53350000D01*
X1850000Y53283334D01*
X1883333Y53250000D01*
X1950000Y53216667D01*
X2083333Y53183334D01*
X2250000Y53183334D01*
X2383333Y53216667D01*
X2450000Y53250000D01*
X2483333Y53283334D01*
X2516666Y53350000D01*
X2516666Y53416667D01*
X2483333Y53483334D01*
X2450000Y53516667D01*
X2383333Y53550000D01*
X2250000Y53583334D01*
X2083333Y53583334D01*
X1950000Y53550000D01*
X1883333Y53516667D01*
X1850000Y53483334D01*
X1816666Y53416667D01*
X1816666Y52750000D02*
X1816666Y52683334D01*
X1850000Y52616667D01*
X1883333Y52583334D01*
X1950000Y52550000D01*
X2083333Y52516667D01*
X2250000Y52516667D01*
X2383333Y52550000D01*
X2450000Y52583334D01*
X2483333Y52616667D01*
X2516666Y52683334D01*
X2516666Y52750000D01*
X2483333Y52816667D01*
X2450000Y52850000D01*
X2383333Y52883334D01*
X2250000Y52916667D01*
X2083333Y52916667D01*
X1950000Y52883334D01*
X1883333Y52850000D01*
X1850000Y52816667D01*
X1816666Y52750000D01*
X2516666Y52216667D02*
X1816666Y52216667D01*
X2250000Y52150000D02*
X2516666Y51950000D01*
X2050000Y51950000D02*
X2316666Y52216667D01*
X7852666Y64897834D02*
X8086000Y65231167D01*
X8252666Y64897834D02*
X8252666Y65597834D01*
X7986000Y65597834D01*
X7919333Y65564500D01*
X7886000Y65531167D01*
X7852666Y65464500D01*
X7852666Y65364500D01*
X7886000Y65297834D01*
X7919333Y65264500D01*
X7986000Y65231167D01*
X8252666Y65231167D01*
X7619333Y65597834D02*
X7152666Y65597834D01*
X7452666Y64897834D01*
X12550000Y63183334D02*
X12950000Y63183334D01*
X12750000Y63183334D02*
X12750000Y63883334D01*
X12816666Y63783334D01*
X12883333Y63716667D01*
X12950000Y63683334D01*
X12116666Y63883334D02*
X12050000Y63883334D01*
X11983333Y63850000D01*
X11950000Y63816667D01*
X11916666Y63750000D01*
X11883333Y63616667D01*
X11883333Y63450000D01*
X11916666Y63316667D01*
X11950000Y63250000D01*
X11983333Y63216667D01*
X12050000Y63183334D01*
X12116666Y63183334D01*
X12183333Y63216667D01*
X12216666Y63250000D01*
X12250000Y63316667D01*
X12283333Y63450000D01*
X12283333Y63616667D01*
X12250000Y63750000D01*
X12216666Y63816667D01*
X12183333Y63850000D01*
X12116666Y63883334D01*
X11450000Y63883334D02*
X11383333Y63883334D01*
X11316666Y63850000D01*
X11283333Y63816667D01*
X11250000Y63750000D01*
X11216666Y63616667D01*
X11216666Y63450000D01*
X11250000Y63316667D01*
X11283333Y63250000D01*
X11316666Y63216667D01*
X11383333Y63183334D01*
X11450000Y63183334D01*
X11516666Y63216667D01*
X11550000Y63250000D01*
X11583333Y63316667D01*
X11616666Y63450000D01*
X11616666Y63616667D01*
X11583333Y63750000D01*
X11550000Y63816667D01*
X11516666Y63850000D01*
X11450000Y63883334D01*
X10916666Y63183334D02*
X10916666Y63883334D01*
X10850000Y63450000D02*
X10650000Y63183334D01*
X10650000Y63650000D02*
X10916666Y63383334D01*
X7916666Y60983334D02*
X8150000Y61316667D01*
X8316666Y60983334D02*
X8316666Y61683334D01*
X8050000Y61683334D01*
X7983333Y61650000D01*
X7950000Y61616667D01*
X7916666Y61550000D01*
X7916666Y61450000D01*
X7950000Y61383334D01*
X7983333Y61350000D01*
X8050000Y61316667D01*
X8316666Y61316667D01*
X7516666Y61383334D02*
X7583333Y61416667D01*
X7616666Y61450000D01*
X7650000Y61516667D01*
X7650000Y61550000D01*
X7616666Y61616667D01*
X7583333Y61650000D01*
X7516666Y61683334D01*
X7383333Y61683334D01*
X7316666Y61650000D01*
X7283333Y61616667D01*
X7250000Y61550000D01*
X7250000Y61516667D01*
X7283333Y61450000D01*
X7316666Y61416667D01*
X7383333Y61383334D01*
X7516666Y61383334D01*
X7583333Y61350000D01*
X7616666Y61316667D01*
X7650000Y61250000D01*
X7650000Y61116667D01*
X7616666Y61050000D01*
X7583333Y61016667D01*
X7516666Y60983334D01*
X7383333Y60983334D01*
X7316666Y61016667D01*
X7283333Y61050000D01*
X7250000Y61116667D01*
X7250000Y61250000D01*
X7283333Y61316667D01*
X7316666Y61350000D01*
X7383333Y61383334D01*
X12550000Y59483334D02*
X12950000Y59483334D01*
X12750000Y59483334D02*
X12750000Y60183334D01*
X12816666Y60083334D01*
X12883333Y60016667D01*
X12950000Y59983334D01*
X12116666Y60183334D02*
X12050000Y60183334D01*
X11983333Y60150000D01*
X11950000Y60116667D01*
X11916666Y60050000D01*
X11883333Y59916667D01*
X11883333Y59750000D01*
X11916666Y59616667D01*
X11950000Y59550000D01*
X11983333Y59516667D01*
X12050000Y59483334D01*
X12116666Y59483334D01*
X12183333Y59516667D01*
X12216666Y59550000D01*
X12250000Y59616667D01*
X12283333Y59750000D01*
X12283333Y59916667D01*
X12250000Y60050000D01*
X12216666Y60116667D01*
X12183333Y60150000D01*
X12116666Y60183334D01*
X11450000Y60183334D02*
X11383333Y60183334D01*
X11316666Y60150000D01*
X11283333Y60116667D01*
X11250000Y60050000D01*
X11216666Y59916667D01*
X11216666Y59750000D01*
X11250000Y59616667D01*
X11283333Y59550000D01*
X11316666Y59516667D01*
X11383333Y59483334D01*
X11450000Y59483334D01*
X11516666Y59516667D01*
X11550000Y59550000D01*
X11583333Y59616667D01*
X11616666Y59750000D01*
X11616666Y59916667D01*
X11583333Y60050000D01*
X11550000Y60116667D01*
X11516666Y60150000D01*
X11450000Y60183334D01*
X10916666Y59483334D02*
X10916666Y60183334D01*
X10850000Y59750000D02*
X10650000Y59483334D01*
X10650000Y59950000D02*
X10916666Y59683334D01*
X25016666Y44383334D02*
X25250000Y44716667D01*
X25416666Y44383334D02*
X25416666Y45083334D01*
X25150000Y45083334D01*
X25083333Y45050000D01*
X25050000Y45016667D01*
X25016666Y44950000D01*
X25016666Y44850000D01*
X25050000Y44783334D01*
X25083333Y44750000D01*
X25150000Y44716667D01*
X25416666Y44716667D01*
X24683333Y44383334D02*
X24550000Y44383334D01*
X24483333Y44416667D01*
X24450000Y44450000D01*
X24383333Y44550000D01*
X24350000Y44683334D01*
X24350000Y44950000D01*
X24383333Y45016667D01*
X24416666Y45050000D01*
X24483333Y45083334D01*
X24616666Y45083334D01*
X24683333Y45050000D01*
X24716666Y45016667D01*
X24750000Y44950000D01*
X24750000Y44783334D01*
X24716666Y44716667D01*
X24683333Y44683334D01*
X24616666Y44650000D01*
X24483333Y44650000D01*
X24416666Y44683334D01*
X24383333Y44716667D01*
X24350000Y44783334D01*
X25116666Y52250000D02*
X25116666Y52650000D01*
X25116666Y52450000D02*
X24416666Y52450000D01*
X24516666Y52516667D01*
X24583333Y52583334D01*
X24616666Y52650000D01*
X24416666Y51816667D02*
X24416666Y51750000D01*
X24450000Y51683334D01*
X24483333Y51650000D01*
X24550000Y51616667D01*
X24683333Y51583334D01*
X24850000Y51583334D01*
X24983333Y51616667D01*
X25050000Y51650000D01*
X25083333Y51683334D01*
X25116666Y51750000D01*
X25116666Y51816667D01*
X25083333Y51883334D01*
X25050000Y51916667D01*
X24983333Y51950000D01*
X24850000Y51983334D01*
X24683333Y51983334D01*
X24550000Y51950000D01*
X24483333Y51916667D01*
X24450000Y51883334D01*
X24416666Y51816667D01*
X24416666Y51150000D02*
X24416666Y51083334D01*
X24450000Y51016667D01*
X24483333Y50983334D01*
X24550000Y50950000D01*
X24683333Y50916667D01*
X24850000Y50916667D01*
X24983333Y50950000D01*
X25050000Y50983334D01*
X25083333Y51016667D01*
X25116666Y51083334D01*
X25116666Y51150000D01*
X25083333Y51216667D01*
X25050000Y51250000D01*
X24983333Y51283334D01*
X24850000Y51316667D01*
X24683333Y51316667D01*
X24550000Y51283334D01*
X24483333Y51250000D01*
X24450000Y51216667D01*
X24416666Y51150000D01*
X25116666Y50616667D02*
X24416666Y50616667D01*
X24850000Y50550000D02*
X25116666Y50350000D01*
X24650000Y50350000D02*
X24916666Y50616667D01*
X4386000Y35797834D02*
X4619333Y36131167D01*
X4786000Y35797834D02*
X4786000Y36497834D01*
X4519333Y36497834D01*
X4452666Y36464500D01*
X4419333Y36431167D01*
X4386000Y36364500D01*
X4386000Y36264500D01*
X4419333Y36197834D01*
X4452666Y36164500D01*
X4519333Y36131167D01*
X4786000Y36131167D01*
X3719333Y35797834D02*
X4119333Y35797834D01*
X3919333Y35797834D02*
X3919333Y36497834D01*
X3986000Y36397834D01*
X4052666Y36331167D01*
X4119333Y36297834D01*
X3286000Y36497834D02*
X3219333Y36497834D01*
X3152666Y36464500D01*
X3119333Y36431167D01*
X3086000Y36364500D01*
X3052666Y36231167D01*
X3052666Y36064500D01*
X3086000Y35931167D01*
X3119333Y35864500D01*
X3152666Y35831167D01*
X3219333Y35797834D01*
X3286000Y35797834D01*
X3352666Y35831167D01*
X3386000Y35864500D01*
X3419333Y35931167D01*
X3452666Y36064500D01*
X3452666Y36231167D01*
X3419333Y36364500D01*
X3386000Y36431167D01*
X3352666Y36464500D01*
X3286000Y36497834D01*
X8083333Y34083334D02*
X8483333Y34083334D01*
X8283333Y34083334D02*
X8283333Y34783334D01*
X8350000Y34683334D01*
X8416666Y34616667D01*
X8483333Y34583334D01*
X7783333Y34083334D02*
X7783333Y34783334D01*
X7716666Y34350000D02*
X7516666Y34083334D01*
X7516666Y34550000D02*
X7783333Y34283334D01*
X25550000Y35783334D02*
X25783333Y36116667D01*
X25950000Y35783334D02*
X25950000Y36483334D01*
X25683333Y36483334D01*
X25616666Y36450000D01*
X25583333Y36416667D01*
X25550000Y36350000D01*
X25550000Y36250000D01*
X25583333Y36183334D01*
X25616666Y36150000D01*
X25683333Y36116667D01*
X25950000Y36116667D01*
X24883333Y35783334D02*
X25283333Y35783334D01*
X25083333Y35783334D02*
X25083333Y36483334D01*
X25150000Y36383334D01*
X25216666Y36316667D01*
X25283333Y36283334D01*
X24216666Y35783334D02*
X24616666Y35783334D01*
X24416666Y35783334D02*
X24416666Y36483334D01*
X24483333Y36383334D01*
X24550000Y36316667D01*
X24616666Y36283334D01*
X20983333Y34083334D02*
X21383333Y34083334D01*
X21183333Y34083334D02*
X21183333Y34783334D01*
X21250000Y34683334D01*
X21316666Y34616667D01*
X21383333Y34583334D01*
X20683333Y34083334D02*
X20683333Y34783334D01*
X20616666Y34350000D02*
X20416666Y34083334D01*
X20416666Y34550000D02*
X20683333Y34283334D01*
X7000000Y47483334D02*
X7400000Y47483334D01*
X7200000Y47483334D02*
X7200000Y48183334D01*
X7266666Y48083334D01*
X7333333Y48016667D01*
X7400000Y47983334D01*
X6700000Y47483334D02*
X6700000Y48183334D01*
X6300000Y47483334D01*
X6300000Y48183334D01*
X5666666Y47950000D02*
X5666666Y47483334D01*
X5833333Y48216667D02*
X6000000Y47716667D01*
X5566666Y47716667D01*
X4933333Y47483334D02*
X5333333Y47483334D01*
X5133333Y47483334D02*
X5133333Y48183334D01*
X5200000Y48083334D01*
X5266666Y48016667D01*
X5333333Y47983334D01*
X4333333Y47950000D02*
X4333333Y47483334D01*
X4500000Y48216667D02*
X4666666Y47716667D01*
X4233333Y47716667D01*
X3866666Y47883334D02*
X3933333Y47916667D01*
X3966666Y47950000D01*
X4000000Y48016667D01*
X4000000Y48050000D01*
X3966666Y48116667D01*
X3933333Y48150000D01*
X3866666Y48183334D01*
X3733333Y48183334D01*
X3666666Y48150000D01*
X3633333Y48116667D01*
X3600000Y48050000D01*
X3600000Y48016667D01*
X3633333Y47950000D01*
X3666666Y47916667D01*
X3733333Y47883334D01*
X3866666Y47883334D01*
X3933333Y47850000D01*
X3966666Y47816667D01*
X4000000Y47750000D01*
X4000000Y47616667D01*
X3966666Y47550000D01*
X3933333Y47516667D01*
X3866666Y47483334D01*
X3733333Y47483334D01*
X3666666Y47516667D01*
X3633333Y47550000D01*
X3600000Y47616667D01*
X3600000Y47750000D01*
X3633333Y47816667D01*
X3666666Y47850000D01*
X3733333Y47883334D01*
X9716666Y57283334D02*
X9483333Y56583334D01*
X9250000Y57283334D01*
X9016666Y56583334D02*
X9016666Y57283334D01*
X8850000Y57283334D01*
X8750000Y57250000D01*
X8683333Y57183334D01*
X8650000Y57116667D01*
X8616666Y56983334D01*
X8616666Y56883334D01*
X8650000Y56750000D01*
X8683333Y56683334D01*
X8750000Y56616667D01*
X8850000Y56583334D01*
X9016666Y56583334D01*
X7950000Y56583334D02*
X8350000Y56583334D01*
X8150000Y56583334D02*
X8150000Y57283334D01*
X8216666Y57183334D01*
X8283333Y57116667D01*
X8350000Y57083334D01*
X12000000Y50083334D02*
X12400000Y50083334D01*
X12200000Y50083334D02*
X12200000Y50783334D01*
X12266666Y50683334D01*
X12333333Y50616667D01*
X12400000Y50583334D01*
X11700000Y50083334D02*
X11700000Y50783334D01*
X11300000Y50083334D01*
X11300000Y50783334D01*
X10666666Y50550000D02*
X10666666Y50083334D01*
X10833333Y50816667D02*
X11000000Y50316667D01*
X10566666Y50316667D01*
X9933333Y50083334D02*
X10333333Y50083334D01*
X10133333Y50083334D02*
X10133333Y50783334D01*
X10200000Y50683334D01*
X10266666Y50616667D01*
X10333333Y50583334D01*
X9333333Y50550000D02*
X9333333Y50083334D01*
X9500000Y50816667D02*
X9666666Y50316667D01*
X9233333Y50316667D01*
X8866666Y50483334D02*
X8933333Y50516667D01*
X8966666Y50550000D01*
X9000000Y50616667D01*
X9000000Y50650000D01*
X8966666Y50716667D01*
X8933333Y50750000D01*
X8866666Y50783334D01*
X8733333Y50783334D01*
X8666666Y50750000D01*
X8633333Y50716667D01*
X8600000Y50650000D01*
X8600000Y50616667D01*
X8633333Y50550000D01*
X8666666Y50516667D01*
X8733333Y50483334D01*
X8866666Y50483334D01*
X8933333Y50450000D01*
X8966666Y50416667D01*
X9000000Y50350000D01*
X9000000Y50216667D01*
X8966666Y50150000D01*
X8933333Y50116667D01*
X8866666Y50083334D01*
X8733333Y50083334D01*
X8666666Y50116667D01*
X8633333Y50150000D01*
X8600000Y50216667D01*
X8600000Y50350000D01*
X8633333Y50416667D01*
X8666666Y50450000D01*
X8733333Y50483334D01*
X5816666Y58683334D02*
X5583333Y57983334D01*
X5350000Y58683334D01*
X5116666Y57983334D02*
X5116666Y58683334D01*
X4950000Y58683334D01*
X4850000Y58650000D01*
X4783333Y58583334D01*
X4750000Y58516667D01*
X4716666Y58383334D01*
X4716666Y58283334D01*
X4750000Y58150000D01*
X4783333Y58083334D01*
X4850000Y58016667D01*
X4950000Y57983334D01*
X5116666Y57983334D01*
X4116666Y58450000D02*
X4116666Y57983334D01*
X4283333Y58716667D02*
X4450000Y58216667D01*
X4016666Y58216667D01*
X17600000Y39783334D02*
X18000000Y39783334D01*
X17800000Y39783334D02*
X17800000Y40483334D01*
X17866666Y40383334D01*
X17933333Y40316667D01*
X18000000Y40283334D01*
X17300000Y39783334D02*
X17300000Y40483334D01*
X16900000Y39783334D01*
X16900000Y40483334D01*
X16266666Y40250000D02*
X16266666Y39783334D01*
X16433333Y40516667D02*
X16600000Y40016667D01*
X16166666Y40016667D01*
X15533333Y39783334D02*
X15933333Y39783334D01*
X15733333Y39783334D02*
X15733333Y40483334D01*
X15800000Y40383334D01*
X15866666Y40316667D01*
X15933333Y40283334D01*
X14933333Y40250000D02*
X14933333Y39783334D01*
X15100000Y40516667D02*
X15266666Y40016667D01*
X14833333Y40016667D01*
X14466666Y40183334D02*
X14533333Y40216667D01*
X14566666Y40250000D01*
X14600000Y40316667D01*
X14600000Y40350000D01*
X14566666Y40416667D01*
X14533333Y40450000D01*
X14466666Y40483334D01*
X14333333Y40483334D01*
X14266666Y40450000D01*
X14233333Y40416667D01*
X14200000Y40350000D01*
X14200000Y40316667D01*
X14233333Y40250000D01*
X14266666Y40216667D01*
X14333333Y40183334D01*
X14466666Y40183334D01*
X14533333Y40150000D01*
X14566666Y40116667D01*
X14600000Y40050000D01*
X14600000Y39916667D01*
X14566666Y39850000D01*
X14533333Y39816667D01*
X14466666Y39783334D01*
X14333333Y39783334D01*
X14266666Y39816667D01*
X14233333Y39850000D01*
X14200000Y39916667D01*
X14200000Y40050000D01*
X14233333Y40116667D01*
X14266666Y40150000D01*
X14333333Y40183334D01*
X16016666Y39483334D02*
X15783333Y38783334D01*
X15550000Y39483334D01*
X15316666Y38783334D02*
X15316666Y39483334D01*
X15150000Y39483334D01*
X15050000Y39450000D01*
X14983333Y39383334D01*
X14950000Y39316667D01*
X14916666Y39183334D01*
X14916666Y39083334D01*
X14950000Y38950000D01*
X14983333Y38883334D01*
X15050000Y38816667D01*
X15150000Y38783334D01*
X15316666Y38783334D01*
X14283333Y39483334D02*
X14616666Y39483334D01*
X14650000Y39150000D01*
X14616666Y39183334D01*
X14550000Y39216667D01*
X14383333Y39216667D01*
X14316666Y39183334D01*
X14283333Y39150000D01*
X14250000Y39083334D01*
X14250000Y38916667D01*
X14283333Y38850000D01*
X14316666Y38816667D01*
X14383333Y38783334D01*
X14550000Y38783334D01*
X14616666Y38816667D01*
X14650000Y38850000D01*
X17600000Y36983334D02*
X18000000Y36983334D01*
X17800000Y36983334D02*
X17800000Y37683334D01*
X17866666Y37583334D01*
X17933333Y37516667D01*
X18000000Y37483334D01*
X17300000Y36983334D02*
X17300000Y37683334D01*
X16900000Y36983334D01*
X16900000Y37683334D01*
X16266666Y37450000D02*
X16266666Y36983334D01*
X16433333Y37716667D02*
X16600000Y37216667D01*
X16166666Y37216667D01*
X15533333Y36983334D02*
X15933333Y36983334D01*
X15733333Y36983334D02*
X15733333Y37683334D01*
X15800000Y37583334D01*
X15866666Y37516667D01*
X15933333Y37483334D01*
X14933333Y37450000D02*
X14933333Y36983334D01*
X15100000Y37716667D02*
X15266666Y37216667D01*
X14833333Y37216667D01*
X14466666Y37383334D02*
X14533333Y37416667D01*
X14566666Y37450000D01*
X14600000Y37516667D01*
X14600000Y37550000D01*
X14566666Y37616667D01*
X14533333Y37650000D01*
X14466666Y37683334D01*
X14333333Y37683334D01*
X14266666Y37650000D01*
X14233333Y37616667D01*
X14200000Y37550000D01*
X14200000Y37516667D01*
X14233333Y37450000D01*
X14266666Y37416667D01*
X14333333Y37383334D01*
X14466666Y37383334D01*
X14533333Y37350000D01*
X14566666Y37316667D01*
X14600000Y37250000D01*
X14600000Y37116667D01*
X14566666Y37050000D01*
X14533333Y37016667D01*
X14466666Y36983334D01*
X14333333Y36983334D01*
X14266666Y37016667D01*
X14233333Y37050000D01*
X14200000Y37116667D01*
X14200000Y37250000D01*
X14233333Y37316667D01*
X14266666Y37350000D01*
X14333333Y37383334D01*
X15916666Y38583334D02*
X15683333Y37883334D01*
X15450000Y38583334D01*
X15216666Y37883334D02*
X15216666Y38583334D01*
X15050000Y38583334D01*
X14950000Y38550000D01*
X14883333Y38483334D01*
X14850000Y38416667D01*
X14816666Y38283334D01*
X14816666Y38183334D01*
X14850000Y38050000D01*
X14883333Y37983334D01*
X14950000Y37916667D01*
X15050000Y37883334D01*
X15216666Y37883334D01*
X14216666Y38583334D02*
X14350000Y38583334D01*
X14416666Y38550000D01*
X14450000Y38516667D01*
X14516666Y38416667D01*
X14550000Y38283334D01*
X14550000Y38016667D01*
X14516666Y37950000D01*
X14483333Y37916667D01*
X14416666Y37883334D01*
X14283333Y37883334D01*
X14216666Y37916667D01*
X14183333Y37950000D01*
X14150000Y38016667D01*
X14150000Y38183334D01*
X14183333Y38250000D01*
X14216666Y38283334D01*
X14283333Y38316667D01*
X14416666Y38316667D01*
X14483333Y38283334D01*
X14516666Y38250000D01*
X14550000Y38183334D01*
X16966666Y93550000D02*
X16733333Y93550000D01*
X16633333Y93183334D02*
X16966666Y93183334D01*
X16966666Y93883334D01*
X16633333Y93883334D01*
X15933333Y93183334D02*
X16166666Y93516667D01*
X16333333Y93183334D02*
X16333333Y93883334D01*
X16066666Y93883334D01*
X16000000Y93850000D01*
X15966666Y93816667D01*
X15933333Y93750000D01*
X15933333Y93650000D01*
X15966666Y93583334D01*
X16000000Y93550000D01*
X16066666Y93516667D01*
X16333333Y93516667D01*
X15400000Y93550000D02*
X15633333Y93550000D01*
X15633333Y93183334D02*
X15633333Y93883334D01*
X15300000Y93883334D01*
X15033333Y93450000D02*
X14500000Y93450000D01*
X13766666Y93183334D02*
X14000000Y93516667D01*
X14166666Y93183334D02*
X14166666Y93883334D01*
X13900000Y93883334D01*
X13833333Y93850000D01*
X13800000Y93816667D01*
X13766666Y93750000D01*
X13766666Y93650000D01*
X13800000Y93583334D01*
X13833333Y93550000D01*
X13900000Y93516667D01*
X14166666Y93516667D01*
X13233333Y93550000D02*
X13133333Y93516667D01*
X13100000Y93483334D01*
X13066666Y93416667D01*
X13066666Y93316667D01*
X13100000Y93250000D01*
X13133333Y93216667D01*
X13200000Y93183334D01*
X13466666Y93183334D01*
X13466666Y93883334D01*
X13233333Y93883334D01*
X13166666Y93850000D01*
X13133333Y93816667D01*
X13100000Y93750000D01*
X13100000Y93683334D01*
X13133333Y93616667D01*
X13166666Y93583334D01*
X13233333Y93550000D01*
X13466666Y93550000D01*
X12766666Y93450000D02*
X12233333Y93450000D01*
X11766666Y93883334D02*
X11699999Y93883334D01*
X11633333Y93850000D01*
X11599999Y93816667D01*
X11566666Y93750000D01*
X11533333Y93616667D01*
X11533333Y93450000D01*
X11566666Y93316667D01*
X11599999Y93250000D01*
X11633333Y93216667D01*
X11699999Y93183334D01*
X11766666Y93183334D01*
X11833333Y93216667D01*
X11866666Y93250000D01*
X11899999Y93316667D01*
X11933333Y93450000D01*
X11933333Y93616667D01*
X11899999Y93750000D01*
X11866666Y93816667D01*
X11833333Y93850000D01*
X11766666Y93883334D01*
X11199999Y93183334D02*
X11066666Y93183334D01*
X10999999Y93216667D01*
X10966666Y93250000D01*
X10899999Y93350000D01*
X10866666Y93483334D01*
X10866666Y93750000D01*
X10899999Y93816667D01*
X10933333Y93850000D01*
X10999999Y93883334D01*
X11133333Y93883334D01*
X11199999Y93850000D01*
X11233333Y93816667D01*
X11266666Y93750000D01*
X11266666Y93583334D01*
X11233333Y93516667D01*
X11199999Y93483334D01*
X11133333Y93450000D01*
X10999999Y93450000D01*
X10933333Y93483334D01*
X10899999Y93516667D01*
X10866666Y93583334D01*
X10433333Y93883334D02*
X10366666Y93883334D01*
X10299999Y93850000D01*
X10266666Y93816667D01*
X10233333Y93750000D01*
X10200000Y93616667D01*
X10200000Y93450000D01*
X10233333Y93316667D01*
X10266666Y93250000D01*
X10299999Y93216667D01*
X10366666Y93183334D01*
X10433333Y93183334D01*
X10499999Y93216667D01*
X10533333Y93250000D01*
X10566666Y93316667D01*
X10599999Y93450000D01*
X10599999Y93616667D01*
X10566666Y93750000D01*
X10533333Y93816667D01*
X10499999Y93850000D01*
X10433333Y93883334D01*
X9899999Y93450000D02*
X9366666Y93450000D01*
X9099999Y93883334D02*
X8666666Y93883334D01*
X8899999Y93616667D01*
X8799999Y93616667D01*
X8733333Y93583334D01*
X8699999Y93550000D01*
X8666666Y93483334D01*
X8666666Y93316667D01*
X8699999Y93250000D01*
X8733333Y93216667D01*
X8799999Y93183334D01*
X8999999Y93183334D01*
X9066666Y93216667D01*
X9099999Y93250000D01*
X8233333Y93883334D02*
X8166666Y93883334D01*
X8099999Y93850000D01*
X8066666Y93816667D01*
X8033333Y93750000D01*
X7999999Y93616667D01*
X7999999Y93450000D01*
X8033333Y93316667D01*
X8066666Y93250000D01*
X8099999Y93216667D01*
X8166666Y93183334D01*
X8233333Y93183334D01*
X8299999Y93216667D01*
X8333333Y93250000D01*
X8366666Y93316667D01*
X8399999Y93450000D01*
X8399999Y93616667D01*
X8366666Y93750000D01*
X8333333Y93816667D01*
X8299999Y93850000D01*
X8233333Y93883334D01*
X6816666Y97883334D02*
X6583333Y97183334D01*
X6350000Y97883334D01*
X5716666Y97183334D02*
X5950000Y97516667D01*
X6116666Y97183334D02*
X6116666Y97883334D01*
X5850000Y97883334D01*
X5783333Y97850000D01*
X5750000Y97816667D01*
X5716666Y97750000D01*
X5716666Y97650000D01*
X5750000Y97583334D01*
X5783333Y97550000D01*
X5850000Y97516667D01*
X6116666Y97516667D01*
X5450000Y97816667D02*
X5416666Y97850000D01*
X5350000Y97883334D01*
X5183333Y97883334D01*
X5116666Y97850000D01*
X5083333Y97816667D01*
X5050000Y97750000D01*
X5050000Y97683334D01*
X5083333Y97583334D01*
X5483333Y97183334D01*
X5050000Y97183334D01*
X14716666Y79283334D02*
X14250000Y78583334D01*
X14250000Y79283334D02*
X14716666Y78583334D01*
X13983333Y78583334D02*
X13983333Y79283334D01*
X13716666Y79283334D01*
X13650000Y79250000D01*
X13616666Y79216667D01*
X13583333Y79150000D01*
X13583333Y79050000D01*
X13616666Y78983334D01*
X13650000Y78950000D01*
X13716666Y78916667D01*
X13983333Y78916667D01*
X12916666Y78583334D02*
X13316666Y78583334D01*
X13116666Y78583334D02*
X13116666Y79283334D01*
X13183333Y79183334D01*
X13250000Y79116667D01*
X13316666Y79083334D01*
X25110333Y63583334D02*
X24710333Y63583334D01*
X24910333Y62883334D02*
X24910333Y63583334D01*
X24143666Y62883334D02*
X24477000Y62883334D01*
X24477000Y63583334D01*
X23777000Y63583334D02*
X23710333Y63583334D01*
X23643666Y63550000D01*
X23610333Y63516667D01*
X23577000Y63450000D01*
X23543666Y63316667D01*
X23543666Y63150000D01*
X23577000Y63016667D01*
X23610333Y62950000D01*
X23643666Y62916667D01*
X23710333Y62883334D01*
X23777000Y62883334D01*
X23843666Y62916667D01*
X23877000Y62950000D01*
X23910333Y63016667D01*
X23943666Y63150000D01*
X23943666Y63316667D01*
X23910333Y63450000D01*
X23877000Y63516667D01*
X23843666Y63550000D01*
X23777000Y63583334D01*
X23310333Y63583334D02*
X22843666Y63583334D01*
X23143666Y62883334D01*
X22610333Y63516667D02*
X22577000Y63550000D01*
X22510333Y63583334D01*
X22343666Y63583334D01*
X22277000Y63550000D01*
X22243666Y63516667D01*
X22210333Y63450000D01*
X22210333Y63383334D01*
X22243666Y63283334D01*
X22643666Y62883334D01*
X22210333Y62883334D01*
X20016666Y68683334D02*
X20016666Y69383334D01*
X19850000Y69383334D01*
X19750000Y69350000D01*
X19683333Y69283334D01*
X19650000Y69216667D01*
X19616666Y69083334D01*
X19616666Y68983334D01*
X19650000Y68850000D01*
X19683333Y68783334D01*
X19750000Y68716667D01*
X19850000Y68683334D01*
X20016666Y68683334D01*
X19350000Y68883334D02*
X19016666Y68883334D01*
X19416666Y68683334D02*
X19183333Y69383334D01*
X18950000Y68683334D01*
X18350000Y68683334D02*
X18750000Y68683334D01*
X18550000Y68683334D02*
X18550000Y69383334D01*
X18616666Y69283334D01*
X18683333Y69216667D01*
X18750000Y69183334D01*
X23816666Y100250000D02*
X23816666Y100650000D01*
X23816666Y100450000D02*
X23116666Y100450000D01*
X23216666Y100516667D01*
X23283333Y100583334D01*
X23316666Y100650000D01*
X23116666Y99816667D02*
X23116666Y99750000D01*
X23150000Y99683334D01*
X23183333Y99650000D01*
X23250000Y99616667D01*
X23383333Y99583334D01*
X23550000Y99583334D01*
X23683333Y99616667D01*
X23750000Y99650000D01*
X23783333Y99683334D01*
X23816666Y99750000D01*
X23816666Y99816667D01*
X23783333Y99883334D01*
X23750000Y99916667D01*
X23683333Y99950000D01*
X23550000Y99983334D01*
X23383333Y99983334D01*
X23250000Y99950000D01*
X23183333Y99916667D01*
X23150000Y99883334D01*
X23116666Y99816667D01*
X23116666Y99150000D02*
X23116666Y99083334D01*
X23150000Y99016667D01*
X23183333Y98983334D01*
X23250000Y98950000D01*
X23383333Y98916667D01*
X23550000Y98916667D01*
X23683333Y98950000D01*
X23750000Y98983334D01*
X23783333Y99016667D01*
X23816666Y99083334D01*
X23816666Y99150000D01*
X23783333Y99216667D01*
X23750000Y99250000D01*
X23683333Y99283334D01*
X23550000Y99316667D01*
X23383333Y99316667D01*
X23250000Y99283334D01*
X23183333Y99250000D01*
X23150000Y99216667D01*
X23116666Y99150000D01*
X23350000Y98316667D02*
X23816666Y98316667D01*
X23350000Y98616667D02*
X23716666Y98616667D01*
X23783333Y98583334D01*
X23816666Y98516667D01*
X23816666Y98416667D01*
X23783333Y98350000D01*
X23750000Y98316667D01*
X23816666Y97983334D02*
X23116666Y97983334D01*
X23450000Y97983334D02*
X23450000Y97583334D01*
X23816666Y97583334D02*
X23116666Y97583334D01*
X21716666Y94283334D02*
X22050000Y94283334D01*
X22050000Y94983334D01*
X21116666Y94283334D02*
X21516666Y94283334D01*
X21316666Y94283334D02*
X21316666Y94983334D01*
X21383333Y94883334D01*
X21450000Y94816667D01*
X21516666Y94783334D01*
X26916666Y100250000D02*
X26916666Y100650000D01*
X26916666Y100450000D02*
X26216666Y100450000D01*
X26316666Y100516667D01*
X26383333Y100583334D01*
X26416666Y100650000D01*
X26216666Y99816667D02*
X26216666Y99750000D01*
X26250000Y99683334D01*
X26283333Y99650000D01*
X26350000Y99616667D01*
X26483333Y99583334D01*
X26650000Y99583334D01*
X26783333Y99616667D01*
X26850000Y99650000D01*
X26883333Y99683334D01*
X26916666Y99750000D01*
X26916666Y99816667D01*
X26883333Y99883334D01*
X26850000Y99916667D01*
X26783333Y99950000D01*
X26650000Y99983334D01*
X26483333Y99983334D01*
X26350000Y99950000D01*
X26283333Y99916667D01*
X26250000Y99883334D01*
X26216666Y99816667D01*
X26216666Y99150000D02*
X26216666Y99083334D01*
X26250000Y99016667D01*
X26283333Y98983334D01*
X26350000Y98950000D01*
X26483333Y98916667D01*
X26650000Y98916667D01*
X26783333Y98950000D01*
X26850000Y98983334D01*
X26883333Y99016667D01*
X26916666Y99083334D01*
X26916666Y99150000D01*
X26883333Y99216667D01*
X26850000Y99250000D01*
X26783333Y99283334D01*
X26650000Y99316667D01*
X26483333Y99316667D01*
X26350000Y99283334D01*
X26283333Y99250000D01*
X26250000Y99216667D01*
X26216666Y99150000D01*
X26450000Y98316667D02*
X26916666Y98316667D01*
X26450000Y98616667D02*
X26816666Y98616667D01*
X26883333Y98583334D01*
X26916666Y98516667D01*
X26916666Y98416667D01*
X26883333Y98350000D01*
X26850000Y98316667D01*
X26916666Y97983334D02*
X26216666Y97983334D01*
X26550000Y97983334D02*
X26550000Y97583334D01*
X26916666Y97583334D02*
X26216666Y97583334D01*
X28116666Y92583334D02*
X28450000Y92583334D01*
X28450000Y93283334D01*
X27916666Y93216667D02*
X27883333Y93250000D01*
X27816666Y93283334D01*
X27650000Y93283334D01*
X27583333Y93250000D01*
X27550000Y93216667D01*
X27516666Y93150000D01*
X27516666Y93083334D01*
X27550000Y92983334D01*
X27950000Y92583334D01*
X27516666Y92583334D01*
M02*
