G04 #@! TF.FileFunction,Copper,L2,Bot,Signal*
%FSLAX46Y46*%
G04 Gerber Fmt 4.6, Leading zero omitted, Abs format (unit mm)*
G04 Created by KiCad (PCBNEW (2016-08-20 BZR 7083)-product) date Thu Dec  8 21:02:35 2016*
%MOMM*%
%LPD*%
G01*
G04 APERTURE LIST*
%ADD10C,0.100000*%
%ADD11C,2.000000*%
%ADD12C,1.600000*%
%ADD13C,1.200000*%
%ADD14R,1.400000X1.400000*%
%ADD15C,1.400000*%
%ADD16O,2.000000X3.000000*%
%ADD17R,1.600000X1.600000*%
%ADD18R,1.600000X2.200000*%
%ADD19O,1.600000X2.200000*%
%ADD20C,0.900000*%
%ADD21C,0.500000*%
%ADD22C,0.300000*%
G04 APERTURE END LIST*
D10*
D11*
X5000000Y20698000D03*
X5000000Y28826000D03*
X5000000Y17650000D03*
X20850000Y104200000D03*
X8150000Y104200000D03*
X8150000Y101100000D03*
X20850000Y101100000D03*
D12*
X2850000Y90650000D03*
X1950000Y95750000D03*
D13*
X7240000Y78300000D03*
X2160000Y78300000D03*
X8100000Y67060000D03*
X8100000Y72140000D03*
X7240000Y45900000D03*
X2160000Y45900000D03*
D14*
X23650000Y87100000D03*
D15*
X26150000Y87100000D03*
D14*
X23650000Y80500000D03*
D15*
X26150000Y80500000D03*
D13*
X21760000Y91500000D03*
X26840000Y91500000D03*
X22260000Y76000000D03*
X27340000Y76000000D03*
X21900000Y56740000D03*
X21900000Y51660000D03*
X22260000Y69800000D03*
X27340000Y69800000D03*
D16*
X19500000Y97000000D03*
X9500000Y97000000D03*
D12*
X17000000Y90000000D03*
X14500000Y90000000D03*
X12000000Y90000000D03*
D16*
X19500000Y75000000D03*
X9500000Y75000000D03*
D12*
X17000000Y68000000D03*
X14500000Y68000000D03*
X12000000Y68000000D03*
D16*
X19500000Y53000000D03*
X9500000Y53000000D03*
D12*
X17000000Y46000000D03*
X14500000Y46000000D03*
X12000000Y46000000D03*
D11*
X2200000Y75900000D03*
X2200000Y65900000D03*
X5400000Y75900000D03*
X5400000Y65900000D03*
X2200000Y48100000D03*
X2200000Y58100000D03*
X16800000Y63500000D03*
X6800000Y63500000D03*
X6800000Y59800000D03*
X16800000Y59800000D03*
X24800000Y56500000D03*
X24800000Y46500000D03*
X13000000Y34400000D03*
X3000000Y34400000D03*
X15900000Y34400000D03*
X25900000Y34400000D03*
D12*
X7000000Y56900000D03*
X7000000Y49300000D03*
X4800000Y49300000D03*
X4800000Y56900000D03*
X13000000Y39500000D03*
X5400000Y39500000D03*
X5400000Y37300000D03*
X13000000Y37300000D03*
X6550000Y90650000D03*
X5650000Y95750000D03*
D17*
X15680000Y82930000D03*
D12*
X15680000Y85470000D03*
X13140000Y82930000D03*
X13140000Y85470000D03*
X10600000Y82930000D03*
X10600000Y85470000D03*
X8060000Y82930000D03*
X8060000Y85470000D03*
X5520000Y82930000D03*
X5520000Y85470000D03*
D11*
X14500000Y20698000D03*
X14500000Y28826000D03*
X14500000Y17650000D03*
X24000000Y20698000D03*
X24000000Y28826000D03*
X24000000Y17650000D03*
X7000000Y5698000D03*
X7000000Y13826000D03*
X7000000Y2650000D03*
X22000000Y5698000D03*
X22000000Y13826000D03*
X22000000Y2650000D03*
D18*
X19690000Y67010000D03*
D19*
X22230000Y67010000D03*
X24770000Y67010000D03*
X27310000Y67010000D03*
X27310000Y59390000D03*
X24770000Y59390000D03*
X22230000Y59390000D03*
X19690000Y59390000D03*
D11*
X23500000Y104180000D03*
X23500000Y94020000D03*
X26600000Y104180000D03*
X26600000Y94020000D03*
D20*
X19690000Y63490000D03*
X4000000Y30600000D03*
X24600000Y38600000D03*
X23900000Y31100000D03*
X14700000Y42900000D03*
X15100000Y36800000D03*
X1100000Y28200000D03*
X2300000Y37400000D03*
X5400000Y34900000D03*
X6500000Y44600000D03*
X7400000Y40900000D03*
X17700000Y33200000D03*
X24100000Y26900000D03*
X13200000Y32300000D03*
X14500000Y26800000D03*
X9500000Y35300000D03*
X6400000Y31900000D03*
X4400000Y27000000D03*
X12200000Y98100000D03*
X4800000Y79900000D03*
X1500000Y88800000D03*
X4500000Y93400000D03*
X14600000Y75000000D03*
X25300000Y74400000D03*
X27300000Y64800000D03*
X15600000Y57600000D03*
X12600000Y50700000D03*
X13200000Y58700000D03*
X19000000Y40800000D03*
X23000000Y44500000D03*
X27200000Y55000000D03*
X26800000Y49800000D03*
X27900000Y39400000D03*
X27900000Y23700000D03*
X27900000Y18300000D03*
X24400000Y15000000D03*
X27500000Y1500000D03*
X21800000Y9100000D03*
X18900000Y14600000D03*
X10900000Y14000000D03*
X14400000Y6500000D03*
X18400000Y1300000D03*
X11100000Y1300000D03*
X4900000Y15300000D03*
X1900000Y8900000D03*
X1500000Y1400000D03*
X3900000Y64600000D03*
X4600000Y58800000D03*
X1600000Y50600000D03*
X5700000Y55200000D03*
X1500000Y56000000D03*
X8900000Y69000000D03*
X3900000Y67700000D03*
X1600000Y73500000D03*
X20800000Y87500000D03*
X27700000Y102400000D03*
X27400000Y96400000D03*
X15800000Y104800000D03*
X19100000Y102700000D03*
X1100000Y99000000D03*
X2000000Y103900000D03*
X22000000Y55200000D03*
X15900000Y34400000D03*
X19300000Y37800000D03*
X11500000Y60100000D03*
X10400000Y68000000D03*
X14400000Y60200000D03*
D21*
X14500000Y90000000D02*
X17800000Y86700000D01*
X14700000Y78300000D02*
X7240000Y78300000D01*
X17800000Y81400000D02*
X14700000Y78300000D01*
X17800000Y86700000D02*
X17800000Y81400000D01*
X2200000Y75900000D02*
X2200000Y78260000D01*
X14500000Y68000000D02*
X13000000Y66500000D01*
X9640000Y67060000D02*
X8100000Y67060000D01*
X10200000Y66500000D02*
X9640000Y67060000D01*
X13000000Y66500000D02*
X10200000Y66500000D01*
X8100000Y72140000D02*
X6260000Y72140000D01*
X5400000Y73000000D02*
X5400000Y75900000D01*
X6260000Y72140000D02*
X5400000Y73000000D01*
X2200000Y48100000D02*
X2200000Y45940000D01*
X5400000Y37300000D02*
X4000000Y38700000D01*
X4800000Y47500000D02*
X4800000Y49300000D01*
X4000000Y46700000D02*
X4800000Y47500000D01*
X4000000Y38700000D02*
X4000000Y46700000D01*
X19000000Y63500000D02*
X19700000Y63500000D01*
X17500000Y62000000D02*
X19000000Y63500000D01*
X19700000Y63500000D02*
X22000000Y63500000D01*
X23650000Y84550000D02*
X21900000Y82800000D01*
X21900000Y82800000D02*
X21900000Y79400000D01*
X21900000Y79400000D02*
X23500000Y77800000D01*
X23500000Y77800000D02*
X23500000Y65000000D01*
X23650000Y87100000D02*
X23650000Y84550000D01*
X22000000Y63500000D02*
X23500000Y65000000D01*
X4800000Y52600000D02*
X4800000Y49300000D01*
X9400000Y57200000D02*
X4800000Y52600000D01*
X9400000Y61100000D02*
X9400000Y57200000D01*
X10300000Y62000000D02*
X9400000Y61100000D01*
X17500000Y62000000D02*
X10300000Y62000000D01*
X18000000Y62500000D02*
X17500000Y62000000D01*
X23650000Y87100000D02*
X23650000Y89610000D01*
X23650000Y89610000D02*
X21760000Y91500000D01*
X19690000Y59390000D02*
X19690000Y57610000D01*
X20560000Y56740000D02*
X21900000Y56740000D01*
X19690000Y57610000D02*
X20560000Y56740000D01*
X23500000Y94020000D02*
X21760000Y92280000D01*
X21760000Y92280000D02*
X21760000Y91500000D01*
D22*
X5400000Y34900000D02*
X5400000Y34200000D01*
X4000000Y32800000D02*
X4000000Y30600000D01*
X5400000Y34200000D02*
X4000000Y32800000D01*
X15100000Y42500000D02*
X14700000Y42900000D01*
X15100000Y36800000D02*
X15100000Y42500000D01*
X5400000Y34900000D02*
X7400000Y36900000D01*
X1100000Y28200000D02*
X1100000Y36200000D01*
X1100000Y36200000D02*
X2300000Y37400000D01*
X7400000Y36900000D02*
X7400000Y40900000D01*
X17700000Y33200000D02*
X16800000Y32300000D01*
X16800000Y32300000D02*
X13200000Y32300000D01*
X9500000Y35000000D02*
X9500000Y35300000D01*
X6400000Y31900000D02*
X9500000Y35000000D01*
X14500000Y26800000D02*
X4600000Y26800000D01*
X14500000Y20698000D02*
X14500000Y26800000D01*
X4600000Y26800000D02*
X4400000Y27000000D01*
X9500000Y97000000D02*
X11100000Y97000000D01*
X11100000Y97000000D02*
X12200000Y98100000D01*
X9500000Y97000000D02*
X10300000Y96200000D01*
X10300000Y96200000D02*
X11100000Y96200000D01*
X9500000Y97000000D02*
X9500000Y97400000D01*
X9500000Y97400000D02*
X10700000Y98600000D01*
X5030000Y79900000D02*
X4800000Y79900000D01*
X8060000Y82930000D02*
X5030000Y79900000D01*
X12000000Y68000000D02*
X14600000Y70600000D01*
X14600000Y70600000D02*
X14600000Y75000000D01*
X27310000Y59390000D02*
X27310000Y64790000D01*
X16900000Y53000000D02*
X15600000Y54300000D01*
X15600000Y54300000D02*
X15600000Y57600000D01*
X19500000Y53000000D02*
X16900000Y53000000D01*
X13200000Y51300000D02*
X12600000Y50700000D01*
X13200000Y58700000D02*
X13200000Y51300000D01*
X22700000Y44500000D02*
X19000000Y40800000D01*
X23000000Y44500000D02*
X22700000Y44500000D01*
X21800000Y9100000D02*
X24400000Y11700000D01*
X27900000Y48700000D02*
X26800000Y49800000D01*
X27900000Y39400000D02*
X27900000Y48700000D01*
X27900000Y18300000D02*
X27900000Y23700000D01*
X24400000Y11700000D02*
X24400000Y15000000D01*
X18900000Y12000000D02*
X21800000Y9100000D01*
X18900000Y14600000D02*
X18900000Y12000000D01*
X14400000Y10500000D02*
X10900000Y14000000D01*
X14400000Y6500000D02*
X14400000Y10500000D01*
X11100000Y1300000D02*
X18400000Y1300000D01*
X1900000Y12300000D02*
X4900000Y15300000D01*
X1900000Y8900000D02*
X1900000Y12300000D01*
X7000000Y2650000D02*
X5750000Y1400000D01*
X5750000Y1400000D02*
X1500000Y1400000D01*
X3900000Y64600000D02*
X3900000Y59500000D01*
X3900000Y59500000D02*
X4600000Y58800000D01*
X2300000Y55200000D02*
X5700000Y55200000D01*
X1500000Y56000000D02*
X2300000Y55200000D01*
X3900000Y71200000D02*
X3900000Y67700000D01*
X1600000Y73500000D02*
X3900000Y71200000D01*
X19500000Y75000000D02*
X19500000Y78800000D01*
X20800000Y80100000D02*
X20800000Y87500000D01*
X19500000Y78800000D02*
X20800000Y80100000D01*
X19500000Y97000000D02*
X26800000Y97000000D01*
X26800000Y97000000D02*
X27400000Y96400000D01*
X8150000Y104200000D02*
X7050000Y105300000D01*
X3400000Y105300000D02*
X2000000Y103900000D01*
X7050000Y105300000D02*
X3400000Y105300000D01*
D21*
X5400000Y39500000D02*
X5400000Y46000000D01*
X7000000Y47600000D02*
X7000000Y49300000D01*
X5400000Y46000000D02*
X7000000Y47600000D01*
X19100001Y62399999D02*
X22699999Y62399999D01*
X22699999Y62399999D02*
X27310000Y67010000D01*
X18000000Y61299998D02*
X19100001Y62399999D01*
X7000000Y53810048D02*
X7000000Y49300000D01*
X10200000Y57010048D02*
X7000000Y53810048D01*
X10200000Y60500000D02*
X10200000Y57010048D01*
X10999998Y61299998D02*
X10200000Y60500000D01*
X18000000Y61299998D02*
X10999998Y61299998D01*
X27340000Y69800000D02*
X27340000Y67040000D01*
X27340000Y76000000D02*
X27340000Y69800000D01*
X26150000Y80500000D02*
X26150000Y77190000D01*
X26150000Y77190000D02*
X27340000Y76000000D01*
X26600000Y94020000D02*
X25300000Y92720000D01*
X26150000Y82750000D02*
X26150000Y80500000D01*
X27700000Y84300000D02*
X26150000Y82750000D01*
X27700000Y88200000D02*
X27700000Y84300000D01*
X25300000Y90600000D02*
X27700000Y88200000D01*
X25300000Y92720000D02*
X25300000Y90600000D01*
X6800000Y63500000D02*
X6800000Y59800000D01*
X19690000Y67010000D02*
X18510000Y67010000D01*
X8900000Y65600000D02*
X6800000Y63500000D01*
X17100000Y65600000D02*
X8900000Y65600000D01*
X18510000Y67010000D02*
X17100000Y65600000D01*
X16800000Y63500000D02*
X18200000Y64900000D01*
X22230000Y65630000D02*
X22230000Y67010000D01*
X21500000Y64900000D02*
X22230000Y65630000D01*
X18200000Y64900000D02*
X21500000Y64900000D01*
X7000000Y56900000D02*
X8500000Y58400000D01*
X9500000Y63500000D02*
X16800000Y63500000D01*
X8500000Y62500000D02*
X9500000Y63500000D01*
X8500000Y58400000D02*
X8500000Y62500000D01*
X4800000Y56900000D02*
X3400000Y56900000D01*
X3400000Y56900000D02*
X2200000Y58100000D01*
X2200000Y65900000D02*
X2200000Y58100000D01*
X2200000Y65900000D02*
X5400000Y65900000D01*
X7000000Y56900000D02*
X4800000Y56900000D01*
X16800000Y59800000D02*
X17700000Y59800000D01*
X17700000Y59800000D02*
X19200000Y61300000D01*
X24770000Y60830000D02*
X24770000Y59390000D01*
X24300000Y61300000D02*
X24770000Y60830000D01*
X19200000Y61300000D02*
X24300000Y61300000D01*
X16800000Y59800000D02*
X16800000Y58000000D01*
X19600000Y55200000D02*
X22000000Y55200000D01*
X16800000Y58000000D02*
X19600000Y55200000D01*
X24770000Y59390000D02*
X24770000Y56530000D01*
X24800000Y43300000D02*
X24800000Y46500000D01*
X19300000Y37800000D02*
X24800000Y43300000D01*
X13000000Y34400000D02*
X15900000Y34400000D01*
X13000000Y37300000D02*
X13000000Y34400000D01*
X13000000Y39500000D02*
X13000000Y37300000D01*
X22230000Y59390000D02*
X23100000Y58520000D01*
X23100000Y58520000D02*
X23100000Y54700000D01*
X23100000Y54700000D02*
X24800000Y53000000D01*
X24800000Y53000000D02*
X24800000Y46500000D01*
X20850000Y104200000D02*
X23480000Y104200000D01*
X1950000Y95750000D02*
X1950000Y97850000D01*
X17100000Y104200000D02*
X20850000Y104200000D01*
X12400000Y99500000D02*
X17100000Y104200000D01*
X3600000Y99500000D02*
X12400000Y99500000D01*
X1950000Y97850000D02*
X3600000Y99500000D01*
X20850000Y101100000D02*
X23520000Y101100000D01*
X23520000Y101100000D02*
X26600000Y104180000D01*
X5650000Y95750000D02*
X7100000Y94300000D01*
X17200000Y101100000D02*
X20850000Y101100000D01*
X10400000Y94300000D02*
X17200000Y101100000D01*
X7100000Y94300000D02*
X10400000Y94300000D01*
X5000000Y28826000D02*
X5000000Y32500000D01*
X18900000Y88100000D02*
X17000000Y90000000D01*
X11500000Y50800000D02*
X8700000Y48000000D01*
X10400000Y72500000D02*
X10400000Y68000000D01*
X18900000Y81000000D02*
X10400000Y72500000D01*
X18900000Y88100000D02*
X18900000Y81000000D01*
X11500000Y50800000D02*
X11500000Y60100000D01*
X8700000Y36200000D02*
X8700000Y48000000D01*
X5000000Y32500000D02*
X8700000Y36200000D01*
X10500000Y47300000D02*
X10500000Y32826000D01*
X14400000Y51200000D02*
X10500000Y47300000D01*
X14400000Y60200000D02*
X14400000Y51200000D01*
X10500000Y32826000D02*
X14500000Y28826000D01*
X24000000Y28826000D02*
X17000000Y35826000D01*
X17000000Y35826000D02*
X17000000Y46000000D01*
X3000000Y34400000D02*
X3000000Y26500000D01*
X7000000Y22500000D02*
X7000000Y13826000D01*
X3000000Y26500000D02*
X7000000Y22500000D01*
X25900000Y34400000D02*
X25900000Y26800000D01*
X22000000Y22900000D02*
X22000000Y13826000D01*
X25900000Y26800000D02*
X22000000Y22900000D01*
X5520000Y85470000D02*
X5520000Y87980000D01*
X5520000Y87980000D02*
X2850000Y90650000D01*
X5520000Y82930000D02*
X5520000Y85470000D01*
X15680000Y85470000D02*
X15680000Y82930000D01*
X6550000Y90650000D02*
X6550000Y89050000D01*
X15680000Y86720000D02*
X15680000Y85470000D01*
X14700000Y87700000D02*
X15680000Y86720000D01*
X7900000Y87700000D02*
X14700000Y87700000D01*
X6550000Y89050000D02*
X7900000Y87700000D01*
D22*
G36*
X7360285Y105471471D02*
X7277524Y105416173D01*
X7180747Y105181981D01*
X8150000Y104212728D01*
X9119253Y105181981D01*
X9022476Y105416173D01*
X8782629Y105525000D01*
X16450000Y105525000D01*
X16450000Y104469239D01*
X12130762Y100150000D01*
X9178572Y100150000D01*
X9366173Y100227524D01*
X9607479Y100759346D01*
X9626898Y101343030D01*
X9421471Y101889715D01*
X9366173Y101972476D01*
X9131981Y102069253D01*
X8162728Y101100000D01*
X8176870Y101085858D01*
X8164142Y101073130D01*
X8150000Y101087272D01*
X8135858Y101073130D01*
X8123130Y101085858D01*
X8137272Y101100000D01*
X7168019Y102069253D01*
X6933827Y101972476D01*
X6692521Y101440654D01*
X6673102Y100856970D01*
X6878529Y100310285D01*
X6933827Y100227524D01*
X7121428Y100150000D01*
X3600000Y100150000D01*
X3351256Y100100522D01*
X3351254Y100100521D01*
X3351255Y100100521D01*
X3140380Y99959619D01*
X1490381Y98309619D01*
X1349478Y98098745D01*
X1349478Y98098744D01*
X1300000Y97850000D01*
X1300000Y96779826D01*
X1271143Y96767903D01*
X933283Y96430633D01*
X750209Y95989742D01*
X749793Y95512353D01*
X932097Y95071143D01*
X1269367Y94733283D01*
X1710258Y94550209D01*
X2187647Y94549793D01*
X2628857Y94732097D01*
X2966717Y95069367D01*
X3149791Y95510258D01*
X3150207Y95987647D01*
X2967903Y96428857D01*
X2630633Y96766717D01*
X2600000Y96779437D01*
X2600000Y96991000D01*
X8032000Y96991000D01*
X8032000Y96491000D01*
X8147189Y95929906D01*
X8468331Y95455603D01*
X8946536Y95140300D01*
X9261469Y95051509D01*
X9491000Y95149030D01*
X9491000Y96991000D01*
X9509000Y96991000D01*
X9509000Y95149030D01*
X9738531Y95051509D01*
X10053464Y95140300D01*
X10531669Y95455603D01*
X10852811Y95929906D01*
X10968000Y96491000D01*
X10968000Y96991000D01*
X9509000Y96991000D01*
X9491000Y96991000D01*
X8032000Y96991000D01*
X2600000Y96991000D01*
X2600000Y97580762D01*
X3869239Y98850000D01*
X8931824Y98850000D01*
X8468331Y98544397D01*
X8147189Y98070094D01*
X8032000Y97509000D01*
X8032000Y97009000D01*
X9491000Y97009000D01*
X9491000Y97029000D01*
X9509000Y97029000D01*
X9509000Y97009000D01*
X10968000Y97009000D01*
X10968000Y97509000D01*
X10852811Y98070094D01*
X10531669Y98544397D01*
X10068176Y98850000D01*
X12400000Y98850000D01*
X12607476Y98891269D01*
X12648745Y98899478D01*
X12859619Y99040381D01*
X17369239Y103550000D01*
X19603772Y103550000D01*
X19662445Y103408000D01*
X19853337Y103216775D01*
X19850000Y103200000D01*
X19850000Y102079918D01*
X19663830Y101894072D01*
X19604006Y101750000D01*
X17200000Y101750000D01*
X16992524Y101708731D01*
X16951255Y101700522D01*
X16740380Y101559619D01*
X10130762Y94950000D01*
X7369239Y94950000D01*
X6837817Y95481421D01*
X6849791Y95510258D01*
X6850207Y95987647D01*
X6667903Y96428857D01*
X6330633Y96766717D01*
X5889742Y96949791D01*
X5412353Y96950207D01*
X4971143Y96767903D01*
X4633283Y96430633D01*
X4450209Y95989742D01*
X4449793Y95512353D01*
X4632097Y95071143D01*
X4969367Y94733283D01*
X5410258Y94550209D01*
X5887647Y94549793D01*
X5918302Y94562459D01*
X6640381Y93840380D01*
X6743833Y93771256D01*
X6851256Y93699478D01*
X7100000Y93650000D01*
X10400000Y93650000D01*
X10607476Y93691269D01*
X10648745Y93699478D01*
X10859619Y93840381D01*
X14010238Y96991000D01*
X18032000Y96991000D01*
X18032000Y96491000D01*
X18147189Y95929906D01*
X18468331Y95455603D01*
X18946536Y95140300D01*
X19261469Y95051509D01*
X19491000Y95149030D01*
X19491000Y96991000D01*
X19509000Y96991000D01*
X19509000Y95149030D01*
X19738531Y95051509D01*
X20053464Y95140300D01*
X20531669Y95455603D01*
X20852811Y95929906D01*
X20968000Y96491000D01*
X20968000Y96991000D01*
X19509000Y96991000D01*
X19491000Y96991000D01*
X18032000Y96991000D01*
X14010238Y96991000D01*
X14528238Y97509000D01*
X18032000Y97509000D01*
X18032000Y97009000D01*
X19491000Y97009000D01*
X19491000Y98850970D01*
X19509000Y98850970D01*
X19509000Y97009000D01*
X20968000Y97009000D01*
X20968000Y97509000D01*
X20852811Y98070094D01*
X20531669Y98544397D01*
X20053464Y98859700D01*
X19738531Y98948491D01*
X19509000Y98850970D01*
X19491000Y98850970D01*
X19261469Y98948491D01*
X18946536Y98859700D01*
X18468331Y98544397D01*
X18147189Y98070094D01*
X18032000Y97509000D01*
X14528238Y97509000D01*
X17469239Y100450000D01*
X19603772Y100450000D01*
X19662445Y100308000D01*
X20055928Y99913830D01*
X20570301Y99700243D01*
X21127256Y99699757D01*
X21642000Y99912445D01*
X22036170Y100305928D01*
X22095994Y100450000D01*
X23520000Y100450000D01*
X23727476Y100491269D01*
X23768745Y100499478D01*
X23979619Y100640381D01*
X26178403Y102839164D01*
X26320301Y102780243D01*
X26877256Y102779757D01*
X27392000Y102992445D01*
X27449655Y103050000D01*
X28525000Y103050000D01*
X28525000Y59955906D01*
X28478035Y60183558D01*
X28200247Y60592976D01*
X27786927Y60864924D01*
X27517243Y60940949D01*
X27319000Y60840965D01*
X27319000Y59399000D01*
X27339000Y59399000D01*
X27339000Y59381000D01*
X27319000Y59381000D01*
X27319000Y57939035D01*
X27517243Y57839051D01*
X27786927Y57915076D01*
X28200247Y58187024D01*
X28478035Y58596442D01*
X28525000Y58824094D01*
X28525000Y475000D01*
X475000Y475000D01*
X475000Y1668019D01*
X6030747Y1668019D01*
X6127524Y1433827D01*
X6659346Y1192521D01*
X7243030Y1173102D01*
X7789715Y1378529D01*
X7872476Y1433827D01*
X7969253Y1668019D01*
X21030747Y1668019D01*
X21127524Y1433827D01*
X21659346Y1192521D01*
X22243030Y1173102D01*
X22789715Y1378529D01*
X22872476Y1433827D01*
X22969253Y1668019D01*
X22000000Y2637272D01*
X21030747Y1668019D01*
X7969253Y1668019D01*
X7000000Y2637272D01*
X6030747Y1668019D01*
X475000Y1668019D01*
X475000Y2406970D01*
X5523102Y2406970D01*
X5728529Y1860285D01*
X5783827Y1777524D01*
X6018019Y1680747D01*
X6987272Y2650000D01*
X7012728Y2650000D01*
X7981981Y1680747D01*
X8216173Y1777524D01*
X8457479Y2309346D01*
X8460726Y2406970D01*
X20523102Y2406970D01*
X20728529Y1860285D01*
X20783827Y1777524D01*
X21018019Y1680747D01*
X21987272Y2650000D01*
X22012728Y2650000D01*
X22981981Y1680747D01*
X23216173Y1777524D01*
X23457479Y2309346D01*
X23476898Y2893030D01*
X23271471Y3439715D01*
X23216173Y3522476D01*
X22981981Y3619253D01*
X22012728Y2650000D01*
X21987272Y2650000D01*
X21018019Y3619253D01*
X20783827Y3522476D01*
X20542521Y2990654D01*
X20523102Y2406970D01*
X8460726Y2406970D01*
X8476898Y2893030D01*
X8271471Y3439715D01*
X8216173Y3522476D01*
X7981981Y3619253D01*
X7012728Y2650000D01*
X6987272Y2650000D01*
X6018019Y3619253D01*
X5783827Y3522476D01*
X5542521Y2990654D01*
X5523102Y2406970D01*
X475000Y2406970D01*
X475000Y3631981D01*
X6030747Y3631981D01*
X7000000Y2662728D01*
X7969253Y3631981D01*
X21030747Y3631981D01*
X22000000Y2662728D01*
X22969253Y3631981D01*
X22872476Y3866173D01*
X22340654Y4107479D01*
X21756970Y4126898D01*
X21210285Y3921471D01*
X21127524Y3866173D01*
X21030747Y3631981D01*
X7969253Y3631981D01*
X7872476Y3866173D01*
X7340654Y4107479D01*
X6756970Y4126898D01*
X6210285Y3921471D01*
X6127524Y3866173D01*
X6030747Y3631981D01*
X475000Y3631981D01*
X475000Y5420744D01*
X5599757Y5420744D01*
X5812445Y4906000D01*
X6205928Y4511830D01*
X6720301Y4298243D01*
X7277256Y4297757D01*
X7792000Y4510445D01*
X8186170Y4903928D01*
X8399757Y5418301D01*
X8399759Y5420744D01*
X20599757Y5420744D01*
X20812445Y4906000D01*
X21205928Y4511830D01*
X21720301Y4298243D01*
X22277256Y4297757D01*
X22792000Y4510445D01*
X23186170Y4903928D01*
X23399757Y5418301D01*
X23400243Y5975256D01*
X23187555Y6490000D01*
X22794072Y6884170D01*
X22279699Y7097757D01*
X21722744Y7098243D01*
X21208000Y6885555D01*
X20813830Y6492072D01*
X20600243Y5977699D01*
X20599757Y5420744D01*
X8399759Y5420744D01*
X8400243Y5975256D01*
X8187555Y6490000D01*
X7794072Y6884170D01*
X7279699Y7097757D01*
X6722744Y7098243D01*
X6208000Y6885555D01*
X5813830Y6492072D01*
X5600243Y5977699D01*
X5599757Y5420744D01*
X475000Y5420744D01*
X475000Y16668019D01*
X4030747Y16668019D01*
X4127524Y16433827D01*
X4659346Y16192521D01*
X5243030Y16173102D01*
X5789715Y16378529D01*
X5872476Y16433827D01*
X5969253Y16668019D01*
X5000000Y17637272D01*
X4030747Y16668019D01*
X475000Y16668019D01*
X475000Y17406970D01*
X3523102Y17406970D01*
X3728529Y16860285D01*
X3783827Y16777524D01*
X4018019Y16680747D01*
X4987272Y17650000D01*
X4018019Y18619253D01*
X3783827Y18522476D01*
X3542521Y17990654D01*
X3523102Y17406970D01*
X475000Y17406970D01*
X475000Y18631981D01*
X4030747Y18631981D01*
X5000000Y17662728D01*
X5969253Y18631981D01*
X5872476Y18866173D01*
X5340654Y19107479D01*
X4756970Y19126898D01*
X4210285Y18921471D01*
X4127524Y18866173D01*
X4030747Y18631981D01*
X475000Y18631981D01*
X475000Y19716019D01*
X4030747Y19716019D01*
X4127524Y19481827D01*
X4659346Y19240521D01*
X5243030Y19221102D01*
X5789715Y19426529D01*
X5872476Y19481827D01*
X5969253Y19716019D01*
X5000000Y20685272D01*
X4030747Y19716019D01*
X475000Y19716019D01*
X475000Y20454970D01*
X3523102Y20454970D01*
X3728529Y19908285D01*
X3783827Y19825524D01*
X4018019Y19728747D01*
X4987272Y20698000D01*
X4018019Y21667253D01*
X3783827Y21570476D01*
X3542521Y21038654D01*
X3523102Y20454970D01*
X475000Y20454970D01*
X475000Y21679981D01*
X4030747Y21679981D01*
X5000000Y20710728D01*
X5969253Y21679981D01*
X5872476Y21914173D01*
X5340654Y22155479D01*
X4756970Y22174898D01*
X4210285Y21969471D01*
X4127524Y21914173D01*
X4030747Y21679981D01*
X475000Y21679981D01*
X475000Y47822744D01*
X799757Y47822744D01*
X1012445Y47308000D01*
X1405928Y46913830D01*
X1550000Y46854006D01*
X1550000Y46704044D01*
X1312736Y46467194D01*
X1160174Y46099785D01*
X1159827Y45701960D01*
X1311747Y45334286D01*
X1592806Y45052736D01*
X1960215Y44900174D01*
X2358040Y44899827D01*
X2725714Y45051747D01*
X3007264Y45332806D01*
X3159826Y45700215D01*
X3160173Y46098040D01*
X3008253Y46465714D01*
X2850000Y46624243D01*
X2850000Y46853772D01*
X2992000Y46912445D01*
X3386170Y47305928D01*
X3599757Y47820301D01*
X3600243Y48377256D01*
X3387555Y48892000D01*
X2994072Y49286170D01*
X2479699Y49499757D01*
X1922744Y49500243D01*
X1408000Y49287555D01*
X1013830Y48894072D01*
X800243Y48379699D01*
X799757Y47822744D01*
X475000Y47822744D01*
X475000Y65622744D01*
X799757Y65622744D01*
X1012445Y65108000D01*
X1405928Y64713830D01*
X1550000Y64654006D01*
X1550000Y59346228D01*
X1408000Y59287555D01*
X1013830Y58894072D01*
X800243Y58379699D01*
X799757Y57822744D01*
X1012445Y57308000D01*
X1405928Y56913830D01*
X1920301Y56700243D01*
X2477256Y56699757D01*
X2621432Y56759329D01*
X2940380Y56440381D01*
X3151255Y56299478D01*
X3192524Y56291269D01*
X3400000Y56250000D01*
X3770174Y56250000D01*
X3782097Y56221143D01*
X4119367Y55883283D01*
X4560258Y55700209D01*
X5037647Y55699793D01*
X5478857Y55882097D01*
X5816717Y56219367D01*
X5829437Y56250000D01*
X5970174Y56250000D01*
X5982097Y56221143D01*
X6319367Y55883283D01*
X6760258Y55700209D01*
X6980778Y55700017D01*
X4340381Y53059619D01*
X4199478Y52848745D01*
X4199478Y52848744D01*
X4150000Y52600000D01*
X4150000Y50329826D01*
X4121143Y50317903D01*
X3783283Y49980633D01*
X3600209Y49539742D01*
X3599793Y49062353D01*
X3782097Y48621143D01*
X4119367Y48283283D01*
X4150000Y48270563D01*
X4150000Y47769239D01*
X3540381Y47159619D01*
X3399478Y46948745D01*
X3399478Y46948744D01*
X3350000Y46700000D01*
X3350000Y38700000D01*
X3389741Y38500207D01*
X3399478Y38451255D01*
X3540381Y38240381D01*
X4212183Y37568579D01*
X4200209Y37539742D01*
X4199793Y37062353D01*
X4382097Y36621143D01*
X4719367Y36283283D01*
X5160258Y36100209D01*
X5637647Y36099793D01*
X6078857Y36282097D01*
X6416717Y36619367D01*
X6599791Y37060258D01*
X6600207Y37537647D01*
X6417903Y37978857D01*
X6080633Y38316717D01*
X5880116Y38399979D01*
X6078857Y38482097D01*
X6416717Y38819367D01*
X6599791Y39260258D01*
X6600207Y39737647D01*
X6417903Y40178857D01*
X6080633Y40516717D01*
X6050000Y40529437D01*
X6050000Y45730762D01*
X6240018Y45920780D01*
X6239827Y45701960D01*
X6391747Y45334286D01*
X6672806Y45052736D01*
X7040215Y44900174D01*
X7438040Y44899827D01*
X7805714Y45051747D01*
X8050000Y45295607D01*
X8050000Y36469239D01*
X4540381Y32959619D01*
X4399478Y32748745D01*
X4399478Y32748744D01*
X4350000Y32500000D01*
X4350000Y30072228D01*
X4208000Y30013555D01*
X3813830Y29620072D01*
X3650000Y29225527D01*
X3650000Y33153772D01*
X3792000Y33212445D01*
X4186170Y33605928D01*
X4399757Y34120301D01*
X4400243Y34677256D01*
X4187555Y35192000D01*
X3794072Y35586170D01*
X3279699Y35799757D01*
X2722744Y35800243D01*
X2208000Y35587555D01*
X1813830Y35194072D01*
X1600243Y34679699D01*
X1599757Y34122744D01*
X1812445Y33608000D01*
X2205928Y33213830D01*
X2350000Y33154006D01*
X2350000Y26500000D01*
X2381750Y26340381D01*
X2399478Y26251255D01*
X2540381Y26040381D01*
X6350000Y22230761D01*
X6350000Y21278733D01*
X6271471Y21487715D01*
X6216173Y21570476D01*
X5981981Y21667253D01*
X5012728Y20698000D01*
X5981981Y19728747D01*
X6216173Y19825524D01*
X6350000Y20120470D01*
X6350000Y18230733D01*
X6271471Y18439715D01*
X6216173Y18522476D01*
X5981981Y18619253D01*
X5012728Y17650000D01*
X5981981Y16680747D01*
X6216173Y16777524D01*
X6350000Y17072470D01*
X6350000Y15072228D01*
X6208000Y15013555D01*
X5813830Y14620072D01*
X5600243Y14105699D01*
X5599757Y13548744D01*
X5812445Y13034000D01*
X6205928Y12639830D01*
X6720301Y12426243D01*
X7277256Y12425757D01*
X7792000Y12638445D01*
X8186170Y13031928D01*
X8399757Y13546301D01*
X8400243Y14103256D01*
X8187555Y14618000D01*
X7794072Y15012170D01*
X7650000Y15071994D01*
X7650000Y16668019D01*
X13530747Y16668019D01*
X13627524Y16433827D01*
X14159346Y16192521D01*
X14743030Y16173102D01*
X15289715Y16378529D01*
X15372476Y16433827D01*
X15469253Y16668019D01*
X14500000Y17637272D01*
X13530747Y16668019D01*
X7650000Y16668019D01*
X7650000Y17406970D01*
X13023102Y17406970D01*
X13228529Y16860285D01*
X13283827Y16777524D01*
X13518019Y16680747D01*
X14487272Y17650000D01*
X14512728Y17650000D01*
X15481981Y16680747D01*
X15716173Y16777524D01*
X15957479Y17309346D01*
X15976898Y17893030D01*
X15771471Y18439715D01*
X15716173Y18522476D01*
X15481981Y18619253D01*
X14512728Y17650000D01*
X14487272Y17650000D01*
X13518019Y18619253D01*
X13283827Y18522476D01*
X13042521Y17990654D01*
X13023102Y17406970D01*
X7650000Y17406970D01*
X7650000Y18631981D01*
X13530747Y18631981D01*
X14500000Y17662728D01*
X15469253Y18631981D01*
X15372476Y18866173D01*
X14840654Y19107479D01*
X14256970Y19126898D01*
X13710285Y18921471D01*
X13627524Y18866173D01*
X13530747Y18631981D01*
X7650000Y18631981D01*
X7650000Y19716019D01*
X13530747Y19716019D01*
X13627524Y19481827D01*
X14159346Y19240521D01*
X14743030Y19221102D01*
X15289715Y19426529D01*
X15372476Y19481827D01*
X15469253Y19716019D01*
X14500000Y20685272D01*
X13530747Y19716019D01*
X7650000Y19716019D01*
X7650000Y20454970D01*
X13023102Y20454970D01*
X13228529Y19908285D01*
X13283827Y19825524D01*
X13518019Y19728747D01*
X14487272Y20698000D01*
X14512728Y20698000D01*
X15481981Y19728747D01*
X15716173Y19825524D01*
X15957479Y20357346D01*
X15976898Y20941030D01*
X15771471Y21487715D01*
X15716173Y21570476D01*
X15481981Y21667253D01*
X14512728Y20698000D01*
X14487272Y20698000D01*
X13518019Y21667253D01*
X13283827Y21570476D01*
X13042521Y21038654D01*
X13023102Y20454970D01*
X7650000Y20454970D01*
X7650000Y21679981D01*
X13530747Y21679981D01*
X14500000Y20710728D01*
X15469253Y21679981D01*
X15372476Y21914173D01*
X14840654Y22155479D01*
X14256970Y22174898D01*
X13710285Y21969471D01*
X13627524Y21914173D01*
X13530747Y21679981D01*
X7650000Y21679981D01*
X7650000Y22500000D01*
X7600522Y22748744D01*
X7600522Y22748745D01*
X7459619Y22959620D01*
X3650000Y26769238D01*
X3650000Y28427147D01*
X3812445Y28034000D01*
X4205928Y27639830D01*
X4720301Y27426243D01*
X5277256Y27425757D01*
X5792000Y27638445D01*
X6186170Y28031928D01*
X6399757Y28546301D01*
X6400243Y29103256D01*
X6187555Y29618000D01*
X5794072Y30012170D01*
X5650000Y30071994D01*
X5650000Y32230762D01*
X9159619Y35740380D01*
X9300522Y35951255D01*
X9325085Y36074745D01*
X9350000Y36200000D01*
X9350000Y47730762D01*
X11959619Y50340381D01*
X12100522Y50551255D01*
X12108731Y50592524D01*
X12150000Y50800000D01*
X12150000Y59150000D01*
X13750000Y59150000D01*
X13750000Y51469238D01*
X10040381Y47759619D01*
X9899478Y47548745D01*
X9891269Y47507476D01*
X9850000Y47300000D01*
X9850000Y32826000D01*
X9891269Y32618524D01*
X9899478Y32577255D01*
X10040381Y32366381D01*
X13159164Y29247597D01*
X13100243Y29105699D01*
X13099757Y28548744D01*
X13312445Y28034000D01*
X13705928Y27639830D01*
X14220301Y27426243D01*
X14777256Y27425757D01*
X15292000Y27638445D01*
X15686170Y28031928D01*
X15899757Y28546301D01*
X15900243Y29103256D01*
X15687555Y29618000D01*
X15294072Y30012170D01*
X14779699Y30225757D01*
X14222744Y30226243D01*
X14078568Y30166671D01*
X11150000Y33095238D01*
X11150000Y34122744D01*
X11599757Y34122744D01*
X11812445Y33608000D01*
X12205928Y33213830D01*
X12720301Y33000243D01*
X13277256Y32999757D01*
X13792000Y33212445D01*
X14186170Y33605928D01*
X14245994Y33750000D01*
X14653772Y33750000D01*
X14712445Y33608000D01*
X15105928Y33213830D01*
X15620301Y33000243D01*
X16177256Y32999757D01*
X16692000Y33212445D01*
X17086170Y33605928D01*
X17299757Y34120301D01*
X17300181Y34606581D01*
X22659165Y29247597D01*
X22600243Y29105699D01*
X22599757Y28548744D01*
X22812445Y28034000D01*
X23205928Y27639830D01*
X23720301Y27426243D01*
X24277256Y27425757D01*
X24792000Y27638445D01*
X25186170Y28031928D01*
X25250000Y28185647D01*
X25250000Y27069238D01*
X21540381Y23359619D01*
X21399478Y23148745D01*
X21399478Y23148744D01*
X21350000Y22900000D01*
X21350000Y15072228D01*
X21208000Y15013555D01*
X20813830Y14620072D01*
X20600243Y14105699D01*
X20599757Y13548744D01*
X20812445Y13034000D01*
X21205928Y12639830D01*
X21720301Y12426243D01*
X22277256Y12425757D01*
X22792000Y12638445D01*
X23186170Y13031928D01*
X23399757Y13546301D01*
X23400243Y14103256D01*
X23187555Y14618000D01*
X22794072Y15012170D01*
X22650000Y15071994D01*
X22650000Y16668019D01*
X23030747Y16668019D01*
X23127524Y16433827D01*
X23659346Y16192521D01*
X24243030Y16173102D01*
X24789715Y16378529D01*
X24872476Y16433827D01*
X24969253Y16668019D01*
X24000000Y17637272D01*
X23030747Y16668019D01*
X22650000Y16668019D01*
X22650000Y17069267D01*
X22728529Y16860285D01*
X22783827Y16777524D01*
X23018019Y16680747D01*
X23987272Y17650000D01*
X24012728Y17650000D01*
X24981981Y16680747D01*
X25216173Y16777524D01*
X25457479Y17309346D01*
X25476898Y17893030D01*
X25271471Y18439715D01*
X25216173Y18522476D01*
X24981981Y18619253D01*
X24012728Y17650000D01*
X23987272Y17650000D01*
X23018019Y18619253D01*
X22783827Y18522476D01*
X22650000Y18227530D01*
X22650000Y18631981D01*
X23030747Y18631981D01*
X24000000Y17662728D01*
X24969253Y18631981D01*
X24872476Y18866173D01*
X24340654Y19107479D01*
X23756970Y19126898D01*
X23210285Y18921471D01*
X23127524Y18866173D01*
X23030747Y18631981D01*
X22650000Y18631981D01*
X22650000Y19716019D01*
X23030747Y19716019D01*
X23127524Y19481827D01*
X23659346Y19240521D01*
X24243030Y19221102D01*
X24789715Y19426529D01*
X24872476Y19481827D01*
X24969253Y19716019D01*
X24000000Y20685272D01*
X23030747Y19716019D01*
X22650000Y19716019D01*
X22650000Y20117267D01*
X22728529Y19908285D01*
X22783827Y19825524D01*
X23018019Y19728747D01*
X23987272Y20698000D01*
X24012728Y20698000D01*
X24981981Y19728747D01*
X25216173Y19825524D01*
X25457479Y20357346D01*
X25476898Y20941030D01*
X25271471Y21487715D01*
X25216173Y21570476D01*
X24981981Y21667253D01*
X24012728Y20698000D01*
X23987272Y20698000D01*
X23018019Y21667253D01*
X22783827Y21570476D01*
X22650000Y21275530D01*
X22650000Y21679981D01*
X23030747Y21679981D01*
X24000000Y20710728D01*
X24969253Y21679981D01*
X24872476Y21914173D01*
X24340654Y22155479D01*
X23756970Y22174898D01*
X23210285Y21969471D01*
X23127524Y21914173D01*
X23030747Y21679981D01*
X22650000Y21679981D01*
X22650000Y22630762D01*
X26359619Y26340381D01*
X26500522Y26551255D01*
X26508731Y26592524D01*
X26550000Y26800000D01*
X26550000Y33153772D01*
X26692000Y33212445D01*
X27086170Y33605928D01*
X27299757Y34120301D01*
X27300243Y34677256D01*
X27087555Y35192000D01*
X26694072Y35586170D01*
X26179699Y35799757D01*
X25622744Y35800243D01*
X25108000Y35587555D01*
X24713830Y35194072D01*
X24500243Y34679699D01*
X24499757Y34122744D01*
X24712445Y33608000D01*
X25105928Y33213830D01*
X25250000Y33154006D01*
X25250000Y29466872D01*
X25187555Y29618000D01*
X24794072Y30012170D01*
X24279699Y30225757D01*
X23722744Y30226243D01*
X23578568Y30166670D01*
X17650000Y36095238D01*
X17650000Y44970174D01*
X17678857Y44982097D01*
X18016717Y45319367D01*
X18199791Y45760258D01*
X18200207Y46237647D01*
X18017903Y46678857D01*
X17680633Y47016717D01*
X17239742Y47199791D01*
X16762353Y47200207D01*
X16321143Y47017903D01*
X15983283Y46680633D01*
X15800209Y46239742D01*
X15799793Y45762353D01*
X15982097Y45321143D01*
X16319367Y44983283D01*
X16350000Y44970563D01*
X16350000Y35826000D01*
X16367031Y35740381D01*
X16371023Y35720312D01*
X16179699Y35799757D01*
X15622744Y35800243D01*
X15108000Y35587555D01*
X14713830Y35194072D01*
X14654006Y35050000D01*
X14246228Y35050000D01*
X14187555Y35192000D01*
X13794072Y35586170D01*
X13650000Y35645994D01*
X13650000Y36270174D01*
X13678857Y36282097D01*
X14016717Y36619367D01*
X14199791Y37060258D01*
X14200207Y37537647D01*
X14017903Y37978857D01*
X13680633Y38316717D01*
X13650000Y38329437D01*
X13650000Y38470174D01*
X13678857Y38482097D01*
X14016717Y38819367D01*
X14199791Y39260258D01*
X14200207Y39737647D01*
X14017903Y40178857D01*
X13680633Y40516717D01*
X13239742Y40699791D01*
X12762353Y40700207D01*
X12321143Y40517903D01*
X11983283Y40180633D01*
X11800209Y39739742D01*
X11799793Y39262353D01*
X11982097Y38821143D01*
X12319367Y38483283D01*
X12350000Y38470563D01*
X12350000Y38329826D01*
X12321143Y38317903D01*
X11983283Y37980633D01*
X11800209Y37539742D01*
X11799793Y37062353D01*
X11982097Y36621143D01*
X12319367Y36283283D01*
X12350000Y36270563D01*
X12350000Y35646228D01*
X12208000Y35587555D01*
X11813830Y35194072D01*
X11600243Y34679699D01*
X11599757Y34122744D01*
X11150000Y34122744D01*
X11150000Y45137269D01*
X11174943Y45162212D01*
X11247386Y44948804D01*
X11706950Y44740809D01*
X12211129Y44724514D01*
X12683164Y44902401D01*
X12752614Y44948804D01*
X12825058Y45162214D01*
X12000000Y45987272D01*
X11985858Y45973130D01*
X11973130Y45985858D01*
X11987272Y46000000D01*
X12012728Y46000000D01*
X12837786Y45174942D01*
X13051196Y45247386D01*
X13259191Y45706950D01*
X13260981Y45762353D01*
X13299793Y45762353D01*
X13482097Y45321143D01*
X13819367Y44983283D01*
X14260258Y44800209D01*
X14737647Y44799793D01*
X15178857Y44982097D01*
X15516717Y45319367D01*
X15699791Y45760258D01*
X15700207Y46237647D01*
X15517903Y46678857D01*
X15180633Y47016717D01*
X14739742Y47199791D01*
X14262353Y47200207D01*
X13821143Y47017903D01*
X13483283Y46680633D01*
X13300209Y46239742D01*
X13299793Y45762353D01*
X13260981Y45762353D01*
X13275486Y46211129D01*
X13097599Y46683164D01*
X13051196Y46752614D01*
X12837786Y46825058D01*
X12012728Y46000000D01*
X11987272Y46000000D01*
X11973130Y46014142D01*
X11985858Y46026870D01*
X12000000Y46012728D01*
X12825058Y46837786D01*
X12752614Y47051196D01*
X12450000Y47188157D01*
X12450000Y48300000D01*
X12444896Y48325658D01*
X14859619Y50740381D01*
X15000522Y50951255D01*
X15003536Y50966412D01*
X21219140Y50966412D01*
X21267250Y50773783D01*
X21654555Y50599099D01*
X22079228Y50585927D01*
X22476614Y50736274D01*
X22532750Y50773783D01*
X22580860Y50966412D01*
X21900000Y51647272D01*
X21219140Y50966412D01*
X15003536Y50966412D01*
X15015638Y51027250D01*
X15050000Y51200000D01*
X15050000Y52991000D01*
X18032000Y52991000D01*
X18032000Y52491000D01*
X18147189Y51929906D01*
X18468331Y51455603D01*
X18946536Y51140300D01*
X19261469Y51051509D01*
X19491000Y51149030D01*
X19491000Y52991000D01*
X19509000Y52991000D01*
X19509000Y51149030D01*
X19738531Y51051509D01*
X20053464Y51140300D01*
X20531669Y51455603D01*
X20844785Y51918053D01*
X20839099Y51905445D01*
X20825927Y51480772D01*
X20976274Y51083386D01*
X21013783Y51027250D01*
X21206412Y50979140D01*
X21887272Y51660000D01*
X21912728Y51660000D01*
X22593588Y50979140D01*
X22786217Y51027250D01*
X22960901Y51414555D01*
X22974073Y51839228D01*
X22823726Y52236614D01*
X22786217Y52292750D01*
X22593588Y52340860D01*
X21912728Y51660000D01*
X21887272Y51660000D01*
X21206412Y52340860D01*
X21013783Y52292750D01*
X20855050Y51940810D01*
X20939790Y52353588D01*
X21219140Y52353588D01*
X21900000Y51672728D01*
X22580860Y52353588D01*
X22532750Y52546217D01*
X22145445Y52720901D01*
X21720772Y52734073D01*
X21323386Y52583726D01*
X21267250Y52546217D01*
X21219140Y52353588D01*
X20939790Y52353588D01*
X20968000Y52491000D01*
X20968000Y52991000D01*
X19509000Y52991000D01*
X19491000Y52991000D01*
X18032000Y52991000D01*
X15050000Y52991000D01*
X15050000Y59150000D01*
X15553772Y59150000D01*
X15612445Y59008000D01*
X16005928Y58613830D01*
X16150000Y58554006D01*
X16150000Y58000000D01*
X16179587Y57851256D01*
X16199478Y57751255D01*
X16340381Y57540381D01*
X19004672Y54876090D01*
X18946536Y54859700D01*
X18468331Y54544397D01*
X18147189Y54070094D01*
X18032000Y53509000D01*
X18032000Y53009000D01*
X19491000Y53009000D01*
X19491000Y53029000D01*
X19509000Y53029000D01*
X19509000Y53009000D01*
X20968000Y53009000D01*
X20968000Y53509000D01*
X20852811Y54070094D01*
X20531669Y54544397D01*
X20523171Y54550000D01*
X21447833Y54550000D01*
X21517885Y54479826D01*
X21830183Y54350148D01*
X22168334Y54349853D01*
X22480857Y54478985D01*
X22491791Y54489900D01*
X22499478Y54451255D01*
X22640381Y54240381D01*
X24150000Y52730762D01*
X24150000Y47746228D01*
X24008000Y47687555D01*
X23613830Y47294072D01*
X23400243Y46779699D01*
X23399757Y46222744D01*
X23612445Y45708000D01*
X24005928Y45313830D01*
X24150000Y45254006D01*
X24150000Y43569239D01*
X19230822Y38650060D01*
X19131666Y38650147D01*
X18819143Y38521015D01*
X18579826Y38282115D01*
X18450148Y37969817D01*
X18449853Y37631666D01*
X18578985Y37319143D01*
X18817885Y37079826D01*
X19130183Y36950148D01*
X19468334Y36949853D01*
X19780857Y37078985D01*
X20020174Y37317885D01*
X20149852Y37630183D01*
X20149940Y37730702D01*
X25259620Y42840381D01*
X25400522Y43051256D01*
X25450000Y43300000D01*
X25450000Y45253772D01*
X25592000Y45312445D01*
X25986170Y45705928D01*
X26199757Y46220301D01*
X26200243Y46777256D01*
X25987555Y47292000D01*
X25594072Y47686170D01*
X25450000Y47745994D01*
X25450000Y53000000D01*
X25425619Y53122574D01*
X25444229Y53158792D01*
X25450000Y53200000D01*
X25450000Y55253772D01*
X25592000Y55312445D01*
X25986170Y55705928D01*
X26199757Y56220301D01*
X26200243Y56777256D01*
X25987555Y57292000D01*
X25594072Y57686170D01*
X25420000Y57758451D01*
X25420000Y58079433D01*
X25618528Y58212085D01*
X25878655Y58601393D01*
X25970000Y59060613D01*
X25970000Y59381000D01*
X26042000Y59381000D01*
X26042000Y59081000D01*
X26141965Y58596442D01*
X26419753Y58187024D01*
X26833073Y57915076D01*
X27102757Y57839051D01*
X27301000Y57939035D01*
X27301000Y59381000D01*
X26042000Y59381000D01*
X25970000Y59381000D01*
X25970000Y59699000D01*
X26042000Y59699000D01*
X26042000Y59399000D01*
X27301000Y59399000D01*
X27301000Y60840965D01*
X27102757Y60940949D01*
X26833073Y60864924D01*
X26419753Y60592976D01*
X26141965Y60183558D01*
X26042000Y59699000D01*
X25970000Y59699000D01*
X25970000Y59719387D01*
X25878655Y60178607D01*
X25618528Y60567915D01*
X25420000Y60700567D01*
X25420000Y60830000D01*
X25370522Y61078744D01*
X25289663Y61199757D01*
X25229619Y61289620D01*
X24759619Y61759619D01*
X24548745Y61900522D01*
X24507476Y61908731D01*
X24300000Y61950000D01*
X23169238Y61950000D01*
X26815062Y65595824D01*
X26850780Y65571958D01*
X27310000Y65480613D01*
X27769220Y65571958D01*
X28158528Y65832085D01*
X28418655Y66221393D01*
X28510000Y66680613D01*
X28510000Y67339387D01*
X28418655Y67798607D01*
X28158528Y68187915D01*
X27990000Y68300522D01*
X27990000Y69035886D01*
X28187264Y69232806D01*
X28339826Y69600215D01*
X28340173Y69998040D01*
X28188253Y70365714D01*
X27990000Y70564313D01*
X27990000Y75235886D01*
X28187264Y75432806D01*
X28339826Y75800215D01*
X28340173Y76198040D01*
X28188253Y76565714D01*
X27907194Y76847264D01*
X27539785Y76999826D01*
X27259168Y77000071D01*
X26800000Y77459238D01*
X26800000Y79594588D01*
X27081991Y79876087D01*
X27249808Y80280237D01*
X27250190Y80717844D01*
X27083078Y81122286D01*
X26800000Y81405858D01*
X26800000Y82480762D01*
X28159619Y83840381D01*
X28300522Y84051255D01*
X28308731Y84092524D01*
X28350000Y84300000D01*
X28350000Y88200000D01*
X28300522Y88448744D01*
X28300032Y88449478D01*
X28159620Y88659619D01*
X27250000Y89569239D01*
X27250000Y90513237D01*
X27416614Y90576274D01*
X27472750Y90613783D01*
X27520860Y90806412D01*
X26840000Y91487272D01*
X26825858Y91473130D01*
X26813130Y91485858D01*
X26827272Y91500000D01*
X26852728Y91500000D01*
X27533588Y90819140D01*
X27726217Y90867250D01*
X27900901Y91254555D01*
X27914073Y91679228D01*
X27763726Y92076614D01*
X27726217Y92132750D01*
X27533588Y92180860D01*
X26852728Y91500000D01*
X26827272Y91500000D01*
X26146412Y92180860D01*
X25953783Y92132750D01*
X25950000Y92124362D01*
X25950000Y92193588D01*
X26159140Y92193588D01*
X26840000Y91512728D01*
X27520860Y92193588D01*
X27472750Y92386217D01*
X27085445Y92560901D01*
X26660772Y92574073D01*
X26263386Y92423726D01*
X26207250Y92386217D01*
X26159140Y92193588D01*
X25950000Y92193588D01*
X25950000Y92450762D01*
X26178403Y92679164D01*
X26320301Y92620243D01*
X26877256Y92619757D01*
X27392000Y92832445D01*
X27786170Y93225928D01*
X27999757Y93740301D01*
X28000243Y94297256D01*
X27787555Y94812000D01*
X27394072Y95206170D01*
X26879699Y95419757D01*
X26322744Y95420243D01*
X25808000Y95207555D01*
X25413830Y94814072D01*
X25200243Y94299699D01*
X25199757Y93742744D01*
X25259329Y93598568D01*
X24840381Y93179619D01*
X24699478Y92968745D01*
X24699478Y92968744D01*
X24650000Y92720000D01*
X24650000Y90600000D01*
X24682005Y90439099D01*
X24699478Y90351255D01*
X24840381Y90140381D01*
X27050000Y87930761D01*
X27050000Y87813081D01*
X26915686Y87852958D01*
X26162728Y87100000D01*
X26915686Y86347042D01*
X27050000Y86386919D01*
X27050000Y84569238D01*
X25690381Y83209619D01*
X25549478Y82998745D01*
X25549478Y82998744D01*
X25500000Y82750000D01*
X25500000Y81405412D01*
X25218009Y81123913D01*
X25050192Y80719763D01*
X25049810Y80282156D01*
X25216922Y79877714D01*
X25500000Y79594142D01*
X25500000Y77190000D01*
X25537759Y77000173D01*
X25549478Y76941255D01*
X25690381Y76730381D01*
X26340070Y76080691D01*
X26339827Y75801960D01*
X26491747Y75434286D01*
X26690000Y75235687D01*
X26690000Y70564114D01*
X26492736Y70367194D01*
X26340174Y69999785D01*
X26339827Y69601960D01*
X26491747Y69234286D01*
X26690000Y69035687D01*
X26690000Y68340612D01*
X26461472Y68187915D01*
X26201345Y67798607D01*
X26110000Y67339387D01*
X26110000Y66729238D01*
X26026625Y66645863D01*
X26038000Y66701000D01*
X26038000Y67001000D01*
X24779000Y67001000D01*
X24779000Y66981000D01*
X24761000Y66981000D01*
X24761000Y67001000D01*
X24741000Y67001000D01*
X24741000Y67019000D01*
X24761000Y67019000D01*
X24761000Y68460965D01*
X24779000Y68460965D01*
X24779000Y67019000D01*
X26038000Y67019000D01*
X26038000Y67319000D01*
X25938035Y67803558D01*
X25660247Y68212976D01*
X25246927Y68484924D01*
X24977243Y68560949D01*
X24779000Y68460965D01*
X24761000Y68460965D01*
X24562757Y68560949D01*
X24293073Y68484924D01*
X24150000Y68390788D01*
X24150000Y77800000D01*
X24100522Y78048744D01*
X24064964Y78101960D01*
X23959620Y78259619D01*
X22887238Y79332000D01*
X23524000Y79332000D01*
X23641000Y79449000D01*
X23641000Y80491000D01*
X23659000Y80491000D01*
X23659000Y79449000D01*
X23776000Y79332000D01*
X24443091Y79332000D01*
X24615101Y79403249D01*
X24746751Y79534899D01*
X24818000Y79706909D01*
X24818000Y80374000D01*
X24701000Y80491000D01*
X23659000Y80491000D01*
X23641000Y80491000D01*
X23621000Y80491000D01*
X23621000Y80509000D01*
X23641000Y80509000D01*
X23641000Y81551000D01*
X23659000Y81551000D01*
X23659000Y80509000D01*
X24701000Y80509000D01*
X24818000Y80626000D01*
X24818000Y81293091D01*
X24746751Y81465101D01*
X24615101Y81596751D01*
X24443091Y81668000D01*
X23776000Y81668000D01*
X23659000Y81551000D01*
X23641000Y81551000D01*
X23524000Y81668000D01*
X22856909Y81668000D01*
X22684899Y81596751D01*
X22553249Y81465101D01*
X22550000Y81457257D01*
X22550000Y82530762D01*
X24109620Y84090381D01*
X24250522Y84301256D01*
X24300000Y84550000D01*
X24300000Y85992164D01*
X24350000Y85992164D01*
X24506072Y86023209D01*
X24638384Y86111616D01*
X24726791Y86243928D01*
X24744770Y86334314D01*
X25397042Y86334314D01*
X25457318Y86131293D01*
X25880753Y85939954D01*
X26345178Y85925221D01*
X26779890Y86089337D01*
X26842682Y86131293D01*
X26902958Y86334314D01*
X26150000Y87087272D01*
X25397042Y86334314D01*
X24744770Y86334314D01*
X24757836Y86400000D01*
X24757836Y86904822D01*
X24975221Y86904822D01*
X25139337Y86470110D01*
X25181293Y86407318D01*
X25384314Y86347042D01*
X26137272Y87100000D01*
X25384314Y87852958D01*
X25181293Y87792682D01*
X24989954Y87369247D01*
X24975221Y86904822D01*
X24757836Y86904822D01*
X24757836Y87800000D01*
X24744771Y87865686D01*
X25397042Y87865686D01*
X26150000Y87112728D01*
X26902958Y87865686D01*
X26842682Y88068707D01*
X26419247Y88260046D01*
X25954822Y88274779D01*
X25520110Y88110663D01*
X25457318Y88068707D01*
X25397042Y87865686D01*
X24744771Y87865686D01*
X24726791Y87956072D01*
X24638384Y88088384D01*
X24506072Y88176791D01*
X24350000Y88207836D01*
X24300000Y88207836D01*
X24300000Y89610000D01*
X24250522Y89858744D01*
X24109620Y90069619D01*
X22759930Y91419308D01*
X22760173Y91698040D01*
X22608253Y92065714D01*
X22536665Y92137427D01*
X23078403Y92679164D01*
X23220301Y92620243D01*
X23777256Y92619757D01*
X24292000Y92832445D01*
X24686170Y93225928D01*
X24899757Y93740301D01*
X24900243Y94297256D01*
X24687555Y94812000D01*
X24294072Y95206170D01*
X23779699Y95419757D01*
X23222744Y95420243D01*
X22708000Y95207555D01*
X22313830Y94814072D01*
X22100243Y94299699D01*
X22099757Y93742744D01*
X22159329Y93598568D01*
X21300381Y92739619D01*
X21159478Y92528745D01*
X21159478Y92528744D01*
X21110000Y92280000D01*
X21110000Y92264114D01*
X20912736Y92067194D01*
X20760174Y91699785D01*
X20759827Y91301960D01*
X20911747Y90934286D01*
X21192806Y90652736D01*
X21560215Y90500174D01*
X21840832Y90499929D01*
X23000000Y89340761D01*
X23000000Y88207836D01*
X22950000Y88207836D01*
X22793928Y88176791D01*
X22661616Y88088384D01*
X22573209Y87956072D01*
X22542164Y87800000D01*
X22542164Y86400000D01*
X22573209Y86243928D01*
X22661616Y86111616D01*
X22793928Y86023209D01*
X22950000Y85992164D01*
X23000000Y85992164D01*
X23000000Y84819239D01*
X21440381Y83259619D01*
X21299478Y83048745D01*
X21299478Y83048744D01*
X21250000Y82800000D01*
X21250000Y79400000D01*
X21269857Y79300173D01*
X21299478Y79151255D01*
X21440381Y78940381D01*
X22850000Y77530761D01*
X22850000Y76905498D01*
X22505445Y77060901D01*
X22080772Y77074073D01*
X21683386Y76923726D01*
X21627250Y76886217D01*
X21579140Y76693588D01*
X22260000Y76012728D01*
X22274142Y76026870D01*
X22286870Y76014142D01*
X22272728Y76000000D01*
X22286870Y75985858D01*
X22274142Y75973130D01*
X22260000Y75987272D01*
X21579140Y75306412D01*
X21627250Y75113783D01*
X22014555Y74939099D01*
X22439228Y74925927D01*
X22836614Y75076274D01*
X22850000Y75085218D01*
X22850000Y70705498D01*
X22505445Y70860901D01*
X22080772Y70874073D01*
X21683386Y70723726D01*
X21627250Y70686217D01*
X21579140Y70493588D01*
X22260000Y69812728D01*
X22274142Y69826870D01*
X22286870Y69814142D01*
X22272728Y69800000D01*
X22286870Y69785858D01*
X22274142Y69773130D01*
X22260000Y69787272D01*
X21579140Y69106412D01*
X21627250Y68913783D01*
X21850000Y68813317D01*
X21850000Y68463800D01*
X21780623Y68450000D01*
X20701134Y68450000D01*
X20646072Y68486791D01*
X20490000Y68517836D01*
X18890000Y68517836D01*
X18733928Y68486791D01*
X18678866Y68450000D01*
X18112465Y68450000D01*
X18017903Y68678857D01*
X17680633Y69016717D01*
X17239742Y69199791D01*
X16762353Y69200207D01*
X16321143Y69017903D01*
X16152946Y68850000D01*
X15347059Y68850000D01*
X15180633Y69016717D01*
X14739742Y69199791D01*
X14262353Y69200207D01*
X13821143Y69017903D01*
X13552771Y68750000D01*
X13052943Y68750000D01*
X13051196Y68752614D01*
X12837786Y68825058D01*
X12012728Y68000000D01*
X12026870Y67985858D01*
X12014142Y67973130D01*
X12000000Y67987272D01*
X11985858Y67973130D01*
X11973130Y67985858D01*
X11987272Y68000000D01*
X11162214Y68825058D01*
X11050000Y68786966D01*
X11050000Y68837786D01*
X11174942Y68837786D01*
X12000000Y68012728D01*
X12825058Y68837786D01*
X12752614Y69051196D01*
X12293050Y69259191D01*
X11788871Y69275486D01*
X11316836Y69097599D01*
X11247386Y69051196D01*
X11174942Y68837786D01*
X11050000Y68837786D01*
X11050000Y69620772D01*
X21185927Y69620772D01*
X21336274Y69223386D01*
X21373783Y69167250D01*
X21566412Y69119140D01*
X22247272Y69800000D01*
X21566412Y70480860D01*
X21373783Y70432750D01*
X21199099Y70045445D01*
X21185927Y69620772D01*
X11050000Y69620772D01*
X11050000Y72230762D01*
X13810238Y74991000D01*
X18032000Y74991000D01*
X18032000Y74491000D01*
X18147189Y73929906D01*
X18468331Y73455603D01*
X18946536Y73140300D01*
X19261469Y73051509D01*
X19491000Y73149030D01*
X19491000Y74991000D01*
X19509000Y74991000D01*
X19509000Y73149030D01*
X19738531Y73051509D01*
X20053464Y73140300D01*
X20531669Y73455603D01*
X20852811Y73929906D01*
X20968000Y74491000D01*
X20968000Y74991000D01*
X19509000Y74991000D01*
X19491000Y74991000D01*
X18032000Y74991000D01*
X13810238Y74991000D01*
X14328238Y75509000D01*
X18032000Y75509000D01*
X18032000Y75009000D01*
X19491000Y75009000D01*
X19491000Y76850970D01*
X19509000Y76850970D01*
X19509000Y75009000D01*
X20968000Y75009000D01*
X20968000Y75509000D01*
X20903996Y75820772D01*
X21185927Y75820772D01*
X21336274Y75423386D01*
X21373783Y75367250D01*
X21566412Y75319140D01*
X22247272Y76000000D01*
X21566412Y76680860D01*
X21373783Y76632750D01*
X21199099Y76245445D01*
X21185927Y75820772D01*
X20903996Y75820772D01*
X20852811Y76070094D01*
X20531669Y76544397D01*
X20053464Y76859700D01*
X19738531Y76948491D01*
X19509000Y76850970D01*
X19491000Y76850970D01*
X19261469Y76948491D01*
X18946536Y76859700D01*
X18468331Y76544397D01*
X18147189Y76070094D01*
X18032000Y75509000D01*
X14328238Y75509000D01*
X19359619Y80540380D01*
X19500522Y80751255D01*
X19510114Y80799478D01*
X19550000Y81000000D01*
X19550000Y88100000D01*
X19500522Y88348744D01*
X19439801Y88439619D01*
X19359620Y88559619D01*
X18187817Y89731421D01*
X18199791Y89760258D01*
X18200207Y90237647D01*
X18017903Y90678857D01*
X17680633Y91016717D01*
X17239742Y91199791D01*
X16762353Y91200207D01*
X16321143Y91017903D01*
X16253121Y90950000D01*
X15247233Y90950000D01*
X15180633Y91016717D01*
X14739742Y91199791D01*
X14262353Y91200207D01*
X13821143Y91017903D01*
X13483283Y90680633D01*
X13300209Y90239742D01*
X13299793Y89762353D01*
X13482097Y89321143D01*
X13819367Y88983283D01*
X14260258Y88800209D01*
X14737647Y88799793D01*
X14768302Y88812459D01*
X17150000Y86430761D01*
X17150000Y81669238D01*
X14430762Y78950000D01*
X8004114Y78950000D01*
X7807194Y79147264D01*
X7439785Y79299826D01*
X7041960Y79300173D01*
X6674286Y79148253D01*
X6392736Y78867194D01*
X6240174Y78499785D01*
X6239827Y78101960D01*
X6391747Y77734286D01*
X6672806Y77452736D01*
X7040215Y77300174D01*
X7438040Y77299827D01*
X7805714Y77451747D01*
X8004313Y77650000D01*
X14630761Y77650000D01*
X11830762Y74850000D01*
X10968000Y74850000D01*
X10968000Y74991000D01*
X9509000Y74991000D01*
X9509000Y73149030D01*
X9738531Y73051509D01*
X9750000Y73054743D01*
X9750000Y68552167D01*
X9679826Y68482115D01*
X9550148Y68169817D01*
X9549853Y67831666D01*
X9600124Y67710000D01*
X8864114Y67710000D01*
X8667194Y67907264D01*
X8299785Y68059826D01*
X7901960Y68060173D01*
X7534286Y67908253D01*
X7499496Y67873523D01*
X5560532Y67344715D01*
X5508157Y67318595D01*
X5491927Y67299921D01*
X5122744Y67300243D01*
X4608000Y67087555D01*
X4213830Y66694072D01*
X4154006Y66550000D01*
X3446228Y66550000D01*
X3387555Y66692000D01*
X2994072Y67086170D01*
X2479699Y67299757D01*
X1922744Y67300243D01*
X1408000Y67087555D01*
X1013830Y66694072D01*
X800243Y66179699D01*
X799757Y65622744D01*
X475000Y65622744D01*
X475000Y75622744D01*
X799757Y75622744D01*
X1012445Y75108000D01*
X1405928Y74713830D01*
X1920301Y74500243D01*
X2477256Y74499757D01*
X2992000Y74712445D01*
X3386170Y75105928D01*
X3599757Y75620301D01*
X3599759Y75622744D01*
X3999757Y75622744D01*
X4212445Y75108000D01*
X4605928Y74713830D01*
X4750000Y74654006D01*
X4750000Y73000000D01*
X4791269Y72792524D01*
X4799478Y72751255D01*
X4940381Y72540381D01*
X5800381Y71680380D01*
X5959162Y71574286D01*
X6011256Y71539478D01*
X6260000Y71490000D01*
X7335886Y71490000D01*
X7532806Y71292736D01*
X7900215Y71140174D01*
X8298040Y71139827D01*
X8665714Y71291747D01*
X8947264Y71572806D01*
X9099826Y71940215D01*
X9100173Y72338040D01*
X8948253Y72705714D01*
X8667194Y72987264D01*
X8299785Y73139826D01*
X7901960Y73140173D01*
X7534286Y72988253D01*
X7335687Y72790000D01*
X6529239Y72790000D01*
X6050000Y73269238D01*
X6050000Y74653772D01*
X6192000Y74712445D01*
X6471041Y74991000D01*
X8032000Y74991000D01*
X8032000Y74491000D01*
X8147189Y73929906D01*
X8468331Y73455603D01*
X8946536Y73140300D01*
X9261469Y73051509D01*
X9491000Y73149030D01*
X9491000Y74991000D01*
X8032000Y74991000D01*
X6471041Y74991000D01*
X6586170Y75105928D01*
X6753540Y75509000D01*
X8032000Y75509000D01*
X8032000Y75009000D01*
X9491000Y75009000D01*
X9491000Y76850970D01*
X9509000Y76850970D01*
X9509000Y75009000D01*
X10968000Y75009000D01*
X10968000Y75509000D01*
X10852811Y76070094D01*
X10531669Y76544397D01*
X10053464Y76859700D01*
X9738531Y76948491D01*
X9509000Y76850970D01*
X9491000Y76850970D01*
X9261469Y76948491D01*
X8946536Y76859700D01*
X8468331Y76544397D01*
X8147189Y76070094D01*
X8032000Y75509000D01*
X6753540Y75509000D01*
X6799757Y75620301D01*
X6800243Y76177256D01*
X6587555Y76692000D01*
X6194072Y77086170D01*
X5679699Y77299757D01*
X5122744Y77300243D01*
X4608000Y77087555D01*
X4213830Y76694072D01*
X4000243Y76179699D01*
X3999757Y75622744D01*
X3599759Y75622744D01*
X3600243Y76177256D01*
X3387555Y76692000D01*
X2994072Y77086170D01*
X2850000Y77145994D01*
X2850000Y77575816D01*
X3007264Y77732806D01*
X3159826Y78100215D01*
X3160173Y78498040D01*
X3008253Y78865714D01*
X2727194Y79147264D01*
X2359785Y79299826D01*
X1961960Y79300173D01*
X1594286Y79148253D01*
X1312736Y78867194D01*
X1160174Y78499785D01*
X1159827Y78101960D01*
X1311747Y77734286D01*
X1550000Y77495617D01*
X1550000Y77146228D01*
X1408000Y77087555D01*
X1013830Y76694072D01*
X800243Y76179699D01*
X799757Y75622744D01*
X475000Y75622744D01*
X475000Y90412353D01*
X1649793Y90412353D01*
X1832097Y89971143D01*
X2169367Y89633283D01*
X2610258Y89450209D01*
X3087647Y89449793D01*
X3118302Y89462459D01*
X4870000Y87710761D01*
X4870000Y86499826D01*
X4841143Y86487903D01*
X4503283Y86150633D01*
X4320209Y85709742D01*
X4319793Y85232353D01*
X4502097Y84791143D01*
X4839367Y84453283D01*
X4870000Y84440563D01*
X4870000Y83959826D01*
X4841143Y83947903D01*
X4503283Y83610633D01*
X4320209Y83169742D01*
X4319793Y82692353D01*
X4502097Y82251143D01*
X4839367Y81913283D01*
X5280258Y81730209D01*
X5757647Y81729793D01*
X6198857Y81912097D01*
X6379289Y82092214D01*
X7234942Y82092214D01*
X7307386Y81878804D01*
X7766950Y81670809D01*
X8271129Y81654514D01*
X8743164Y81832401D01*
X8812614Y81878804D01*
X8885058Y82092214D01*
X9774942Y82092214D01*
X9847386Y81878804D01*
X10306950Y81670809D01*
X10811129Y81654514D01*
X11283164Y81832401D01*
X11352614Y81878804D01*
X11425058Y82092214D01*
X12314942Y82092214D01*
X12387386Y81878804D01*
X12846950Y81670809D01*
X13351129Y81654514D01*
X13823164Y81832401D01*
X13892614Y81878804D01*
X13965058Y82092214D01*
X13140000Y82917272D01*
X12314942Y82092214D01*
X11425058Y82092214D01*
X10600000Y82917272D01*
X9774942Y82092214D01*
X8885058Y82092214D01*
X8060000Y82917272D01*
X7234942Y82092214D01*
X6379289Y82092214D01*
X6536717Y82249367D01*
X6719791Y82690258D01*
X6719815Y82718871D01*
X6784514Y82718871D01*
X6962401Y82246836D01*
X7008804Y82177386D01*
X7222214Y82104942D01*
X8047272Y82930000D01*
X8072728Y82930000D01*
X8897786Y82104942D01*
X9111196Y82177386D01*
X9319191Y82636950D01*
X9321838Y82718871D01*
X9324514Y82718871D01*
X9502401Y82246836D01*
X9548804Y82177386D01*
X9762214Y82104942D01*
X10587272Y82930000D01*
X10612728Y82930000D01*
X11437786Y82104942D01*
X11651196Y82177386D01*
X11859191Y82636950D01*
X11861838Y82718871D01*
X11864514Y82718871D01*
X12042401Y82246836D01*
X12088804Y82177386D01*
X12302214Y82104942D01*
X13127272Y82930000D01*
X13152728Y82930000D01*
X13977786Y82104942D01*
X14191196Y82177386D01*
X14399191Y82636950D01*
X14415486Y83141129D01*
X14237599Y83613164D01*
X14191196Y83682614D01*
X13977786Y83755058D01*
X13152728Y82930000D01*
X13127272Y82930000D01*
X12302214Y83755058D01*
X12088804Y83682614D01*
X11880809Y83223050D01*
X11864514Y82718871D01*
X11861838Y82718871D01*
X11875486Y83141129D01*
X11697599Y83613164D01*
X11651196Y83682614D01*
X11437786Y83755058D01*
X10612728Y82930000D01*
X10587272Y82930000D01*
X9762214Y83755058D01*
X9548804Y83682614D01*
X9340809Y83223050D01*
X9324514Y82718871D01*
X9321838Y82718871D01*
X9335486Y83141129D01*
X9157599Y83613164D01*
X9111196Y83682614D01*
X8897786Y83755058D01*
X8072728Y82930000D01*
X8047272Y82930000D01*
X7222214Y83755058D01*
X7008804Y83682614D01*
X6800809Y83223050D01*
X6784514Y82718871D01*
X6719815Y82718871D01*
X6720207Y83167647D01*
X6537903Y83608857D01*
X6379252Y83767786D01*
X7234942Y83767786D01*
X8060000Y82942728D01*
X8885058Y83767786D01*
X9774942Y83767786D01*
X10600000Y82942728D01*
X11425058Y83767786D01*
X12314942Y83767786D01*
X13140000Y82942728D01*
X13965058Y83767786D01*
X13892614Y83981196D01*
X13433050Y84189191D01*
X12928871Y84205486D01*
X12456836Y84027599D01*
X12387386Y83981196D01*
X12314942Y83767786D01*
X11425058Y83767786D01*
X11352614Y83981196D01*
X10893050Y84189191D01*
X10388871Y84205486D01*
X9916836Y84027599D01*
X9847386Y83981196D01*
X9774942Y83767786D01*
X8885058Y83767786D01*
X8812614Y83981196D01*
X8353050Y84189191D01*
X7848871Y84205486D01*
X7376836Y84027599D01*
X7307386Y83981196D01*
X7234942Y83767786D01*
X6379252Y83767786D01*
X6200633Y83946717D01*
X6170000Y83959437D01*
X6170000Y84440174D01*
X6198857Y84452097D01*
X6379289Y84632214D01*
X7234942Y84632214D01*
X7307386Y84418804D01*
X7766950Y84210809D01*
X8271129Y84194514D01*
X8743164Y84372401D01*
X8812614Y84418804D01*
X8885058Y84632214D01*
X9774942Y84632214D01*
X9847386Y84418804D01*
X10306950Y84210809D01*
X10811129Y84194514D01*
X11283164Y84372401D01*
X11352614Y84418804D01*
X11425058Y84632214D01*
X12314942Y84632214D01*
X12387386Y84418804D01*
X12846950Y84210809D01*
X13351129Y84194514D01*
X13823164Y84372401D01*
X13892614Y84418804D01*
X13965058Y84632214D01*
X13140000Y85457272D01*
X12314942Y84632214D01*
X11425058Y84632214D01*
X10600000Y85457272D01*
X9774942Y84632214D01*
X8885058Y84632214D01*
X8060000Y85457272D01*
X7234942Y84632214D01*
X6379289Y84632214D01*
X6536717Y84789367D01*
X6719791Y85230258D01*
X6719815Y85258871D01*
X6784514Y85258871D01*
X6962401Y84786836D01*
X7008804Y84717386D01*
X7222214Y84644942D01*
X8047272Y85470000D01*
X8072728Y85470000D01*
X8897786Y84644942D01*
X9111196Y84717386D01*
X9319191Y85176950D01*
X9321838Y85258871D01*
X9324514Y85258871D01*
X9502401Y84786836D01*
X9548804Y84717386D01*
X9762214Y84644942D01*
X10587272Y85470000D01*
X10612728Y85470000D01*
X11437786Y84644942D01*
X11651196Y84717386D01*
X11859191Y85176950D01*
X11861838Y85258871D01*
X11864514Y85258871D01*
X12042401Y84786836D01*
X12088804Y84717386D01*
X12302214Y84644942D01*
X13127272Y85470000D01*
X13152728Y85470000D01*
X13977786Y84644942D01*
X14191196Y84717386D01*
X14399191Y85176950D01*
X14415486Y85681129D01*
X14237599Y86153164D01*
X14191196Y86222614D01*
X13977786Y86295058D01*
X13152728Y85470000D01*
X13127272Y85470000D01*
X12302214Y86295058D01*
X12088804Y86222614D01*
X11880809Y85763050D01*
X11864514Y85258871D01*
X11861838Y85258871D01*
X11875486Y85681129D01*
X11697599Y86153164D01*
X11651196Y86222614D01*
X11437786Y86295058D01*
X10612728Y85470000D01*
X10587272Y85470000D01*
X9762214Y86295058D01*
X9548804Y86222614D01*
X9340809Y85763050D01*
X9324514Y85258871D01*
X9321838Y85258871D01*
X9335486Y85681129D01*
X9157599Y86153164D01*
X9111196Y86222614D01*
X8897786Y86295058D01*
X8072728Y85470000D01*
X8047272Y85470000D01*
X7222214Y86295058D01*
X7008804Y86222614D01*
X6800809Y85763050D01*
X6784514Y85258871D01*
X6719815Y85258871D01*
X6720207Y85707647D01*
X6537903Y86148857D01*
X6379252Y86307786D01*
X7234942Y86307786D01*
X8060000Y85482728D01*
X8885058Y86307786D01*
X9774942Y86307786D01*
X10600000Y85482728D01*
X11425058Y86307786D01*
X12314942Y86307786D01*
X13140000Y85482728D01*
X13965058Y86307786D01*
X13892614Y86521196D01*
X13433050Y86729191D01*
X12928871Y86745486D01*
X12456836Y86567599D01*
X12387386Y86521196D01*
X12314942Y86307786D01*
X11425058Y86307786D01*
X11352614Y86521196D01*
X10893050Y86729191D01*
X10388871Y86745486D01*
X9916836Y86567599D01*
X9847386Y86521196D01*
X9774942Y86307786D01*
X8885058Y86307786D01*
X8812614Y86521196D01*
X8353050Y86729191D01*
X7848871Y86745486D01*
X7376836Y86567599D01*
X7307386Y86521196D01*
X7234942Y86307786D01*
X6379252Y86307786D01*
X6200633Y86486717D01*
X6170000Y86499437D01*
X6170000Y87980000D01*
X6120522Y88228744D01*
X6120522Y88228745D01*
X5979619Y88439620D01*
X4037817Y90381421D01*
X4049791Y90410258D01*
X4049792Y90412353D01*
X5349793Y90412353D01*
X5532097Y89971143D01*
X5869367Y89633283D01*
X5900000Y89620563D01*
X5900000Y89050000D01*
X5929359Y88902401D01*
X5949478Y88801255D01*
X6090381Y88590381D01*
X7440380Y87240381D01*
X7651255Y87099478D01*
X7692524Y87091269D01*
X7900000Y87050000D01*
X14430762Y87050000D01*
X14996997Y86483764D01*
X14663283Y86150633D01*
X14480209Y85709742D01*
X14479793Y85232353D01*
X14662097Y84791143D01*
X14999367Y84453283D01*
X15030000Y84440563D01*
X15030000Y84137836D01*
X14880000Y84137836D01*
X14723928Y84106791D01*
X14591616Y84018384D01*
X14503209Y83886072D01*
X14472164Y83730000D01*
X14472164Y82130000D01*
X14503209Y81973928D01*
X14591616Y81841616D01*
X14723928Y81753209D01*
X14880000Y81722164D01*
X16480000Y81722164D01*
X16636072Y81753209D01*
X16768384Y81841616D01*
X16856791Y81973928D01*
X16887836Y82130000D01*
X16887836Y83730000D01*
X16856791Y83886072D01*
X16768384Y84018384D01*
X16636072Y84106791D01*
X16480000Y84137836D01*
X16330000Y84137836D01*
X16330000Y84440174D01*
X16358857Y84452097D01*
X16696717Y84789367D01*
X16879791Y85230258D01*
X16880207Y85707647D01*
X16697903Y86148857D01*
X16360633Y86486717D01*
X16330000Y86499437D01*
X16330000Y86720000D01*
X16280522Y86968744D01*
X16280522Y86968745D01*
X16139619Y87179620D01*
X15159619Y88159619D01*
X14948745Y88300522D01*
X14907476Y88308731D01*
X14700000Y88350000D01*
X8169239Y88350000D01*
X7357025Y89162214D01*
X11174942Y89162214D01*
X11247386Y88948804D01*
X11706950Y88740809D01*
X12211129Y88724514D01*
X12683164Y88902401D01*
X12752614Y88948804D01*
X12825058Y89162214D01*
X12000000Y89987272D01*
X11174942Y89162214D01*
X7357025Y89162214D01*
X7200000Y89319238D01*
X7200000Y89620174D01*
X7228857Y89632097D01*
X7385905Y89788871D01*
X10724514Y89788871D01*
X10902401Y89316836D01*
X10948804Y89247386D01*
X11162214Y89174942D01*
X11987272Y90000000D01*
X12012728Y90000000D01*
X12837786Y89174942D01*
X13051196Y89247386D01*
X13259191Y89706950D01*
X13275486Y90211129D01*
X13097599Y90683164D01*
X13051196Y90752614D01*
X12837786Y90825058D01*
X12012728Y90000000D01*
X11987272Y90000000D01*
X11162214Y90825058D01*
X10948804Y90752614D01*
X10740809Y90293050D01*
X10724514Y89788871D01*
X7385905Y89788871D01*
X7566717Y89969367D01*
X7749791Y90410258D01*
X7750163Y90837786D01*
X11174942Y90837786D01*
X12000000Y90012728D01*
X12825058Y90837786D01*
X12752614Y91051196D01*
X12293050Y91259191D01*
X11788871Y91275486D01*
X11316836Y91097599D01*
X11247386Y91051196D01*
X11174942Y90837786D01*
X7750163Y90837786D01*
X7750207Y90887647D01*
X7567903Y91328857D01*
X7230633Y91666717D01*
X6789742Y91849791D01*
X6312353Y91850207D01*
X5871143Y91667903D01*
X5533283Y91330633D01*
X5350209Y90889742D01*
X5349793Y90412353D01*
X4049792Y90412353D01*
X4050207Y90887647D01*
X3867903Y91328857D01*
X3530633Y91666717D01*
X3089742Y91849791D01*
X2612353Y91850207D01*
X2171143Y91667903D01*
X1833283Y91330633D01*
X1650209Y90889742D01*
X1649793Y90412353D01*
X475000Y90412353D01*
X475000Y102081981D01*
X7180747Y102081981D01*
X8150000Y101112728D01*
X9119253Y102081981D01*
X9022476Y102316173D01*
X8490654Y102557479D01*
X7906970Y102576898D01*
X7360285Y102371471D01*
X7277524Y102316173D01*
X7180747Y102081981D01*
X475000Y102081981D01*
X475000Y103218019D01*
X7180747Y103218019D01*
X7277524Y102983827D01*
X7809346Y102742521D01*
X8393030Y102723102D01*
X8939715Y102928529D01*
X9022476Y102983827D01*
X9119253Y103218019D01*
X8150000Y104187272D01*
X7180747Y103218019D01*
X475000Y103218019D01*
X475000Y103956970D01*
X6673102Y103956970D01*
X6878529Y103410285D01*
X6933827Y103327524D01*
X7168019Y103230747D01*
X8137272Y104200000D01*
X8162728Y104200000D01*
X9131981Y103230747D01*
X9366173Y103327524D01*
X9607479Y103859346D01*
X9626898Y104443030D01*
X9421471Y104989715D01*
X9366173Y105072476D01*
X9131981Y105169253D01*
X8162728Y104200000D01*
X8137272Y104200000D01*
X7168019Y105169253D01*
X6933827Y105072476D01*
X6692521Y104540654D01*
X6673102Y103956970D01*
X475000Y103956970D01*
X475000Y105525000D01*
X7502737Y105525000D01*
X7360285Y105471471D01*
X7360285Y105471471D01*
G37*
X7360285Y105471471D02*
X7277524Y105416173D01*
X7180747Y105181981D01*
X8150000Y104212728D01*
X9119253Y105181981D01*
X9022476Y105416173D01*
X8782629Y105525000D01*
X16450000Y105525000D01*
X16450000Y104469239D01*
X12130762Y100150000D01*
X9178572Y100150000D01*
X9366173Y100227524D01*
X9607479Y100759346D01*
X9626898Y101343030D01*
X9421471Y101889715D01*
X9366173Y101972476D01*
X9131981Y102069253D01*
X8162728Y101100000D01*
X8176870Y101085858D01*
X8164142Y101073130D01*
X8150000Y101087272D01*
X8135858Y101073130D01*
X8123130Y101085858D01*
X8137272Y101100000D01*
X7168019Y102069253D01*
X6933827Y101972476D01*
X6692521Y101440654D01*
X6673102Y100856970D01*
X6878529Y100310285D01*
X6933827Y100227524D01*
X7121428Y100150000D01*
X3600000Y100150000D01*
X3351256Y100100522D01*
X3351254Y100100521D01*
X3351255Y100100521D01*
X3140380Y99959619D01*
X1490381Y98309619D01*
X1349478Y98098745D01*
X1349478Y98098744D01*
X1300000Y97850000D01*
X1300000Y96779826D01*
X1271143Y96767903D01*
X933283Y96430633D01*
X750209Y95989742D01*
X749793Y95512353D01*
X932097Y95071143D01*
X1269367Y94733283D01*
X1710258Y94550209D01*
X2187647Y94549793D01*
X2628857Y94732097D01*
X2966717Y95069367D01*
X3149791Y95510258D01*
X3150207Y95987647D01*
X2967903Y96428857D01*
X2630633Y96766717D01*
X2600000Y96779437D01*
X2600000Y96991000D01*
X8032000Y96991000D01*
X8032000Y96491000D01*
X8147189Y95929906D01*
X8468331Y95455603D01*
X8946536Y95140300D01*
X9261469Y95051509D01*
X9491000Y95149030D01*
X9491000Y96991000D01*
X9509000Y96991000D01*
X9509000Y95149030D01*
X9738531Y95051509D01*
X10053464Y95140300D01*
X10531669Y95455603D01*
X10852811Y95929906D01*
X10968000Y96491000D01*
X10968000Y96991000D01*
X9509000Y96991000D01*
X9491000Y96991000D01*
X8032000Y96991000D01*
X2600000Y96991000D01*
X2600000Y97580762D01*
X3869239Y98850000D01*
X8931824Y98850000D01*
X8468331Y98544397D01*
X8147189Y98070094D01*
X8032000Y97509000D01*
X8032000Y97009000D01*
X9491000Y97009000D01*
X9491000Y97029000D01*
X9509000Y97029000D01*
X9509000Y97009000D01*
X10968000Y97009000D01*
X10968000Y97509000D01*
X10852811Y98070094D01*
X10531669Y98544397D01*
X10068176Y98850000D01*
X12400000Y98850000D01*
X12607476Y98891269D01*
X12648745Y98899478D01*
X12859619Y99040381D01*
X17369239Y103550000D01*
X19603772Y103550000D01*
X19662445Y103408000D01*
X19853337Y103216775D01*
X19850000Y103200000D01*
X19850000Y102079918D01*
X19663830Y101894072D01*
X19604006Y101750000D01*
X17200000Y101750000D01*
X16992524Y101708731D01*
X16951255Y101700522D01*
X16740380Y101559619D01*
X10130762Y94950000D01*
X7369239Y94950000D01*
X6837817Y95481421D01*
X6849791Y95510258D01*
X6850207Y95987647D01*
X6667903Y96428857D01*
X6330633Y96766717D01*
X5889742Y96949791D01*
X5412353Y96950207D01*
X4971143Y96767903D01*
X4633283Y96430633D01*
X4450209Y95989742D01*
X4449793Y95512353D01*
X4632097Y95071143D01*
X4969367Y94733283D01*
X5410258Y94550209D01*
X5887647Y94549793D01*
X5918302Y94562459D01*
X6640381Y93840380D01*
X6743833Y93771256D01*
X6851256Y93699478D01*
X7100000Y93650000D01*
X10400000Y93650000D01*
X10607476Y93691269D01*
X10648745Y93699478D01*
X10859619Y93840381D01*
X14010238Y96991000D01*
X18032000Y96991000D01*
X18032000Y96491000D01*
X18147189Y95929906D01*
X18468331Y95455603D01*
X18946536Y95140300D01*
X19261469Y95051509D01*
X19491000Y95149030D01*
X19491000Y96991000D01*
X19509000Y96991000D01*
X19509000Y95149030D01*
X19738531Y95051509D01*
X20053464Y95140300D01*
X20531669Y95455603D01*
X20852811Y95929906D01*
X20968000Y96491000D01*
X20968000Y96991000D01*
X19509000Y96991000D01*
X19491000Y96991000D01*
X18032000Y96991000D01*
X14010238Y96991000D01*
X14528238Y97509000D01*
X18032000Y97509000D01*
X18032000Y97009000D01*
X19491000Y97009000D01*
X19491000Y98850970D01*
X19509000Y98850970D01*
X19509000Y97009000D01*
X20968000Y97009000D01*
X20968000Y97509000D01*
X20852811Y98070094D01*
X20531669Y98544397D01*
X20053464Y98859700D01*
X19738531Y98948491D01*
X19509000Y98850970D01*
X19491000Y98850970D01*
X19261469Y98948491D01*
X18946536Y98859700D01*
X18468331Y98544397D01*
X18147189Y98070094D01*
X18032000Y97509000D01*
X14528238Y97509000D01*
X17469239Y100450000D01*
X19603772Y100450000D01*
X19662445Y100308000D01*
X20055928Y99913830D01*
X20570301Y99700243D01*
X21127256Y99699757D01*
X21642000Y99912445D01*
X22036170Y100305928D01*
X22095994Y100450000D01*
X23520000Y100450000D01*
X23727476Y100491269D01*
X23768745Y100499478D01*
X23979619Y100640381D01*
X26178403Y102839164D01*
X26320301Y102780243D01*
X26877256Y102779757D01*
X27392000Y102992445D01*
X27449655Y103050000D01*
X28525000Y103050000D01*
X28525000Y59955906D01*
X28478035Y60183558D01*
X28200247Y60592976D01*
X27786927Y60864924D01*
X27517243Y60940949D01*
X27319000Y60840965D01*
X27319000Y59399000D01*
X27339000Y59399000D01*
X27339000Y59381000D01*
X27319000Y59381000D01*
X27319000Y57939035D01*
X27517243Y57839051D01*
X27786927Y57915076D01*
X28200247Y58187024D01*
X28478035Y58596442D01*
X28525000Y58824094D01*
X28525000Y475000D01*
X475000Y475000D01*
X475000Y1668019D01*
X6030747Y1668019D01*
X6127524Y1433827D01*
X6659346Y1192521D01*
X7243030Y1173102D01*
X7789715Y1378529D01*
X7872476Y1433827D01*
X7969253Y1668019D01*
X21030747Y1668019D01*
X21127524Y1433827D01*
X21659346Y1192521D01*
X22243030Y1173102D01*
X22789715Y1378529D01*
X22872476Y1433827D01*
X22969253Y1668019D01*
X22000000Y2637272D01*
X21030747Y1668019D01*
X7969253Y1668019D01*
X7000000Y2637272D01*
X6030747Y1668019D01*
X475000Y1668019D01*
X475000Y2406970D01*
X5523102Y2406970D01*
X5728529Y1860285D01*
X5783827Y1777524D01*
X6018019Y1680747D01*
X6987272Y2650000D01*
X7012728Y2650000D01*
X7981981Y1680747D01*
X8216173Y1777524D01*
X8457479Y2309346D01*
X8460726Y2406970D01*
X20523102Y2406970D01*
X20728529Y1860285D01*
X20783827Y1777524D01*
X21018019Y1680747D01*
X21987272Y2650000D01*
X22012728Y2650000D01*
X22981981Y1680747D01*
X23216173Y1777524D01*
X23457479Y2309346D01*
X23476898Y2893030D01*
X23271471Y3439715D01*
X23216173Y3522476D01*
X22981981Y3619253D01*
X22012728Y2650000D01*
X21987272Y2650000D01*
X21018019Y3619253D01*
X20783827Y3522476D01*
X20542521Y2990654D01*
X20523102Y2406970D01*
X8460726Y2406970D01*
X8476898Y2893030D01*
X8271471Y3439715D01*
X8216173Y3522476D01*
X7981981Y3619253D01*
X7012728Y2650000D01*
X6987272Y2650000D01*
X6018019Y3619253D01*
X5783827Y3522476D01*
X5542521Y2990654D01*
X5523102Y2406970D01*
X475000Y2406970D01*
X475000Y3631981D01*
X6030747Y3631981D01*
X7000000Y2662728D01*
X7969253Y3631981D01*
X21030747Y3631981D01*
X22000000Y2662728D01*
X22969253Y3631981D01*
X22872476Y3866173D01*
X22340654Y4107479D01*
X21756970Y4126898D01*
X21210285Y3921471D01*
X21127524Y3866173D01*
X21030747Y3631981D01*
X7969253Y3631981D01*
X7872476Y3866173D01*
X7340654Y4107479D01*
X6756970Y4126898D01*
X6210285Y3921471D01*
X6127524Y3866173D01*
X6030747Y3631981D01*
X475000Y3631981D01*
X475000Y5420744D01*
X5599757Y5420744D01*
X5812445Y4906000D01*
X6205928Y4511830D01*
X6720301Y4298243D01*
X7277256Y4297757D01*
X7792000Y4510445D01*
X8186170Y4903928D01*
X8399757Y5418301D01*
X8399759Y5420744D01*
X20599757Y5420744D01*
X20812445Y4906000D01*
X21205928Y4511830D01*
X21720301Y4298243D01*
X22277256Y4297757D01*
X22792000Y4510445D01*
X23186170Y4903928D01*
X23399757Y5418301D01*
X23400243Y5975256D01*
X23187555Y6490000D01*
X22794072Y6884170D01*
X22279699Y7097757D01*
X21722744Y7098243D01*
X21208000Y6885555D01*
X20813830Y6492072D01*
X20600243Y5977699D01*
X20599757Y5420744D01*
X8399759Y5420744D01*
X8400243Y5975256D01*
X8187555Y6490000D01*
X7794072Y6884170D01*
X7279699Y7097757D01*
X6722744Y7098243D01*
X6208000Y6885555D01*
X5813830Y6492072D01*
X5600243Y5977699D01*
X5599757Y5420744D01*
X475000Y5420744D01*
X475000Y16668019D01*
X4030747Y16668019D01*
X4127524Y16433827D01*
X4659346Y16192521D01*
X5243030Y16173102D01*
X5789715Y16378529D01*
X5872476Y16433827D01*
X5969253Y16668019D01*
X5000000Y17637272D01*
X4030747Y16668019D01*
X475000Y16668019D01*
X475000Y17406970D01*
X3523102Y17406970D01*
X3728529Y16860285D01*
X3783827Y16777524D01*
X4018019Y16680747D01*
X4987272Y17650000D01*
X4018019Y18619253D01*
X3783827Y18522476D01*
X3542521Y17990654D01*
X3523102Y17406970D01*
X475000Y17406970D01*
X475000Y18631981D01*
X4030747Y18631981D01*
X5000000Y17662728D01*
X5969253Y18631981D01*
X5872476Y18866173D01*
X5340654Y19107479D01*
X4756970Y19126898D01*
X4210285Y18921471D01*
X4127524Y18866173D01*
X4030747Y18631981D01*
X475000Y18631981D01*
X475000Y19716019D01*
X4030747Y19716019D01*
X4127524Y19481827D01*
X4659346Y19240521D01*
X5243030Y19221102D01*
X5789715Y19426529D01*
X5872476Y19481827D01*
X5969253Y19716019D01*
X5000000Y20685272D01*
X4030747Y19716019D01*
X475000Y19716019D01*
X475000Y20454970D01*
X3523102Y20454970D01*
X3728529Y19908285D01*
X3783827Y19825524D01*
X4018019Y19728747D01*
X4987272Y20698000D01*
X4018019Y21667253D01*
X3783827Y21570476D01*
X3542521Y21038654D01*
X3523102Y20454970D01*
X475000Y20454970D01*
X475000Y21679981D01*
X4030747Y21679981D01*
X5000000Y20710728D01*
X5969253Y21679981D01*
X5872476Y21914173D01*
X5340654Y22155479D01*
X4756970Y22174898D01*
X4210285Y21969471D01*
X4127524Y21914173D01*
X4030747Y21679981D01*
X475000Y21679981D01*
X475000Y47822744D01*
X799757Y47822744D01*
X1012445Y47308000D01*
X1405928Y46913830D01*
X1550000Y46854006D01*
X1550000Y46704044D01*
X1312736Y46467194D01*
X1160174Y46099785D01*
X1159827Y45701960D01*
X1311747Y45334286D01*
X1592806Y45052736D01*
X1960215Y44900174D01*
X2358040Y44899827D01*
X2725714Y45051747D01*
X3007264Y45332806D01*
X3159826Y45700215D01*
X3160173Y46098040D01*
X3008253Y46465714D01*
X2850000Y46624243D01*
X2850000Y46853772D01*
X2992000Y46912445D01*
X3386170Y47305928D01*
X3599757Y47820301D01*
X3600243Y48377256D01*
X3387555Y48892000D01*
X2994072Y49286170D01*
X2479699Y49499757D01*
X1922744Y49500243D01*
X1408000Y49287555D01*
X1013830Y48894072D01*
X800243Y48379699D01*
X799757Y47822744D01*
X475000Y47822744D01*
X475000Y65622744D01*
X799757Y65622744D01*
X1012445Y65108000D01*
X1405928Y64713830D01*
X1550000Y64654006D01*
X1550000Y59346228D01*
X1408000Y59287555D01*
X1013830Y58894072D01*
X800243Y58379699D01*
X799757Y57822744D01*
X1012445Y57308000D01*
X1405928Y56913830D01*
X1920301Y56700243D01*
X2477256Y56699757D01*
X2621432Y56759329D01*
X2940380Y56440381D01*
X3151255Y56299478D01*
X3192524Y56291269D01*
X3400000Y56250000D01*
X3770174Y56250000D01*
X3782097Y56221143D01*
X4119367Y55883283D01*
X4560258Y55700209D01*
X5037647Y55699793D01*
X5478857Y55882097D01*
X5816717Y56219367D01*
X5829437Y56250000D01*
X5970174Y56250000D01*
X5982097Y56221143D01*
X6319367Y55883283D01*
X6760258Y55700209D01*
X6980778Y55700017D01*
X4340381Y53059619D01*
X4199478Y52848745D01*
X4199478Y52848744D01*
X4150000Y52600000D01*
X4150000Y50329826D01*
X4121143Y50317903D01*
X3783283Y49980633D01*
X3600209Y49539742D01*
X3599793Y49062353D01*
X3782097Y48621143D01*
X4119367Y48283283D01*
X4150000Y48270563D01*
X4150000Y47769239D01*
X3540381Y47159619D01*
X3399478Y46948745D01*
X3399478Y46948744D01*
X3350000Y46700000D01*
X3350000Y38700000D01*
X3389741Y38500207D01*
X3399478Y38451255D01*
X3540381Y38240381D01*
X4212183Y37568579D01*
X4200209Y37539742D01*
X4199793Y37062353D01*
X4382097Y36621143D01*
X4719367Y36283283D01*
X5160258Y36100209D01*
X5637647Y36099793D01*
X6078857Y36282097D01*
X6416717Y36619367D01*
X6599791Y37060258D01*
X6600207Y37537647D01*
X6417903Y37978857D01*
X6080633Y38316717D01*
X5880116Y38399979D01*
X6078857Y38482097D01*
X6416717Y38819367D01*
X6599791Y39260258D01*
X6600207Y39737647D01*
X6417903Y40178857D01*
X6080633Y40516717D01*
X6050000Y40529437D01*
X6050000Y45730762D01*
X6240018Y45920780D01*
X6239827Y45701960D01*
X6391747Y45334286D01*
X6672806Y45052736D01*
X7040215Y44900174D01*
X7438040Y44899827D01*
X7805714Y45051747D01*
X8050000Y45295607D01*
X8050000Y36469239D01*
X4540381Y32959619D01*
X4399478Y32748745D01*
X4399478Y32748744D01*
X4350000Y32500000D01*
X4350000Y30072228D01*
X4208000Y30013555D01*
X3813830Y29620072D01*
X3650000Y29225527D01*
X3650000Y33153772D01*
X3792000Y33212445D01*
X4186170Y33605928D01*
X4399757Y34120301D01*
X4400243Y34677256D01*
X4187555Y35192000D01*
X3794072Y35586170D01*
X3279699Y35799757D01*
X2722744Y35800243D01*
X2208000Y35587555D01*
X1813830Y35194072D01*
X1600243Y34679699D01*
X1599757Y34122744D01*
X1812445Y33608000D01*
X2205928Y33213830D01*
X2350000Y33154006D01*
X2350000Y26500000D01*
X2381750Y26340381D01*
X2399478Y26251255D01*
X2540381Y26040381D01*
X6350000Y22230761D01*
X6350000Y21278733D01*
X6271471Y21487715D01*
X6216173Y21570476D01*
X5981981Y21667253D01*
X5012728Y20698000D01*
X5981981Y19728747D01*
X6216173Y19825524D01*
X6350000Y20120470D01*
X6350000Y18230733D01*
X6271471Y18439715D01*
X6216173Y18522476D01*
X5981981Y18619253D01*
X5012728Y17650000D01*
X5981981Y16680747D01*
X6216173Y16777524D01*
X6350000Y17072470D01*
X6350000Y15072228D01*
X6208000Y15013555D01*
X5813830Y14620072D01*
X5600243Y14105699D01*
X5599757Y13548744D01*
X5812445Y13034000D01*
X6205928Y12639830D01*
X6720301Y12426243D01*
X7277256Y12425757D01*
X7792000Y12638445D01*
X8186170Y13031928D01*
X8399757Y13546301D01*
X8400243Y14103256D01*
X8187555Y14618000D01*
X7794072Y15012170D01*
X7650000Y15071994D01*
X7650000Y16668019D01*
X13530747Y16668019D01*
X13627524Y16433827D01*
X14159346Y16192521D01*
X14743030Y16173102D01*
X15289715Y16378529D01*
X15372476Y16433827D01*
X15469253Y16668019D01*
X14500000Y17637272D01*
X13530747Y16668019D01*
X7650000Y16668019D01*
X7650000Y17406970D01*
X13023102Y17406970D01*
X13228529Y16860285D01*
X13283827Y16777524D01*
X13518019Y16680747D01*
X14487272Y17650000D01*
X14512728Y17650000D01*
X15481981Y16680747D01*
X15716173Y16777524D01*
X15957479Y17309346D01*
X15976898Y17893030D01*
X15771471Y18439715D01*
X15716173Y18522476D01*
X15481981Y18619253D01*
X14512728Y17650000D01*
X14487272Y17650000D01*
X13518019Y18619253D01*
X13283827Y18522476D01*
X13042521Y17990654D01*
X13023102Y17406970D01*
X7650000Y17406970D01*
X7650000Y18631981D01*
X13530747Y18631981D01*
X14500000Y17662728D01*
X15469253Y18631981D01*
X15372476Y18866173D01*
X14840654Y19107479D01*
X14256970Y19126898D01*
X13710285Y18921471D01*
X13627524Y18866173D01*
X13530747Y18631981D01*
X7650000Y18631981D01*
X7650000Y19716019D01*
X13530747Y19716019D01*
X13627524Y19481827D01*
X14159346Y19240521D01*
X14743030Y19221102D01*
X15289715Y19426529D01*
X15372476Y19481827D01*
X15469253Y19716019D01*
X14500000Y20685272D01*
X13530747Y19716019D01*
X7650000Y19716019D01*
X7650000Y20454970D01*
X13023102Y20454970D01*
X13228529Y19908285D01*
X13283827Y19825524D01*
X13518019Y19728747D01*
X14487272Y20698000D01*
X14512728Y20698000D01*
X15481981Y19728747D01*
X15716173Y19825524D01*
X15957479Y20357346D01*
X15976898Y20941030D01*
X15771471Y21487715D01*
X15716173Y21570476D01*
X15481981Y21667253D01*
X14512728Y20698000D01*
X14487272Y20698000D01*
X13518019Y21667253D01*
X13283827Y21570476D01*
X13042521Y21038654D01*
X13023102Y20454970D01*
X7650000Y20454970D01*
X7650000Y21679981D01*
X13530747Y21679981D01*
X14500000Y20710728D01*
X15469253Y21679981D01*
X15372476Y21914173D01*
X14840654Y22155479D01*
X14256970Y22174898D01*
X13710285Y21969471D01*
X13627524Y21914173D01*
X13530747Y21679981D01*
X7650000Y21679981D01*
X7650000Y22500000D01*
X7600522Y22748744D01*
X7600522Y22748745D01*
X7459619Y22959620D01*
X3650000Y26769238D01*
X3650000Y28427147D01*
X3812445Y28034000D01*
X4205928Y27639830D01*
X4720301Y27426243D01*
X5277256Y27425757D01*
X5792000Y27638445D01*
X6186170Y28031928D01*
X6399757Y28546301D01*
X6400243Y29103256D01*
X6187555Y29618000D01*
X5794072Y30012170D01*
X5650000Y30071994D01*
X5650000Y32230762D01*
X9159619Y35740380D01*
X9300522Y35951255D01*
X9325085Y36074745D01*
X9350000Y36200000D01*
X9350000Y47730762D01*
X11959619Y50340381D01*
X12100522Y50551255D01*
X12108731Y50592524D01*
X12150000Y50800000D01*
X12150000Y59150000D01*
X13750000Y59150000D01*
X13750000Y51469238D01*
X10040381Y47759619D01*
X9899478Y47548745D01*
X9891269Y47507476D01*
X9850000Y47300000D01*
X9850000Y32826000D01*
X9891269Y32618524D01*
X9899478Y32577255D01*
X10040381Y32366381D01*
X13159164Y29247597D01*
X13100243Y29105699D01*
X13099757Y28548744D01*
X13312445Y28034000D01*
X13705928Y27639830D01*
X14220301Y27426243D01*
X14777256Y27425757D01*
X15292000Y27638445D01*
X15686170Y28031928D01*
X15899757Y28546301D01*
X15900243Y29103256D01*
X15687555Y29618000D01*
X15294072Y30012170D01*
X14779699Y30225757D01*
X14222744Y30226243D01*
X14078568Y30166671D01*
X11150000Y33095238D01*
X11150000Y34122744D01*
X11599757Y34122744D01*
X11812445Y33608000D01*
X12205928Y33213830D01*
X12720301Y33000243D01*
X13277256Y32999757D01*
X13792000Y33212445D01*
X14186170Y33605928D01*
X14245994Y33750000D01*
X14653772Y33750000D01*
X14712445Y33608000D01*
X15105928Y33213830D01*
X15620301Y33000243D01*
X16177256Y32999757D01*
X16692000Y33212445D01*
X17086170Y33605928D01*
X17299757Y34120301D01*
X17300181Y34606581D01*
X22659165Y29247597D01*
X22600243Y29105699D01*
X22599757Y28548744D01*
X22812445Y28034000D01*
X23205928Y27639830D01*
X23720301Y27426243D01*
X24277256Y27425757D01*
X24792000Y27638445D01*
X25186170Y28031928D01*
X25250000Y28185647D01*
X25250000Y27069238D01*
X21540381Y23359619D01*
X21399478Y23148745D01*
X21399478Y23148744D01*
X21350000Y22900000D01*
X21350000Y15072228D01*
X21208000Y15013555D01*
X20813830Y14620072D01*
X20600243Y14105699D01*
X20599757Y13548744D01*
X20812445Y13034000D01*
X21205928Y12639830D01*
X21720301Y12426243D01*
X22277256Y12425757D01*
X22792000Y12638445D01*
X23186170Y13031928D01*
X23399757Y13546301D01*
X23400243Y14103256D01*
X23187555Y14618000D01*
X22794072Y15012170D01*
X22650000Y15071994D01*
X22650000Y16668019D01*
X23030747Y16668019D01*
X23127524Y16433827D01*
X23659346Y16192521D01*
X24243030Y16173102D01*
X24789715Y16378529D01*
X24872476Y16433827D01*
X24969253Y16668019D01*
X24000000Y17637272D01*
X23030747Y16668019D01*
X22650000Y16668019D01*
X22650000Y17069267D01*
X22728529Y16860285D01*
X22783827Y16777524D01*
X23018019Y16680747D01*
X23987272Y17650000D01*
X24012728Y17650000D01*
X24981981Y16680747D01*
X25216173Y16777524D01*
X25457479Y17309346D01*
X25476898Y17893030D01*
X25271471Y18439715D01*
X25216173Y18522476D01*
X24981981Y18619253D01*
X24012728Y17650000D01*
X23987272Y17650000D01*
X23018019Y18619253D01*
X22783827Y18522476D01*
X22650000Y18227530D01*
X22650000Y18631981D01*
X23030747Y18631981D01*
X24000000Y17662728D01*
X24969253Y18631981D01*
X24872476Y18866173D01*
X24340654Y19107479D01*
X23756970Y19126898D01*
X23210285Y18921471D01*
X23127524Y18866173D01*
X23030747Y18631981D01*
X22650000Y18631981D01*
X22650000Y19716019D01*
X23030747Y19716019D01*
X23127524Y19481827D01*
X23659346Y19240521D01*
X24243030Y19221102D01*
X24789715Y19426529D01*
X24872476Y19481827D01*
X24969253Y19716019D01*
X24000000Y20685272D01*
X23030747Y19716019D01*
X22650000Y19716019D01*
X22650000Y20117267D01*
X22728529Y19908285D01*
X22783827Y19825524D01*
X23018019Y19728747D01*
X23987272Y20698000D01*
X24012728Y20698000D01*
X24981981Y19728747D01*
X25216173Y19825524D01*
X25457479Y20357346D01*
X25476898Y20941030D01*
X25271471Y21487715D01*
X25216173Y21570476D01*
X24981981Y21667253D01*
X24012728Y20698000D01*
X23987272Y20698000D01*
X23018019Y21667253D01*
X22783827Y21570476D01*
X22650000Y21275530D01*
X22650000Y21679981D01*
X23030747Y21679981D01*
X24000000Y20710728D01*
X24969253Y21679981D01*
X24872476Y21914173D01*
X24340654Y22155479D01*
X23756970Y22174898D01*
X23210285Y21969471D01*
X23127524Y21914173D01*
X23030747Y21679981D01*
X22650000Y21679981D01*
X22650000Y22630762D01*
X26359619Y26340381D01*
X26500522Y26551255D01*
X26508731Y26592524D01*
X26550000Y26800000D01*
X26550000Y33153772D01*
X26692000Y33212445D01*
X27086170Y33605928D01*
X27299757Y34120301D01*
X27300243Y34677256D01*
X27087555Y35192000D01*
X26694072Y35586170D01*
X26179699Y35799757D01*
X25622744Y35800243D01*
X25108000Y35587555D01*
X24713830Y35194072D01*
X24500243Y34679699D01*
X24499757Y34122744D01*
X24712445Y33608000D01*
X25105928Y33213830D01*
X25250000Y33154006D01*
X25250000Y29466872D01*
X25187555Y29618000D01*
X24794072Y30012170D01*
X24279699Y30225757D01*
X23722744Y30226243D01*
X23578568Y30166670D01*
X17650000Y36095238D01*
X17650000Y44970174D01*
X17678857Y44982097D01*
X18016717Y45319367D01*
X18199791Y45760258D01*
X18200207Y46237647D01*
X18017903Y46678857D01*
X17680633Y47016717D01*
X17239742Y47199791D01*
X16762353Y47200207D01*
X16321143Y47017903D01*
X15983283Y46680633D01*
X15800209Y46239742D01*
X15799793Y45762353D01*
X15982097Y45321143D01*
X16319367Y44983283D01*
X16350000Y44970563D01*
X16350000Y35826000D01*
X16367031Y35740381D01*
X16371023Y35720312D01*
X16179699Y35799757D01*
X15622744Y35800243D01*
X15108000Y35587555D01*
X14713830Y35194072D01*
X14654006Y35050000D01*
X14246228Y35050000D01*
X14187555Y35192000D01*
X13794072Y35586170D01*
X13650000Y35645994D01*
X13650000Y36270174D01*
X13678857Y36282097D01*
X14016717Y36619367D01*
X14199791Y37060258D01*
X14200207Y37537647D01*
X14017903Y37978857D01*
X13680633Y38316717D01*
X13650000Y38329437D01*
X13650000Y38470174D01*
X13678857Y38482097D01*
X14016717Y38819367D01*
X14199791Y39260258D01*
X14200207Y39737647D01*
X14017903Y40178857D01*
X13680633Y40516717D01*
X13239742Y40699791D01*
X12762353Y40700207D01*
X12321143Y40517903D01*
X11983283Y40180633D01*
X11800209Y39739742D01*
X11799793Y39262353D01*
X11982097Y38821143D01*
X12319367Y38483283D01*
X12350000Y38470563D01*
X12350000Y38329826D01*
X12321143Y38317903D01*
X11983283Y37980633D01*
X11800209Y37539742D01*
X11799793Y37062353D01*
X11982097Y36621143D01*
X12319367Y36283283D01*
X12350000Y36270563D01*
X12350000Y35646228D01*
X12208000Y35587555D01*
X11813830Y35194072D01*
X11600243Y34679699D01*
X11599757Y34122744D01*
X11150000Y34122744D01*
X11150000Y45137269D01*
X11174943Y45162212D01*
X11247386Y44948804D01*
X11706950Y44740809D01*
X12211129Y44724514D01*
X12683164Y44902401D01*
X12752614Y44948804D01*
X12825058Y45162214D01*
X12000000Y45987272D01*
X11985858Y45973130D01*
X11973130Y45985858D01*
X11987272Y46000000D01*
X12012728Y46000000D01*
X12837786Y45174942D01*
X13051196Y45247386D01*
X13259191Y45706950D01*
X13260981Y45762353D01*
X13299793Y45762353D01*
X13482097Y45321143D01*
X13819367Y44983283D01*
X14260258Y44800209D01*
X14737647Y44799793D01*
X15178857Y44982097D01*
X15516717Y45319367D01*
X15699791Y45760258D01*
X15700207Y46237647D01*
X15517903Y46678857D01*
X15180633Y47016717D01*
X14739742Y47199791D01*
X14262353Y47200207D01*
X13821143Y47017903D01*
X13483283Y46680633D01*
X13300209Y46239742D01*
X13299793Y45762353D01*
X13260981Y45762353D01*
X13275486Y46211129D01*
X13097599Y46683164D01*
X13051196Y46752614D01*
X12837786Y46825058D01*
X12012728Y46000000D01*
X11987272Y46000000D01*
X11973130Y46014142D01*
X11985858Y46026870D01*
X12000000Y46012728D01*
X12825058Y46837786D01*
X12752614Y47051196D01*
X12450000Y47188157D01*
X12450000Y48300000D01*
X12444896Y48325658D01*
X14859619Y50740381D01*
X15000522Y50951255D01*
X15003536Y50966412D01*
X21219140Y50966412D01*
X21267250Y50773783D01*
X21654555Y50599099D01*
X22079228Y50585927D01*
X22476614Y50736274D01*
X22532750Y50773783D01*
X22580860Y50966412D01*
X21900000Y51647272D01*
X21219140Y50966412D01*
X15003536Y50966412D01*
X15015638Y51027250D01*
X15050000Y51200000D01*
X15050000Y52991000D01*
X18032000Y52991000D01*
X18032000Y52491000D01*
X18147189Y51929906D01*
X18468331Y51455603D01*
X18946536Y51140300D01*
X19261469Y51051509D01*
X19491000Y51149030D01*
X19491000Y52991000D01*
X19509000Y52991000D01*
X19509000Y51149030D01*
X19738531Y51051509D01*
X20053464Y51140300D01*
X20531669Y51455603D01*
X20844785Y51918053D01*
X20839099Y51905445D01*
X20825927Y51480772D01*
X20976274Y51083386D01*
X21013783Y51027250D01*
X21206412Y50979140D01*
X21887272Y51660000D01*
X21912728Y51660000D01*
X22593588Y50979140D01*
X22786217Y51027250D01*
X22960901Y51414555D01*
X22974073Y51839228D01*
X22823726Y52236614D01*
X22786217Y52292750D01*
X22593588Y52340860D01*
X21912728Y51660000D01*
X21887272Y51660000D01*
X21206412Y52340860D01*
X21013783Y52292750D01*
X20855050Y51940810D01*
X20939790Y52353588D01*
X21219140Y52353588D01*
X21900000Y51672728D01*
X22580860Y52353588D01*
X22532750Y52546217D01*
X22145445Y52720901D01*
X21720772Y52734073D01*
X21323386Y52583726D01*
X21267250Y52546217D01*
X21219140Y52353588D01*
X20939790Y52353588D01*
X20968000Y52491000D01*
X20968000Y52991000D01*
X19509000Y52991000D01*
X19491000Y52991000D01*
X18032000Y52991000D01*
X15050000Y52991000D01*
X15050000Y59150000D01*
X15553772Y59150000D01*
X15612445Y59008000D01*
X16005928Y58613830D01*
X16150000Y58554006D01*
X16150000Y58000000D01*
X16179587Y57851256D01*
X16199478Y57751255D01*
X16340381Y57540381D01*
X19004672Y54876090D01*
X18946536Y54859700D01*
X18468331Y54544397D01*
X18147189Y54070094D01*
X18032000Y53509000D01*
X18032000Y53009000D01*
X19491000Y53009000D01*
X19491000Y53029000D01*
X19509000Y53029000D01*
X19509000Y53009000D01*
X20968000Y53009000D01*
X20968000Y53509000D01*
X20852811Y54070094D01*
X20531669Y54544397D01*
X20523171Y54550000D01*
X21447833Y54550000D01*
X21517885Y54479826D01*
X21830183Y54350148D01*
X22168334Y54349853D01*
X22480857Y54478985D01*
X22491791Y54489900D01*
X22499478Y54451255D01*
X22640381Y54240381D01*
X24150000Y52730762D01*
X24150000Y47746228D01*
X24008000Y47687555D01*
X23613830Y47294072D01*
X23400243Y46779699D01*
X23399757Y46222744D01*
X23612445Y45708000D01*
X24005928Y45313830D01*
X24150000Y45254006D01*
X24150000Y43569239D01*
X19230822Y38650060D01*
X19131666Y38650147D01*
X18819143Y38521015D01*
X18579826Y38282115D01*
X18450148Y37969817D01*
X18449853Y37631666D01*
X18578985Y37319143D01*
X18817885Y37079826D01*
X19130183Y36950148D01*
X19468334Y36949853D01*
X19780857Y37078985D01*
X20020174Y37317885D01*
X20149852Y37630183D01*
X20149940Y37730702D01*
X25259620Y42840381D01*
X25400522Y43051256D01*
X25450000Y43300000D01*
X25450000Y45253772D01*
X25592000Y45312445D01*
X25986170Y45705928D01*
X26199757Y46220301D01*
X26200243Y46777256D01*
X25987555Y47292000D01*
X25594072Y47686170D01*
X25450000Y47745994D01*
X25450000Y53000000D01*
X25425619Y53122574D01*
X25444229Y53158792D01*
X25450000Y53200000D01*
X25450000Y55253772D01*
X25592000Y55312445D01*
X25986170Y55705928D01*
X26199757Y56220301D01*
X26200243Y56777256D01*
X25987555Y57292000D01*
X25594072Y57686170D01*
X25420000Y57758451D01*
X25420000Y58079433D01*
X25618528Y58212085D01*
X25878655Y58601393D01*
X25970000Y59060613D01*
X25970000Y59381000D01*
X26042000Y59381000D01*
X26042000Y59081000D01*
X26141965Y58596442D01*
X26419753Y58187024D01*
X26833073Y57915076D01*
X27102757Y57839051D01*
X27301000Y57939035D01*
X27301000Y59381000D01*
X26042000Y59381000D01*
X25970000Y59381000D01*
X25970000Y59699000D01*
X26042000Y59699000D01*
X26042000Y59399000D01*
X27301000Y59399000D01*
X27301000Y60840965D01*
X27102757Y60940949D01*
X26833073Y60864924D01*
X26419753Y60592976D01*
X26141965Y60183558D01*
X26042000Y59699000D01*
X25970000Y59699000D01*
X25970000Y59719387D01*
X25878655Y60178607D01*
X25618528Y60567915D01*
X25420000Y60700567D01*
X25420000Y60830000D01*
X25370522Y61078744D01*
X25289663Y61199757D01*
X25229619Y61289620D01*
X24759619Y61759619D01*
X24548745Y61900522D01*
X24507476Y61908731D01*
X24300000Y61950000D01*
X23169238Y61950000D01*
X26815062Y65595824D01*
X26850780Y65571958D01*
X27310000Y65480613D01*
X27769220Y65571958D01*
X28158528Y65832085D01*
X28418655Y66221393D01*
X28510000Y66680613D01*
X28510000Y67339387D01*
X28418655Y67798607D01*
X28158528Y68187915D01*
X27990000Y68300522D01*
X27990000Y69035886D01*
X28187264Y69232806D01*
X28339826Y69600215D01*
X28340173Y69998040D01*
X28188253Y70365714D01*
X27990000Y70564313D01*
X27990000Y75235886D01*
X28187264Y75432806D01*
X28339826Y75800215D01*
X28340173Y76198040D01*
X28188253Y76565714D01*
X27907194Y76847264D01*
X27539785Y76999826D01*
X27259168Y77000071D01*
X26800000Y77459238D01*
X26800000Y79594588D01*
X27081991Y79876087D01*
X27249808Y80280237D01*
X27250190Y80717844D01*
X27083078Y81122286D01*
X26800000Y81405858D01*
X26800000Y82480762D01*
X28159619Y83840381D01*
X28300522Y84051255D01*
X28308731Y84092524D01*
X28350000Y84300000D01*
X28350000Y88200000D01*
X28300522Y88448744D01*
X28300032Y88449478D01*
X28159620Y88659619D01*
X27250000Y89569239D01*
X27250000Y90513237D01*
X27416614Y90576274D01*
X27472750Y90613783D01*
X27520860Y90806412D01*
X26840000Y91487272D01*
X26825858Y91473130D01*
X26813130Y91485858D01*
X26827272Y91500000D01*
X26852728Y91500000D01*
X27533588Y90819140D01*
X27726217Y90867250D01*
X27900901Y91254555D01*
X27914073Y91679228D01*
X27763726Y92076614D01*
X27726217Y92132750D01*
X27533588Y92180860D01*
X26852728Y91500000D01*
X26827272Y91500000D01*
X26146412Y92180860D01*
X25953783Y92132750D01*
X25950000Y92124362D01*
X25950000Y92193588D01*
X26159140Y92193588D01*
X26840000Y91512728D01*
X27520860Y92193588D01*
X27472750Y92386217D01*
X27085445Y92560901D01*
X26660772Y92574073D01*
X26263386Y92423726D01*
X26207250Y92386217D01*
X26159140Y92193588D01*
X25950000Y92193588D01*
X25950000Y92450762D01*
X26178403Y92679164D01*
X26320301Y92620243D01*
X26877256Y92619757D01*
X27392000Y92832445D01*
X27786170Y93225928D01*
X27999757Y93740301D01*
X28000243Y94297256D01*
X27787555Y94812000D01*
X27394072Y95206170D01*
X26879699Y95419757D01*
X26322744Y95420243D01*
X25808000Y95207555D01*
X25413830Y94814072D01*
X25200243Y94299699D01*
X25199757Y93742744D01*
X25259329Y93598568D01*
X24840381Y93179619D01*
X24699478Y92968745D01*
X24699478Y92968744D01*
X24650000Y92720000D01*
X24650000Y90600000D01*
X24682005Y90439099D01*
X24699478Y90351255D01*
X24840381Y90140381D01*
X27050000Y87930761D01*
X27050000Y87813081D01*
X26915686Y87852958D01*
X26162728Y87100000D01*
X26915686Y86347042D01*
X27050000Y86386919D01*
X27050000Y84569238D01*
X25690381Y83209619D01*
X25549478Y82998745D01*
X25549478Y82998744D01*
X25500000Y82750000D01*
X25500000Y81405412D01*
X25218009Y81123913D01*
X25050192Y80719763D01*
X25049810Y80282156D01*
X25216922Y79877714D01*
X25500000Y79594142D01*
X25500000Y77190000D01*
X25537759Y77000173D01*
X25549478Y76941255D01*
X25690381Y76730381D01*
X26340070Y76080691D01*
X26339827Y75801960D01*
X26491747Y75434286D01*
X26690000Y75235687D01*
X26690000Y70564114D01*
X26492736Y70367194D01*
X26340174Y69999785D01*
X26339827Y69601960D01*
X26491747Y69234286D01*
X26690000Y69035687D01*
X26690000Y68340612D01*
X26461472Y68187915D01*
X26201345Y67798607D01*
X26110000Y67339387D01*
X26110000Y66729238D01*
X26026625Y66645863D01*
X26038000Y66701000D01*
X26038000Y67001000D01*
X24779000Y67001000D01*
X24779000Y66981000D01*
X24761000Y66981000D01*
X24761000Y67001000D01*
X24741000Y67001000D01*
X24741000Y67019000D01*
X24761000Y67019000D01*
X24761000Y68460965D01*
X24779000Y68460965D01*
X24779000Y67019000D01*
X26038000Y67019000D01*
X26038000Y67319000D01*
X25938035Y67803558D01*
X25660247Y68212976D01*
X25246927Y68484924D01*
X24977243Y68560949D01*
X24779000Y68460965D01*
X24761000Y68460965D01*
X24562757Y68560949D01*
X24293073Y68484924D01*
X24150000Y68390788D01*
X24150000Y77800000D01*
X24100522Y78048744D01*
X24064964Y78101960D01*
X23959620Y78259619D01*
X22887238Y79332000D01*
X23524000Y79332000D01*
X23641000Y79449000D01*
X23641000Y80491000D01*
X23659000Y80491000D01*
X23659000Y79449000D01*
X23776000Y79332000D01*
X24443091Y79332000D01*
X24615101Y79403249D01*
X24746751Y79534899D01*
X24818000Y79706909D01*
X24818000Y80374000D01*
X24701000Y80491000D01*
X23659000Y80491000D01*
X23641000Y80491000D01*
X23621000Y80491000D01*
X23621000Y80509000D01*
X23641000Y80509000D01*
X23641000Y81551000D01*
X23659000Y81551000D01*
X23659000Y80509000D01*
X24701000Y80509000D01*
X24818000Y80626000D01*
X24818000Y81293091D01*
X24746751Y81465101D01*
X24615101Y81596751D01*
X24443091Y81668000D01*
X23776000Y81668000D01*
X23659000Y81551000D01*
X23641000Y81551000D01*
X23524000Y81668000D01*
X22856909Y81668000D01*
X22684899Y81596751D01*
X22553249Y81465101D01*
X22550000Y81457257D01*
X22550000Y82530762D01*
X24109620Y84090381D01*
X24250522Y84301256D01*
X24300000Y84550000D01*
X24300000Y85992164D01*
X24350000Y85992164D01*
X24506072Y86023209D01*
X24638384Y86111616D01*
X24726791Y86243928D01*
X24744770Y86334314D01*
X25397042Y86334314D01*
X25457318Y86131293D01*
X25880753Y85939954D01*
X26345178Y85925221D01*
X26779890Y86089337D01*
X26842682Y86131293D01*
X26902958Y86334314D01*
X26150000Y87087272D01*
X25397042Y86334314D01*
X24744770Y86334314D01*
X24757836Y86400000D01*
X24757836Y86904822D01*
X24975221Y86904822D01*
X25139337Y86470110D01*
X25181293Y86407318D01*
X25384314Y86347042D01*
X26137272Y87100000D01*
X25384314Y87852958D01*
X25181293Y87792682D01*
X24989954Y87369247D01*
X24975221Y86904822D01*
X24757836Y86904822D01*
X24757836Y87800000D01*
X24744771Y87865686D01*
X25397042Y87865686D01*
X26150000Y87112728D01*
X26902958Y87865686D01*
X26842682Y88068707D01*
X26419247Y88260046D01*
X25954822Y88274779D01*
X25520110Y88110663D01*
X25457318Y88068707D01*
X25397042Y87865686D01*
X24744771Y87865686D01*
X24726791Y87956072D01*
X24638384Y88088384D01*
X24506072Y88176791D01*
X24350000Y88207836D01*
X24300000Y88207836D01*
X24300000Y89610000D01*
X24250522Y89858744D01*
X24109620Y90069619D01*
X22759930Y91419308D01*
X22760173Y91698040D01*
X22608253Y92065714D01*
X22536665Y92137427D01*
X23078403Y92679164D01*
X23220301Y92620243D01*
X23777256Y92619757D01*
X24292000Y92832445D01*
X24686170Y93225928D01*
X24899757Y93740301D01*
X24900243Y94297256D01*
X24687555Y94812000D01*
X24294072Y95206170D01*
X23779699Y95419757D01*
X23222744Y95420243D01*
X22708000Y95207555D01*
X22313830Y94814072D01*
X22100243Y94299699D01*
X22099757Y93742744D01*
X22159329Y93598568D01*
X21300381Y92739619D01*
X21159478Y92528745D01*
X21159478Y92528744D01*
X21110000Y92280000D01*
X21110000Y92264114D01*
X20912736Y92067194D01*
X20760174Y91699785D01*
X20759827Y91301960D01*
X20911747Y90934286D01*
X21192806Y90652736D01*
X21560215Y90500174D01*
X21840832Y90499929D01*
X23000000Y89340761D01*
X23000000Y88207836D01*
X22950000Y88207836D01*
X22793928Y88176791D01*
X22661616Y88088384D01*
X22573209Y87956072D01*
X22542164Y87800000D01*
X22542164Y86400000D01*
X22573209Y86243928D01*
X22661616Y86111616D01*
X22793928Y86023209D01*
X22950000Y85992164D01*
X23000000Y85992164D01*
X23000000Y84819239D01*
X21440381Y83259619D01*
X21299478Y83048745D01*
X21299478Y83048744D01*
X21250000Y82800000D01*
X21250000Y79400000D01*
X21269857Y79300173D01*
X21299478Y79151255D01*
X21440381Y78940381D01*
X22850000Y77530761D01*
X22850000Y76905498D01*
X22505445Y77060901D01*
X22080772Y77074073D01*
X21683386Y76923726D01*
X21627250Y76886217D01*
X21579140Y76693588D01*
X22260000Y76012728D01*
X22274142Y76026870D01*
X22286870Y76014142D01*
X22272728Y76000000D01*
X22286870Y75985858D01*
X22274142Y75973130D01*
X22260000Y75987272D01*
X21579140Y75306412D01*
X21627250Y75113783D01*
X22014555Y74939099D01*
X22439228Y74925927D01*
X22836614Y75076274D01*
X22850000Y75085218D01*
X22850000Y70705498D01*
X22505445Y70860901D01*
X22080772Y70874073D01*
X21683386Y70723726D01*
X21627250Y70686217D01*
X21579140Y70493588D01*
X22260000Y69812728D01*
X22274142Y69826870D01*
X22286870Y69814142D01*
X22272728Y69800000D01*
X22286870Y69785858D01*
X22274142Y69773130D01*
X22260000Y69787272D01*
X21579140Y69106412D01*
X21627250Y68913783D01*
X21850000Y68813317D01*
X21850000Y68463800D01*
X21780623Y68450000D01*
X20701134Y68450000D01*
X20646072Y68486791D01*
X20490000Y68517836D01*
X18890000Y68517836D01*
X18733928Y68486791D01*
X18678866Y68450000D01*
X18112465Y68450000D01*
X18017903Y68678857D01*
X17680633Y69016717D01*
X17239742Y69199791D01*
X16762353Y69200207D01*
X16321143Y69017903D01*
X16152946Y68850000D01*
X15347059Y68850000D01*
X15180633Y69016717D01*
X14739742Y69199791D01*
X14262353Y69200207D01*
X13821143Y69017903D01*
X13552771Y68750000D01*
X13052943Y68750000D01*
X13051196Y68752614D01*
X12837786Y68825058D01*
X12012728Y68000000D01*
X12026870Y67985858D01*
X12014142Y67973130D01*
X12000000Y67987272D01*
X11985858Y67973130D01*
X11973130Y67985858D01*
X11987272Y68000000D01*
X11162214Y68825058D01*
X11050000Y68786966D01*
X11050000Y68837786D01*
X11174942Y68837786D01*
X12000000Y68012728D01*
X12825058Y68837786D01*
X12752614Y69051196D01*
X12293050Y69259191D01*
X11788871Y69275486D01*
X11316836Y69097599D01*
X11247386Y69051196D01*
X11174942Y68837786D01*
X11050000Y68837786D01*
X11050000Y69620772D01*
X21185927Y69620772D01*
X21336274Y69223386D01*
X21373783Y69167250D01*
X21566412Y69119140D01*
X22247272Y69800000D01*
X21566412Y70480860D01*
X21373783Y70432750D01*
X21199099Y70045445D01*
X21185927Y69620772D01*
X11050000Y69620772D01*
X11050000Y72230762D01*
X13810238Y74991000D01*
X18032000Y74991000D01*
X18032000Y74491000D01*
X18147189Y73929906D01*
X18468331Y73455603D01*
X18946536Y73140300D01*
X19261469Y73051509D01*
X19491000Y73149030D01*
X19491000Y74991000D01*
X19509000Y74991000D01*
X19509000Y73149030D01*
X19738531Y73051509D01*
X20053464Y73140300D01*
X20531669Y73455603D01*
X20852811Y73929906D01*
X20968000Y74491000D01*
X20968000Y74991000D01*
X19509000Y74991000D01*
X19491000Y74991000D01*
X18032000Y74991000D01*
X13810238Y74991000D01*
X14328238Y75509000D01*
X18032000Y75509000D01*
X18032000Y75009000D01*
X19491000Y75009000D01*
X19491000Y76850970D01*
X19509000Y76850970D01*
X19509000Y75009000D01*
X20968000Y75009000D01*
X20968000Y75509000D01*
X20903996Y75820772D01*
X21185927Y75820772D01*
X21336274Y75423386D01*
X21373783Y75367250D01*
X21566412Y75319140D01*
X22247272Y76000000D01*
X21566412Y76680860D01*
X21373783Y76632750D01*
X21199099Y76245445D01*
X21185927Y75820772D01*
X20903996Y75820772D01*
X20852811Y76070094D01*
X20531669Y76544397D01*
X20053464Y76859700D01*
X19738531Y76948491D01*
X19509000Y76850970D01*
X19491000Y76850970D01*
X19261469Y76948491D01*
X18946536Y76859700D01*
X18468331Y76544397D01*
X18147189Y76070094D01*
X18032000Y75509000D01*
X14328238Y75509000D01*
X19359619Y80540380D01*
X19500522Y80751255D01*
X19510114Y80799478D01*
X19550000Y81000000D01*
X19550000Y88100000D01*
X19500522Y88348744D01*
X19439801Y88439619D01*
X19359620Y88559619D01*
X18187817Y89731421D01*
X18199791Y89760258D01*
X18200207Y90237647D01*
X18017903Y90678857D01*
X17680633Y91016717D01*
X17239742Y91199791D01*
X16762353Y91200207D01*
X16321143Y91017903D01*
X16253121Y90950000D01*
X15247233Y90950000D01*
X15180633Y91016717D01*
X14739742Y91199791D01*
X14262353Y91200207D01*
X13821143Y91017903D01*
X13483283Y90680633D01*
X13300209Y90239742D01*
X13299793Y89762353D01*
X13482097Y89321143D01*
X13819367Y88983283D01*
X14260258Y88800209D01*
X14737647Y88799793D01*
X14768302Y88812459D01*
X17150000Y86430761D01*
X17150000Y81669238D01*
X14430762Y78950000D01*
X8004114Y78950000D01*
X7807194Y79147264D01*
X7439785Y79299826D01*
X7041960Y79300173D01*
X6674286Y79148253D01*
X6392736Y78867194D01*
X6240174Y78499785D01*
X6239827Y78101960D01*
X6391747Y77734286D01*
X6672806Y77452736D01*
X7040215Y77300174D01*
X7438040Y77299827D01*
X7805714Y77451747D01*
X8004313Y77650000D01*
X14630761Y77650000D01*
X11830762Y74850000D01*
X10968000Y74850000D01*
X10968000Y74991000D01*
X9509000Y74991000D01*
X9509000Y73149030D01*
X9738531Y73051509D01*
X9750000Y73054743D01*
X9750000Y68552167D01*
X9679826Y68482115D01*
X9550148Y68169817D01*
X9549853Y67831666D01*
X9600124Y67710000D01*
X8864114Y67710000D01*
X8667194Y67907264D01*
X8299785Y68059826D01*
X7901960Y68060173D01*
X7534286Y67908253D01*
X7499496Y67873523D01*
X5560532Y67344715D01*
X5508157Y67318595D01*
X5491927Y67299921D01*
X5122744Y67300243D01*
X4608000Y67087555D01*
X4213830Y66694072D01*
X4154006Y66550000D01*
X3446228Y66550000D01*
X3387555Y66692000D01*
X2994072Y67086170D01*
X2479699Y67299757D01*
X1922744Y67300243D01*
X1408000Y67087555D01*
X1013830Y66694072D01*
X800243Y66179699D01*
X799757Y65622744D01*
X475000Y65622744D01*
X475000Y75622744D01*
X799757Y75622744D01*
X1012445Y75108000D01*
X1405928Y74713830D01*
X1920301Y74500243D01*
X2477256Y74499757D01*
X2992000Y74712445D01*
X3386170Y75105928D01*
X3599757Y75620301D01*
X3599759Y75622744D01*
X3999757Y75622744D01*
X4212445Y75108000D01*
X4605928Y74713830D01*
X4750000Y74654006D01*
X4750000Y73000000D01*
X4791269Y72792524D01*
X4799478Y72751255D01*
X4940381Y72540381D01*
X5800381Y71680380D01*
X5959162Y71574286D01*
X6011256Y71539478D01*
X6260000Y71490000D01*
X7335886Y71490000D01*
X7532806Y71292736D01*
X7900215Y71140174D01*
X8298040Y71139827D01*
X8665714Y71291747D01*
X8947264Y71572806D01*
X9099826Y71940215D01*
X9100173Y72338040D01*
X8948253Y72705714D01*
X8667194Y72987264D01*
X8299785Y73139826D01*
X7901960Y73140173D01*
X7534286Y72988253D01*
X7335687Y72790000D01*
X6529239Y72790000D01*
X6050000Y73269238D01*
X6050000Y74653772D01*
X6192000Y74712445D01*
X6471041Y74991000D01*
X8032000Y74991000D01*
X8032000Y74491000D01*
X8147189Y73929906D01*
X8468331Y73455603D01*
X8946536Y73140300D01*
X9261469Y73051509D01*
X9491000Y73149030D01*
X9491000Y74991000D01*
X8032000Y74991000D01*
X6471041Y74991000D01*
X6586170Y75105928D01*
X6753540Y75509000D01*
X8032000Y75509000D01*
X8032000Y75009000D01*
X9491000Y75009000D01*
X9491000Y76850970D01*
X9509000Y76850970D01*
X9509000Y75009000D01*
X10968000Y75009000D01*
X10968000Y75509000D01*
X10852811Y76070094D01*
X10531669Y76544397D01*
X10053464Y76859700D01*
X9738531Y76948491D01*
X9509000Y76850970D01*
X9491000Y76850970D01*
X9261469Y76948491D01*
X8946536Y76859700D01*
X8468331Y76544397D01*
X8147189Y76070094D01*
X8032000Y75509000D01*
X6753540Y75509000D01*
X6799757Y75620301D01*
X6800243Y76177256D01*
X6587555Y76692000D01*
X6194072Y77086170D01*
X5679699Y77299757D01*
X5122744Y77300243D01*
X4608000Y77087555D01*
X4213830Y76694072D01*
X4000243Y76179699D01*
X3999757Y75622744D01*
X3599759Y75622744D01*
X3600243Y76177256D01*
X3387555Y76692000D01*
X2994072Y77086170D01*
X2850000Y77145994D01*
X2850000Y77575816D01*
X3007264Y77732806D01*
X3159826Y78100215D01*
X3160173Y78498040D01*
X3008253Y78865714D01*
X2727194Y79147264D01*
X2359785Y79299826D01*
X1961960Y79300173D01*
X1594286Y79148253D01*
X1312736Y78867194D01*
X1160174Y78499785D01*
X1159827Y78101960D01*
X1311747Y77734286D01*
X1550000Y77495617D01*
X1550000Y77146228D01*
X1408000Y77087555D01*
X1013830Y76694072D01*
X800243Y76179699D01*
X799757Y75622744D01*
X475000Y75622744D01*
X475000Y90412353D01*
X1649793Y90412353D01*
X1832097Y89971143D01*
X2169367Y89633283D01*
X2610258Y89450209D01*
X3087647Y89449793D01*
X3118302Y89462459D01*
X4870000Y87710761D01*
X4870000Y86499826D01*
X4841143Y86487903D01*
X4503283Y86150633D01*
X4320209Y85709742D01*
X4319793Y85232353D01*
X4502097Y84791143D01*
X4839367Y84453283D01*
X4870000Y84440563D01*
X4870000Y83959826D01*
X4841143Y83947903D01*
X4503283Y83610633D01*
X4320209Y83169742D01*
X4319793Y82692353D01*
X4502097Y82251143D01*
X4839367Y81913283D01*
X5280258Y81730209D01*
X5757647Y81729793D01*
X6198857Y81912097D01*
X6379289Y82092214D01*
X7234942Y82092214D01*
X7307386Y81878804D01*
X7766950Y81670809D01*
X8271129Y81654514D01*
X8743164Y81832401D01*
X8812614Y81878804D01*
X8885058Y82092214D01*
X9774942Y82092214D01*
X9847386Y81878804D01*
X10306950Y81670809D01*
X10811129Y81654514D01*
X11283164Y81832401D01*
X11352614Y81878804D01*
X11425058Y82092214D01*
X12314942Y82092214D01*
X12387386Y81878804D01*
X12846950Y81670809D01*
X13351129Y81654514D01*
X13823164Y81832401D01*
X13892614Y81878804D01*
X13965058Y82092214D01*
X13140000Y82917272D01*
X12314942Y82092214D01*
X11425058Y82092214D01*
X10600000Y82917272D01*
X9774942Y82092214D01*
X8885058Y82092214D01*
X8060000Y82917272D01*
X7234942Y82092214D01*
X6379289Y82092214D01*
X6536717Y82249367D01*
X6719791Y82690258D01*
X6719815Y82718871D01*
X6784514Y82718871D01*
X6962401Y82246836D01*
X7008804Y82177386D01*
X7222214Y82104942D01*
X8047272Y82930000D01*
X8072728Y82930000D01*
X8897786Y82104942D01*
X9111196Y82177386D01*
X9319191Y82636950D01*
X9321838Y82718871D01*
X9324514Y82718871D01*
X9502401Y82246836D01*
X9548804Y82177386D01*
X9762214Y82104942D01*
X10587272Y82930000D01*
X10612728Y82930000D01*
X11437786Y82104942D01*
X11651196Y82177386D01*
X11859191Y82636950D01*
X11861838Y82718871D01*
X11864514Y82718871D01*
X12042401Y82246836D01*
X12088804Y82177386D01*
X12302214Y82104942D01*
X13127272Y82930000D01*
X13152728Y82930000D01*
X13977786Y82104942D01*
X14191196Y82177386D01*
X14399191Y82636950D01*
X14415486Y83141129D01*
X14237599Y83613164D01*
X14191196Y83682614D01*
X13977786Y83755058D01*
X13152728Y82930000D01*
X13127272Y82930000D01*
X12302214Y83755058D01*
X12088804Y83682614D01*
X11880809Y83223050D01*
X11864514Y82718871D01*
X11861838Y82718871D01*
X11875486Y83141129D01*
X11697599Y83613164D01*
X11651196Y83682614D01*
X11437786Y83755058D01*
X10612728Y82930000D01*
X10587272Y82930000D01*
X9762214Y83755058D01*
X9548804Y83682614D01*
X9340809Y83223050D01*
X9324514Y82718871D01*
X9321838Y82718871D01*
X9335486Y83141129D01*
X9157599Y83613164D01*
X9111196Y83682614D01*
X8897786Y83755058D01*
X8072728Y82930000D01*
X8047272Y82930000D01*
X7222214Y83755058D01*
X7008804Y83682614D01*
X6800809Y83223050D01*
X6784514Y82718871D01*
X6719815Y82718871D01*
X6720207Y83167647D01*
X6537903Y83608857D01*
X6379252Y83767786D01*
X7234942Y83767786D01*
X8060000Y82942728D01*
X8885058Y83767786D01*
X9774942Y83767786D01*
X10600000Y82942728D01*
X11425058Y83767786D01*
X12314942Y83767786D01*
X13140000Y82942728D01*
X13965058Y83767786D01*
X13892614Y83981196D01*
X13433050Y84189191D01*
X12928871Y84205486D01*
X12456836Y84027599D01*
X12387386Y83981196D01*
X12314942Y83767786D01*
X11425058Y83767786D01*
X11352614Y83981196D01*
X10893050Y84189191D01*
X10388871Y84205486D01*
X9916836Y84027599D01*
X9847386Y83981196D01*
X9774942Y83767786D01*
X8885058Y83767786D01*
X8812614Y83981196D01*
X8353050Y84189191D01*
X7848871Y84205486D01*
X7376836Y84027599D01*
X7307386Y83981196D01*
X7234942Y83767786D01*
X6379252Y83767786D01*
X6200633Y83946717D01*
X6170000Y83959437D01*
X6170000Y84440174D01*
X6198857Y84452097D01*
X6379289Y84632214D01*
X7234942Y84632214D01*
X7307386Y84418804D01*
X7766950Y84210809D01*
X8271129Y84194514D01*
X8743164Y84372401D01*
X8812614Y84418804D01*
X8885058Y84632214D01*
X9774942Y84632214D01*
X9847386Y84418804D01*
X10306950Y84210809D01*
X10811129Y84194514D01*
X11283164Y84372401D01*
X11352614Y84418804D01*
X11425058Y84632214D01*
X12314942Y84632214D01*
X12387386Y84418804D01*
X12846950Y84210809D01*
X13351129Y84194514D01*
X13823164Y84372401D01*
X13892614Y84418804D01*
X13965058Y84632214D01*
X13140000Y85457272D01*
X12314942Y84632214D01*
X11425058Y84632214D01*
X10600000Y85457272D01*
X9774942Y84632214D01*
X8885058Y84632214D01*
X8060000Y85457272D01*
X7234942Y84632214D01*
X6379289Y84632214D01*
X6536717Y84789367D01*
X6719791Y85230258D01*
X6719815Y85258871D01*
X6784514Y85258871D01*
X6962401Y84786836D01*
X7008804Y84717386D01*
X7222214Y84644942D01*
X8047272Y85470000D01*
X8072728Y85470000D01*
X8897786Y84644942D01*
X9111196Y84717386D01*
X9319191Y85176950D01*
X9321838Y85258871D01*
X9324514Y85258871D01*
X9502401Y84786836D01*
X9548804Y84717386D01*
X9762214Y84644942D01*
X10587272Y85470000D01*
X10612728Y85470000D01*
X11437786Y84644942D01*
X11651196Y84717386D01*
X11859191Y85176950D01*
X11861838Y85258871D01*
X11864514Y85258871D01*
X12042401Y84786836D01*
X12088804Y84717386D01*
X12302214Y84644942D01*
X13127272Y85470000D01*
X13152728Y85470000D01*
X13977786Y84644942D01*
X14191196Y84717386D01*
X14399191Y85176950D01*
X14415486Y85681129D01*
X14237599Y86153164D01*
X14191196Y86222614D01*
X13977786Y86295058D01*
X13152728Y85470000D01*
X13127272Y85470000D01*
X12302214Y86295058D01*
X12088804Y86222614D01*
X11880809Y85763050D01*
X11864514Y85258871D01*
X11861838Y85258871D01*
X11875486Y85681129D01*
X11697599Y86153164D01*
X11651196Y86222614D01*
X11437786Y86295058D01*
X10612728Y85470000D01*
X10587272Y85470000D01*
X9762214Y86295058D01*
X9548804Y86222614D01*
X9340809Y85763050D01*
X9324514Y85258871D01*
X9321838Y85258871D01*
X9335486Y85681129D01*
X9157599Y86153164D01*
X9111196Y86222614D01*
X8897786Y86295058D01*
X8072728Y85470000D01*
X8047272Y85470000D01*
X7222214Y86295058D01*
X7008804Y86222614D01*
X6800809Y85763050D01*
X6784514Y85258871D01*
X6719815Y85258871D01*
X6720207Y85707647D01*
X6537903Y86148857D01*
X6379252Y86307786D01*
X7234942Y86307786D01*
X8060000Y85482728D01*
X8885058Y86307786D01*
X9774942Y86307786D01*
X10600000Y85482728D01*
X11425058Y86307786D01*
X12314942Y86307786D01*
X13140000Y85482728D01*
X13965058Y86307786D01*
X13892614Y86521196D01*
X13433050Y86729191D01*
X12928871Y86745486D01*
X12456836Y86567599D01*
X12387386Y86521196D01*
X12314942Y86307786D01*
X11425058Y86307786D01*
X11352614Y86521196D01*
X10893050Y86729191D01*
X10388871Y86745486D01*
X9916836Y86567599D01*
X9847386Y86521196D01*
X9774942Y86307786D01*
X8885058Y86307786D01*
X8812614Y86521196D01*
X8353050Y86729191D01*
X7848871Y86745486D01*
X7376836Y86567599D01*
X7307386Y86521196D01*
X7234942Y86307786D01*
X6379252Y86307786D01*
X6200633Y86486717D01*
X6170000Y86499437D01*
X6170000Y87980000D01*
X6120522Y88228744D01*
X6120522Y88228745D01*
X5979619Y88439620D01*
X4037817Y90381421D01*
X4049791Y90410258D01*
X4049792Y90412353D01*
X5349793Y90412353D01*
X5532097Y89971143D01*
X5869367Y89633283D01*
X5900000Y89620563D01*
X5900000Y89050000D01*
X5929359Y88902401D01*
X5949478Y88801255D01*
X6090381Y88590381D01*
X7440380Y87240381D01*
X7651255Y87099478D01*
X7692524Y87091269D01*
X7900000Y87050000D01*
X14430762Y87050000D01*
X14996997Y86483764D01*
X14663283Y86150633D01*
X14480209Y85709742D01*
X14479793Y85232353D01*
X14662097Y84791143D01*
X14999367Y84453283D01*
X15030000Y84440563D01*
X15030000Y84137836D01*
X14880000Y84137836D01*
X14723928Y84106791D01*
X14591616Y84018384D01*
X14503209Y83886072D01*
X14472164Y83730000D01*
X14472164Y82130000D01*
X14503209Y81973928D01*
X14591616Y81841616D01*
X14723928Y81753209D01*
X14880000Y81722164D01*
X16480000Y81722164D01*
X16636072Y81753209D01*
X16768384Y81841616D01*
X16856791Y81973928D01*
X16887836Y82130000D01*
X16887836Y83730000D01*
X16856791Y83886072D01*
X16768384Y84018384D01*
X16636072Y84106791D01*
X16480000Y84137836D01*
X16330000Y84137836D01*
X16330000Y84440174D01*
X16358857Y84452097D01*
X16696717Y84789367D01*
X16879791Y85230258D01*
X16880207Y85707647D01*
X16697903Y86148857D01*
X16360633Y86486717D01*
X16330000Y86499437D01*
X16330000Y86720000D01*
X16280522Y86968744D01*
X16280522Y86968745D01*
X16139619Y87179620D01*
X15159619Y88159619D01*
X14948745Y88300522D01*
X14907476Y88308731D01*
X14700000Y88350000D01*
X8169239Y88350000D01*
X7357025Y89162214D01*
X11174942Y89162214D01*
X11247386Y88948804D01*
X11706950Y88740809D01*
X12211129Y88724514D01*
X12683164Y88902401D01*
X12752614Y88948804D01*
X12825058Y89162214D01*
X12000000Y89987272D01*
X11174942Y89162214D01*
X7357025Y89162214D01*
X7200000Y89319238D01*
X7200000Y89620174D01*
X7228857Y89632097D01*
X7385905Y89788871D01*
X10724514Y89788871D01*
X10902401Y89316836D01*
X10948804Y89247386D01*
X11162214Y89174942D01*
X11987272Y90000000D01*
X12012728Y90000000D01*
X12837786Y89174942D01*
X13051196Y89247386D01*
X13259191Y89706950D01*
X13275486Y90211129D01*
X13097599Y90683164D01*
X13051196Y90752614D01*
X12837786Y90825058D01*
X12012728Y90000000D01*
X11987272Y90000000D01*
X11162214Y90825058D01*
X10948804Y90752614D01*
X10740809Y90293050D01*
X10724514Y89788871D01*
X7385905Y89788871D01*
X7566717Y89969367D01*
X7749791Y90410258D01*
X7750163Y90837786D01*
X11174942Y90837786D01*
X12000000Y90012728D01*
X12825058Y90837786D01*
X12752614Y91051196D01*
X12293050Y91259191D01*
X11788871Y91275486D01*
X11316836Y91097599D01*
X11247386Y91051196D01*
X11174942Y90837786D01*
X7750163Y90837786D01*
X7750207Y90887647D01*
X7567903Y91328857D01*
X7230633Y91666717D01*
X6789742Y91849791D01*
X6312353Y91850207D01*
X5871143Y91667903D01*
X5533283Y91330633D01*
X5350209Y90889742D01*
X5349793Y90412353D01*
X4049792Y90412353D01*
X4050207Y90887647D01*
X3867903Y91328857D01*
X3530633Y91666717D01*
X3089742Y91849791D01*
X2612353Y91850207D01*
X2171143Y91667903D01*
X1833283Y91330633D01*
X1650209Y90889742D01*
X1649793Y90412353D01*
X475000Y90412353D01*
X475000Y102081981D01*
X7180747Y102081981D01*
X8150000Y101112728D01*
X9119253Y102081981D01*
X9022476Y102316173D01*
X8490654Y102557479D01*
X7906970Y102576898D01*
X7360285Y102371471D01*
X7277524Y102316173D01*
X7180747Y102081981D01*
X475000Y102081981D01*
X475000Y103218019D01*
X7180747Y103218019D01*
X7277524Y102983827D01*
X7809346Y102742521D01*
X8393030Y102723102D01*
X8939715Y102928529D01*
X9022476Y102983827D01*
X9119253Y103218019D01*
X8150000Y104187272D01*
X7180747Y103218019D01*
X475000Y103218019D01*
X475000Y103956970D01*
X6673102Y103956970D01*
X6878529Y103410285D01*
X6933827Y103327524D01*
X7168019Y103230747D01*
X8137272Y104200000D01*
X8162728Y104200000D01*
X9131981Y103230747D01*
X9366173Y103327524D01*
X9607479Y103859346D01*
X9626898Y104443030D01*
X9421471Y104989715D01*
X9366173Y105072476D01*
X9131981Y105169253D01*
X8162728Y104200000D01*
X8137272Y104200000D01*
X7168019Y105169253D01*
X6933827Y105072476D01*
X6692521Y104540654D01*
X6673102Y103956970D01*
X475000Y103956970D01*
X475000Y105525000D01*
X7502737Y105525000D01*
X7360285Y105471471D01*
G36*
X8032000Y53509000D02*
X8032000Y53009000D01*
X9491000Y53009000D01*
X9491000Y53029000D01*
X9509000Y53029000D01*
X9509000Y53009000D01*
X9529000Y53009000D01*
X9529000Y52991000D01*
X9509000Y52991000D01*
X9509000Y51149030D01*
X9738531Y51051509D01*
X10053464Y51140300D01*
X10531669Y51455603D01*
X10850000Y51925754D01*
X10850000Y51069238D01*
X9830762Y50050000D01*
X7946884Y50050000D01*
X7680633Y50316717D01*
X7650000Y50329437D01*
X7650000Y52991000D01*
X8032000Y52991000D01*
X8032000Y52491000D01*
X8147189Y51929906D01*
X8468331Y51455603D01*
X8946536Y51140300D01*
X9261469Y51051509D01*
X9491000Y51149030D01*
X9491000Y52991000D01*
X8032000Y52991000D01*
X7650000Y52991000D01*
X7650000Y53540810D01*
X8138898Y54029708D01*
X8032000Y53509000D01*
X8032000Y53509000D01*
G37*
X8032000Y53509000D02*
X8032000Y53009000D01*
X9491000Y53009000D01*
X9491000Y53029000D01*
X9509000Y53029000D01*
X9509000Y53009000D01*
X9529000Y53009000D01*
X9529000Y52991000D01*
X9509000Y52991000D01*
X9509000Y51149030D01*
X9738531Y51051509D01*
X10053464Y51140300D01*
X10531669Y51455603D01*
X10850000Y51925754D01*
X10850000Y51069238D01*
X9830762Y50050000D01*
X7946884Y50050000D01*
X7680633Y50316717D01*
X7650000Y50329437D01*
X7650000Y52991000D01*
X8032000Y52991000D01*
X8032000Y52491000D01*
X8147189Y51929906D01*
X8468331Y51455603D01*
X8946536Y51140300D01*
X9261469Y51051509D01*
X9491000Y51149030D01*
X9491000Y52991000D01*
X8032000Y52991000D01*
X7650000Y52991000D01*
X7650000Y53540810D01*
X8138898Y54029708D01*
X8032000Y53509000D01*
G36*
X4212445Y65108000D02*
X4605928Y64713830D01*
X5120301Y64500243D01*
X5677256Y64499757D01*
X5920596Y64600303D01*
X5613830Y64294072D01*
X5400243Y63779699D01*
X5399757Y63222744D01*
X5612445Y62708000D01*
X6005928Y62313830D01*
X6150000Y62254006D01*
X6150000Y61046228D01*
X6008000Y60987555D01*
X5613830Y60594072D01*
X5400243Y60079699D01*
X5399757Y59522744D01*
X5450000Y59401147D01*
X5450000Y57929437D01*
X5039742Y58099791D01*
X4562353Y58100207D01*
X4121143Y57917903D01*
X3783283Y57580633D01*
X3770563Y57550000D01*
X3669239Y57550000D01*
X3540836Y57678403D01*
X3599757Y57820301D01*
X3600243Y58377256D01*
X3387555Y58892000D01*
X2994072Y59286170D01*
X2850000Y59345994D01*
X2850000Y64653772D01*
X2992000Y64712445D01*
X3386170Y65105928D01*
X3445994Y65250000D01*
X4153772Y65250000D01*
X4212445Y65108000D01*
X4212445Y65108000D01*
G37*
X4212445Y65108000D02*
X4605928Y64713830D01*
X5120301Y64500243D01*
X5677256Y64499757D01*
X5920596Y64600303D01*
X5613830Y64294072D01*
X5400243Y63779699D01*
X5399757Y63222744D01*
X5612445Y62708000D01*
X6005928Y62313830D01*
X6150000Y62254006D01*
X6150000Y61046228D01*
X6008000Y60987555D01*
X5613830Y60594072D01*
X5400243Y60079699D01*
X5399757Y59522744D01*
X5450000Y59401147D01*
X5450000Y57929437D01*
X5039742Y58099791D01*
X4562353Y58100207D01*
X4121143Y57917903D01*
X3783283Y57580633D01*
X3770563Y57550000D01*
X3669239Y57550000D01*
X3540836Y57678403D01*
X3599757Y57820301D01*
X3600243Y58377256D01*
X3387555Y58892000D01*
X2994072Y59286170D01*
X2850000Y59345994D01*
X2850000Y64653772D01*
X2992000Y64712445D01*
X3386170Y65105928D01*
X3445994Y65250000D01*
X4153772Y65250000D01*
X4212445Y65108000D01*
M02*
