G04 #@! TF.FileFunction,Soldermask,Top*
%FSLAX46Y46*%
G04 Gerber Fmt 4.6, Leading zero omitted, Abs format (unit mm)*
G04 Created by KiCad (PCBNEW (2016-08-20 BZR 7083)-product) date Thu Dec  8 21:02:35 2016*
%MOMM*%
%LPD*%
G01*
G04 APERTURE LIST*
%ADD10C,0.100000*%
%ADD11C,2.200000*%
%ADD12C,1.800000*%
%ADD13C,1.400000*%
%ADD14R,1.600000X1.600000*%
%ADD15C,1.600000*%
%ADD16O,2.200000X3.200000*%
%ADD17R,1.800000X1.800000*%
%ADD18R,1.800000X2.400000*%
%ADD19O,1.800000X2.400000*%
G04 APERTURE END LIST*
D10*
D11*
X5000000Y20698000D03*
X5000000Y28826000D03*
X5000000Y17650000D03*
X20850000Y104200000D03*
X8150000Y104200000D03*
X8150000Y101100000D03*
X20850000Y101100000D03*
D12*
X2850000Y90650000D03*
X1950000Y95750000D03*
D13*
X7240000Y78300000D03*
X2160000Y78300000D03*
X8100000Y67060000D03*
X8100000Y72140000D03*
X7240000Y45900000D03*
X2160000Y45900000D03*
D14*
X23650000Y87100000D03*
D15*
X26150000Y87100000D03*
D14*
X23650000Y80500000D03*
D15*
X26150000Y80500000D03*
D13*
X21760000Y91500000D03*
X26840000Y91500000D03*
X22260000Y76000000D03*
X27340000Y76000000D03*
X21900000Y56740000D03*
X21900000Y51660000D03*
X22260000Y69800000D03*
X27340000Y69800000D03*
D16*
X19500000Y97000000D03*
X9500000Y97000000D03*
D12*
X17000000Y90000000D03*
X14500000Y90000000D03*
X12000000Y90000000D03*
D16*
X19500000Y75000000D03*
X9500000Y75000000D03*
D12*
X17000000Y68000000D03*
X14500000Y68000000D03*
X12000000Y68000000D03*
D16*
X19500000Y53000000D03*
X9500000Y53000000D03*
D12*
X17000000Y46000000D03*
X14500000Y46000000D03*
X12000000Y46000000D03*
D11*
X2200000Y75900000D03*
X2200000Y65900000D03*
X5400000Y75900000D03*
X5400000Y65900000D03*
X2200000Y48100000D03*
X2200000Y58100000D03*
X16800000Y63500000D03*
X6800000Y63500000D03*
X6800000Y59800000D03*
X16800000Y59800000D03*
X24800000Y56500000D03*
X24800000Y46500000D03*
X13000000Y34400000D03*
X3000000Y34400000D03*
X15900000Y34400000D03*
X25900000Y34400000D03*
D12*
X7000000Y56900000D03*
X7000000Y49300000D03*
X4800000Y49300000D03*
X4800000Y56900000D03*
X13000000Y39500000D03*
X5400000Y39500000D03*
X5400000Y37300000D03*
X13000000Y37300000D03*
X6550000Y90650000D03*
X5650000Y95750000D03*
D17*
X15680000Y82930000D03*
D12*
X15680000Y85470000D03*
X13140000Y82930000D03*
X13140000Y85470000D03*
X10600000Y82930000D03*
X10600000Y85470000D03*
X8060000Y82930000D03*
X8060000Y85470000D03*
X5520000Y82930000D03*
X5520000Y85470000D03*
D11*
X14500000Y20698000D03*
X14500000Y28826000D03*
X14500000Y17650000D03*
X24000000Y20698000D03*
X24000000Y28826000D03*
X24000000Y17650000D03*
X7000000Y5698000D03*
X7000000Y13826000D03*
X7000000Y2650000D03*
X22000000Y5698000D03*
X22000000Y13826000D03*
X22000000Y2650000D03*
D18*
X19690000Y67010000D03*
D19*
X22230000Y67010000D03*
X24770000Y67010000D03*
X27310000Y67010000D03*
X27310000Y59390000D03*
X24770000Y59390000D03*
X22230000Y59390000D03*
X19690000Y59390000D03*
D11*
X23500000Y104180000D03*
X23500000Y94020000D03*
X26600000Y104180000D03*
X26600000Y94020000D03*
M02*
