M48
;DRILL file {KiCad (2016-08-20 BZR 7083)-product} date Thu Dec  8 21:02:36 2016
;FORMAT={3:3/ absolute / metric / suppress leading zeros}
FMAT,2
METRIC,TZ
T1C0.500
T2C0.700
T3C0.800
T4C0.900
T5C1.000
T6C1.100
T7C1.400
%
G90
G05
M71
T1
X1100Y99000
X1100Y28200
X1500Y88800
X1500Y56000
X1500Y1400
X1600Y73500
X1600Y50600
X1900Y8900
X2000Y103900
X2300Y37400
X3900Y67700
X3900Y64600
X4000Y30600
X4400Y27000
X4500Y93400
X4600Y58800
X4800Y79900
X4900Y15300
X5400Y34900
X5700Y55200
X6400Y31900
X6500Y44600
X7400Y40900
X8900Y69000
X9500Y35300
X10400Y68000
X10900Y14000
X11100Y1300
X11500Y60100
X12200Y98100
X12600Y50700
X13200Y58700
X13200Y32300
X14400Y60200
X14400Y6500
X14500Y26800
X14600Y75000
X14700Y42900
X15100Y36800
X15600Y57600
X15800Y104800
X15900Y34400
X17700Y33200
X18400Y1300
X18900Y14600
X19000Y40800
X19100Y102700
X19300Y37800
X19690Y63490
X20800Y87500
X21800Y9100
X22000Y55200
X23000Y44500
X23900Y31100
X24100Y26900
X24400Y15000
X24600Y38600
X25300Y74400
X26800Y49800
X27200Y55000
X27300Y64800
X27400Y96400
X27500Y1500
X27700Y102400
X27900Y39400
X27900Y23700
X27900Y18300
T2
X2160Y78300
X2160Y45900
X7240Y78300
X7240Y45900
X8100Y72140
X8100Y67060
X21760Y91500
X21900Y56740
X21900Y51660
X22260Y76000
X22260Y69800
X26840Y91500
X27340Y76000
X27340Y69800
T3
X1950Y95750
X2850Y90650
X4800Y56900
X4800Y49300
X5400Y39500
X5400Y37300
X5650Y95750
X6550Y90650
X7000Y56900
X7000Y49300
X13000Y39500
X13000Y37300
T4
X19690Y67010
X19690Y59390
X22230Y67010
X22230Y59390
X23650Y87100
X23650Y80500
X24770Y67010
X24770Y59390
X26150Y87100
X26150Y80500
X27310Y67010
X27310Y59390
T5
X2200Y75900
X2200Y65900
X2200Y58100
X2200Y48100
X3000Y34400
X5400Y75900
X5400Y65900
X5520Y85470
X5520Y82930
X6800Y63500
X6800Y59800
X8060Y85470
X8060Y82930
X8150Y104200
X8150Y101100
X10600Y85470
X10600Y82930
X12000Y90000
X12000Y68000
X12000Y46000
X13000Y34400
X13140Y85470
X13140Y82930
X14500Y90000
X14500Y68000
X14500Y46000
X15680Y85470
X15680Y82930
X15900Y34400
X16800Y63500
X16800Y59800
X17000Y90000
X17000Y68000
X17000Y46000
X20850Y104200
X20850Y101100
X23500Y104180
X23500Y94020
X24800Y56500
X24800Y46500
X25900Y34400
X26600Y104180
X26600Y94020
T6
X5000Y28826
X5000Y20698
X5000Y17650
X7000Y13826
X7000Y5698
X7000Y2650
X14500Y28826
X14500Y20698
X14500Y17650
X22000Y13826
X22000Y5698
X22000Y2650
X24000Y28826
X24000Y20698
X24000Y17650
T7
X9500Y97000
X9500Y75000
X9500Y53000
X19500Y97000
X19500Y75000
X19500Y53000
T0
M30
